# Blender v2.73 (sub 0) OBJ File: '0.blend'
# www.blender.org
mtllib 0.mtl
o B
v -0.000748 0.343516 -0.468164
v -0.000766 0.394507 -0.466082
v -0.000777 0.442319 -0.460504
v -0.000784 0.486711 -0.451583
v -0.000784 0.527439 -0.439473
v -0.000779 0.564262 -0.424328
v -0.000769 0.596938 -0.406303
v -0.000753 0.625224 -0.385552
v -0.000732 0.648878 -0.362228
v -0.000706 0.667658 -0.336485
v -0.000675 0.681322 -0.308479
v -0.000639 0.689627 -0.278362
v -0.000598 0.692331 -0.246289
v -0.000555 0.689283 -0.214247
v -0.000512 0.680655 -0.184221
v -0.000471 0.666692 -0.156363
v -0.000430 0.647637 -0.130824
v -0.000390 0.623734 -0.107755
v -0.000352 0.595227 -0.087308
v -0.000316 0.562360 -0.069635
v -0.000282 0.525376 -0.054886
v -0.000250 0.484520 -0.043214
v -0.000221 0.440035 -0.034769
v -0.000196 0.392166 -0.029704
v -0.000173 0.341156 -0.028170
v -0.000155 0.290165 -0.030252
v -0.000144 0.242353 -0.035830
v -0.000138 0.197962 -0.044751
v -0.000137 0.157233 -0.056861
v -0.000142 0.120410 -0.072005
v -0.000153 0.087734 -0.090031
v -0.000168 0.059448 -0.110782
v -0.000189 0.035794 -0.134106
v -0.000215 0.017014 -0.159848
v -0.000246 0.003350 -0.187855
v -0.000282 -0.004955 -0.217972
v -0.000323 -0.007659 -0.250044
v -0.000366 -0.004611 -0.282086
v -0.000409 0.004017 -0.312112
v -0.000451 0.017980 -0.339971
v -0.000492 0.037035 -0.365510
v -0.000531 0.060938 -0.388579
v -0.000569 0.089445 -0.409026
v -0.000605 0.122313 -0.426699
v -0.000639 0.159296 -0.441448
v -0.000671 0.200152 -0.453120
v -0.000700 0.244637 -0.461564
v -0.000726 0.292506 -0.466629
v -0.000620 0.342990 -0.370165
v -0.000603 0.304318 -0.369423
v -0.000586 0.268379 -0.366806
v -0.000567 0.235291 -0.362368
v -0.000547 0.205173 -0.356163
v -0.000525 0.178143 -0.348248
v -0.000503 0.154319 -0.338677
v -0.000481 0.133820 -0.327504
v -0.000457 0.116764 -0.314785
v -0.000433 0.103270 -0.300575
v -0.000409 0.093456 -0.284928
v -0.000384 0.087439 -0.267900
v -0.000360 0.085340 -0.249546
v -0.000336 0.087242 -0.231169
v -0.000316 0.093076 -0.214078
v -0.000300 0.102722 -0.198327
v -0.000286 0.116063 -0.183972
v -0.000276 0.132981 -0.171071
v -0.000270 0.153359 -0.159679
v -0.000266 0.177078 -0.149853
v -0.000266 0.204022 -0.141648
v -0.000270 0.234072 -0.135121
v -0.000277 0.267110 -0.130328
v -0.000287 0.303020 -0.127325
v -0.000301 0.341682 -0.126169
v -0.000318 0.380354 -0.126910
v -0.000335 0.416293 -0.129528
v -0.000354 0.449381 -0.133966
v -0.000375 0.479499 -0.140170
v -0.000396 0.506530 -0.148086
v -0.000418 0.530353 -0.157657
v -0.000440 0.550852 -0.168830
v -0.000464 0.567908 -0.181548
v -0.000488 0.581402 -0.195759
v -0.000512 0.591217 -0.211405
v -0.000537 0.597233 -0.228433
v -0.000562 0.599332 -0.246788
v -0.000585 0.597430 -0.265164
v -0.000605 0.591597 -0.282256
v -0.000621 0.581951 -0.298007
v -0.000635 0.568610 -0.312361
v -0.000645 0.551691 -0.325262
v -0.000652 0.531313 -0.336654
v -0.000655 0.507594 -0.346481
v -0.000655 0.480650 -0.354686
v -0.000651 0.450600 -0.361213
v -0.000644 0.417562 -0.366006
v -0.000634 0.381653 -0.369009
usemtl None
s off
f 14 12 13
f 14 11 12
f 15 11 14
f 15 10 11
f 16 10 15
f 16 9 10
f 17 9 16
f 18 9 17
f 18 8 9
f 19 8 18
f 19 85 8
f 85 7 8
f 19 84 85
f 86 7 85
f 19 83 84
f 87 7 86
f 20 83 19
f 87 6 7
f 20 82 83
f 88 6 87
f 20 81 82
f 89 6 88
f 20 80 81
f 90 6 89
f 21 80 20
f 90 5 6
f 21 79 80
f 91 5 90
f 21 78 79
f 92 5 91
f 22 78 21
f 92 4 5
f 22 77 78
f 93 4 92
f 23 77 22
f 93 3 4
f 23 76 77
f 94 3 93
f 23 75 76
f 95 3 94
f 24 75 23
f 95 2 3
f 24 74 75
f 96 2 95
f 25 74 24
f 96 1 2
f 25 73 74
f 49 1 96
f 26 73 25
f 26 72 73
f 50 1 49
f 50 48 1
f 26 71 72
f 51 48 50
f 27 71 26
f 51 47 48
f 27 70 71
f 52 47 51
f 28 70 27
f 52 46 47
f 53 46 52
f 28 69 70
f 54 46 53
f 28 68 69
f 29 68 28
f 54 45 46
f 55 45 54
f 29 67 68
f 30 67 29
f 55 44 45
f 56 44 55
f 30 66 67
f 57 44 56
f 30 65 66
f 31 65 30
f 57 43 44
f 58 43 57
f 31 64 65
f 59 43 58
f 31 63 64
f 60 43 59
f 31 62 63
f 32 62 31
f 60 42 43
f 61 42 60
f 32 61 62
f 32 42 61
f 33 42 32
f 33 41 42
f 34 41 33
f 34 40 41
f 35 40 34
f 35 39 40
f 36 39 35
f 36 38 39
f 37 38 36
