# Blender v2.73 (sub 0) OBJ File: '2.blend'
# www.blender.org
mtllib 2.mtl
o B
v -0.000645 0.095498 -0.465494
v -0.000304 0.094098 -0.204498
v -0.000369 0.137769 -0.240366
v -0.000427 0.178122 -0.272530
v -0.000479 0.215524 -0.301098
v -0.000526 0.250346 -0.326180
v -0.000567 0.282955 -0.347885
v -0.000603 0.313720 -0.366322
v -0.000635 0.343009 -0.381600
v -0.000662 0.371192 -0.393829
v -0.000685 0.398637 -0.403117
v -0.000704 0.425712 -0.409574
v -0.000720 0.452787 -0.413308
v -0.000733 0.480230 -0.414429
v -0.000742 0.510880 -0.412521
v -0.000747 0.539720 -0.407244
v -0.000747 0.566585 -0.398763
v -0.000742 0.591308 -0.387241
v -0.000732 0.613724 -0.372842
v -0.000717 0.633667 -0.355731
v -0.000699 0.650972 -0.336071
v -0.000676 0.665472 -0.314027
v -0.000649 0.677002 -0.289763
v -0.000618 0.685395 -0.263442
v -0.000583 0.690487 -0.235230
v -0.000545 0.692111 -0.205290
v -0.000526 0.691599 -0.191621
v -0.000508 0.690206 -0.178096
v -0.000490 0.687925 -0.164687
v -0.000471 0.684748 -0.151366
v -0.000452 0.680668 -0.138105
v -0.000433 0.675680 -0.124877
v -0.000413 0.669774 -0.111654
v -0.000393 0.662945 -0.098408
v -0.000373 0.655185 -0.085111
v -0.000352 0.646487 -0.071737
v -0.000331 0.636844 -0.058256
v -0.000309 0.626248 -0.044641
v -0.000260 0.503250 -0.045301
v -0.000285 0.519838 -0.058860
v -0.000308 0.534516 -0.072235
v -0.000330 0.547372 -0.085440
v -0.000352 0.558499 -0.098487
v -0.000372 0.567986 -0.111390
v -0.000392 0.575924 -0.124162
v -0.000411 0.582403 -0.136817
v -0.000430 0.587513 -0.149369
v -0.000448 0.591345 -0.161830
v -0.000465 0.593989 -0.174214
v -0.000481 0.595536 -0.186535
v -0.000498 0.596075 -0.198805
v -0.000519 0.595077 -0.215187
v -0.000538 0.591973 -0.230758
v -0.000555 0.586872 -0.245402
v -0.000570 0.579879 -0.259004
v -0.000582 0.571102 -0.271449
v -0.000593 0.560649 -0.282621
v -0.000601 0.548625 -0.292406
v -0.000606 0.535139 -0.300689
v -0.000609 0.520297 -0.307354
v -0.000609 0.504205 -0.312285
v -0.000606 0.486972 -0.315369
v -0.000600 0.468704 -0.316490
v -0.000594 0.454906 -0.316231
v -0.000588 0.441911 -0.315300
v -0.000581 0.429564 -0.313700
v -0.000573 0.417714 -0.311430
v -0.000565 0.406207 -0.308492
v -0.000556 0.394891 -0.304886
v -0.000545 0.383613 -0.300613
v -0.000534 0.372221 -0.295674
v -0.000522 0.360561 -0.290070
v -0.000509 0.348481 -0.283801
v -0.000495 0.335828 -0.276869
v -0.000480 0.322449 -0.269274
v -0.000450 0.297129 -0.253995
v -0.000418 0.270961 -0.237064
v -0.000383 0.244146 -0.218740
v -0.000347 0.216887 -0.199284
v -0.000309 0.189387 -0.178953
v -0.000271 0.161850 -0.158009
v -0.000232 0.134477 -0.136709
v -0.000193 0.107472 -0.115314
v -0.000155 0.081037 -0.094082
v -0.000118 0.055375 -0.073273
v -0.000082 0.030689 -0.053147
v -0.000047 0.007182 -0.033962
v -0.000044 0.000182 -0.033999
v -0.000609 0.002500 -0.465993
usemtl None
s off
f 27 25 26
f 28 25 27
f 29 25 28
f 29 24 25
f 30 24 29
f 30 23 24
f 31 23 30
f 32 23 31
f 32 22 23
f 33 22 32
f 34 22 33
f 34 21 22
f 35 21 34
f 36 21 35
f 36 20 21
f 37 20 36
f 38 20 37
f 38 19 20
f 39 40 38
f 40 41 38
f 41 42 38
f 42 43 38
f 43 44 38
f 44 45 38
f 45 46 38
f 46 47 38
f 47 48 38
f 48 49 38
f 49 50 38
f 50 19 38
f 50 51 19
f 51 18 19
f 52 18 51
f 53 18 52
f 54 18 53
f 54 17 18
f 55 17 54
f 56 17 55
f 57 17 56
f 57 16 17
f 58 16 57
f 59 16 58
f 59 15 16
f 60 15 59
f 61 15 60
f 61 14 15
f 62 14 61
f 63 14 62
f 63 13 14
f 64 13 63
f 65 13 64
f 65 12 13
f 66 12 65
f 67 12 66
f 67 11 12
f 68 11 67
f 69 11 68
f 69 10 11
f 70 10 69
f 71 10 70
f 72 10 71
f 72 9 10
f 73 9 72
f 74 9 73
f 74 8 9
f 75 8 74
f 76 8 75
f 76 7 8
f 77 7 76
f 77 6 7
f 78 6 77
f 78 5 6
f 79 5 78
f 80 5 79
f 80 4 5
f 81 4 80
f 81 3 4
f 82 3 81
f 82 2 3
f 83 2 82
f 84 2 83
f 84 1 2
f 84 89 1
f 85 89 84
f 86 89 85
f 87 89 86
f 88 89 87
