# Blender v2.73 (sub 0) OBJ File: '(.blend'
# www.blender.org
mtllib (.mtl
o B
v -0.000309 0.232892 -0.165753
v -0.000328 0.277546 -0.166494
v -0.000349 0.321023 -0.169211
v -0.000372 0.363344 -0.173913
v -0.000397 0.404530 -0.180610
v -0.000425 0.444602 -0.189314
v -0.000454 0.483580 -0.200034
v -0.000486 0.521486 -0.212780
v -0.000520 0.558340 -0.227563
v -0.000556 0.594163 -0.244394
v -0.000595 0.628977 -0.263282
v -0.000636 0.662801 -0.284238
v -0.000679 0.695658 -0.307272
v -0.000610 0.695374 -0.254273
v -0.000560 0.664550 -0.225623
v -0.000512 0.631548 -0.198925
v -0.000466 0.596600 -0.174286
v -0.000422 0.559933 -0.151813
v -0.000380 0.521779 -0.131612
v -0.000341 0.482367 -0.113789
v -0.000305 0.441927 -0.098451
v -0.000272 0.400688 -0.085704
v -0.000242 0.358880 -0.075654
v -0.000216 0.316733 -0.068408
v -0.000193 0.274476 -0.064073
v -0.000175 0.232340 -0.062754
v -0.000160 0.190220 -0.064525
v -0.000150 0.148013 -0.069313
v -0.000143 0.105946 -0.077011
v -0.000140 0.064248 -0.087508
v -0.000141 0.023148 -0.100697
v -0.000145 -0.017126 -0.116468
v -0.000153 -0.056344 -0.134713
v -0.000165 -0.094279 -0.155323
v -0.000180 -0.130702 -0.178188
v -0.000199 -0.165385 -0.203200
v -0.000221 -0.198098 -0.230250
v -0.000247 -0.228613 -0.259230
v -0.000316 -0.228328 -0.312229
v -0.000298 -0.195721 -0.288844
v -0.000284 -0.162123 -0.267526
v -0.000273 -0.127514 -0.248266
v -0.000265 -0.091873 -0.231052
v -0.000259 -0.055180 -0.215874
v -0.000257 -0.017413 -0.202721
v -0.000258 0.021448 -0.191584
v -0.000263 0.061424 -0.182451
v -0.000270 0.102536 -0.175312
v -0.000280 0.144804 -0.170156
v -0.000293 0.188249 -0.166973
usemtl None
s off
f 15 13 14
f 15 12 13
f 16 12 15
f 16 11 12
f 17 11 16
f 17 10 11
f 18 10 17
f 18 9 10
f 19 9 18
f 19 8 9
f 20 8 19
f 20 7 8
f 20 6 7
f 21 6 20
f 21 5 6
f 22 5 21
f 22 4 5
f 23 4 22
f 23 3 4
f 24 3 23
f 24 2 3
f 25 2 24
f 25 1 2
f 26 1 25
f 27 1 26
f 27 50 1
f 28 50 27
f 28 49 50
f 29 49 28
f 29 48 49
f 30 48 29
f 30 47 48
f 31 47 30
f 31 46 47
f 32 46 31
f 32 45 46
f 33 45 32
f 33 44 45
f 33 43 44
f 34 43 33
f 34 42 43
f 35 42 34
f 35 41 42
f 36 41 35
f 36 40 41
f 37 40 36
f 37 39 40
f 38 39 37
