# Blender v2.73 (sub 0) OBJ File: 'doubleDot.blend'
# www.blender.org
mtllib doubleDot.mtl
o B
v -0.000322 0.458578 -0.106541
v -0.000312 0.457984 -0.098432
v -0.000301 0.456340 -0.090650
v -0.000290 0.453719 -0.083270
v -0.000280 0.450194 -0.076364
v -0.000270 0.445838 -0.070003
v -0.000260 0.440726 -0.064262
v -0.000251 0.434930 -0.059211
v -0.000243 0.428523 -0.054924
v -0.000236 0.421579 -0.051473
v -0.000229 0.414171 -0.048932
v -0.000224 0.406373 -0.047371
v -0.000220 0.398257 -0.046864
v -0.000218 0.390147 -0.047458
v -0.000217 0.382366 -0.049102
v -0.000217 0.374986 -0.051723
v -0.000219 0.368079 -0.055248
v -0.000222 0.361719 -0.059604
v -0.000227 0.355977 -0.064716
v -0.000232 0.350927 -0.070512
v -0.000239 0.346640 -0.076919
v -0.000247 0.343189 -0.083863
v -0.000255 0.340647 -0.091271
v -0.000265 0.339087 -0.099069
v -0.000275 0.338580 -0.107185
v -0.000286 0.339174 -0.115295
v -0.000297 0.340818 -0.123076
v -0.000307 0.343439 -0.130456
v -0.000318 0.346964 -0.137363
v -0.000328 0.351319 -0.143723
v -0.000337 0.356432 -0.149465
v -0.000346 0.362228 -0.154515
v -0.000355 0.368635 -0.158802
v -0.000362 0.375579 -0.162253
v -0.000368 0.382987 -0.164795
v -0.000373 0.390785 -0.166355
v -0.000377 0.398901 -0.166862
v -0.000380 0.407011 -0.166268
v -0.000381 0.414792 -0.164624
v -0.000380 0.422172 -0.162003
v -0.000378 0.429078 -0.158478
v -0.000375 0.435439 -0.154123
v -0.000371 0.441181 -0.149010
v -0.000365 0.446231 -0.143214
v -0.000359 0.450518 -0.136807
v -0.000351 0.453969 -0.129863
v -0.000342 0.456511 -0.122455
v -0.000333 0.458071 -0.114657
v -0.000186 0.111583 -0.108403
v -0.000175 0.110989 -0.100293
v -0.000164 0.109345 -0.092512
v -0.000154 0.106724 -0.085132
v -0.000143 0.103199 -0.078225
v -0.000133 0.098844 -0.071865
v -0.000124 0.093731 -0.066123
v -0.000115 0.087935 -0.061073
v -0.000107 0.081528 -0.056786
v -0.000099 0.074584 -0.053335
v -0.000093 0.067176 -0.050793
v -0.000088 0.059378 -0.049232
v -0.000084 0.051262 -0.048726
v -0.000082 0.043152 -0.049320
v -0.000081 0.035371 -0.050964
v -0.000081 0.027991 -0.053585
v -0.000083 0.021084 -0.057110
v -0.000086 0.014724 -0.061465
v -0.000090 0.008982 -0.066578
v -0.000096 0.003932 -0.072374
v -0.000103 -0.000355 -0.078781
v -0.000110 -0.003806 -0.085725
v -0.000119 -0.006348 -0.093133
v -0.000128 -0.007908 -0.100931
v -0.000139 -0.008415 -0.109047
v -0.000150 -0.007821 -0.117156
v -0.000160 -0.006177 -0.124938
v -0.000171 -0.003556 -0.132318
v -0.000182 -0.000031 -0.139224
v -0.000192 0.004324 -0.145585
v -0.000201 0.009437 -0.151326
v -0.000210 0.015233 -0.156377
v -0.000218 0.021640 -0.160664
v -0.000225 0.028584 -0.164114
v -0.000232 0.035992 -0.166656
v -0.000237 0.043790 -0.168217
v -0.000241 0.051906 -0.168724
v -0.000243 0.060016 -0.168130
v -0.000244 0.067797 -0.166486
v -0.000244 0.075177 -0.163865
v -0.000242 0.082083 -0.160340
v -0.000239 0.088444 -0.155984
v -0.000234 0.094186 -0.150872
v -0.000229 0.099236 -0.145076
v -0.000222 0.103523 -0.138669
v -0.000215 0.106974 -0.131725
v -0.000206 0.109516 -0.124317
v -0.000196 0.111076 -0.116519
usemtl None
s off
f 50 96 49
f 51 96 50
f 51 95 96
f 52 95 51
f 52 94 95
f 53 94 52
f 53 93 94
f 54 93 53
f 54 92 93
f 55 92 54
f 55 91 92
f 56 91 55
f 56 90 91
f 57 90 56
f 57 89 90
f 58 89 57
f 58 88 89
f 59 88 58
f 59 87 88
f 60 87 59
f 60 86 87
f 60 85 86
f 61 85 60
f 62 85 61
f 62 84 85
f 63 84 62
f 63 83 84
f 64 83 63
f 64 82 83
f 65 82 64
f 65 81 82
f 66 81 65
f 66 80 81
f 67 80 66
f 67 79 80
f 68 79 67
f 68 78 79
f 69 78 68
f 69 77 78
f 70 77 69
f 70 76 77
f 71 76 70
f 71 75 76
f 72 75 71
f 72 74 75
f 73 74 72
f 2 48 1
f 2 47 48
f 3 47 2
f 3 46 47
f 4 46 3
f 4 45 46
f 5 45 4
f 5 44 45
f 6 44 5
f 6 43 44
f 7 43 6
f 7 42 43
f 8 42 7
f 8 41 42
f 9 41 8
f 9 40 41
f 10 40 9
f 10 39 40
f 11 39 10
f 11 38 39
f 12 38 11
f 12 37 38
f 13 37 12
f 14 37 13
f 14 36 37
f 14 35 36
f 15 35 14
f 15 34 35
f 16 34 15
f 16 33 34
f 17 33 16
f 17 32 33
f 18 32 17
f 18 31 32
f 19 31 18
f 19 30 31
f 20 30 19
f 20 29 30
f 21 29 20
f 21 28 29
f 22 28 21
f 22 27 28
f 23 27 22
f 23 26 27
f 24 26 23
f 24 25 26
