# Blender v2.73 (sub 0) OBJ File: '3.blend'
# www.blender.org
mtllib 3.mtl
o B
v -0.000329 0.569426 -0.077946
v -0.000346 0.574470 -0.089368
v -0.000362 0.578986 -0.100238
v -0.000377 0.582992 -0.110624
v -0.000392 0.586507 -0.120596
v -0.000406 0.589548 -0.130223
v -0.000419 0.592132 -0.139575
v -0.000432 0.594278 -0.148721
v -0.000444 0.596003 -0.157731
v -0.000456 0.597325 -0.166673
v -0.000468 0.598261 -0.175617
v -0.000480 0.598829 -0.184633
v -0.000492 0.599048 -0.193789
v -0.000515 0.598338 -0.211240
v -0.000535 0.596049 -0.227546
v -0.000553 0.592232 -0.242639
v -0.000569 0.586940 -0.256447
v -0.000583 0.580223 -0.268903
v -0.000594 0.572135 -0.279935
v -0.000603 0.562726 -0.289474
v -0.000609 0.552048 -0.297450
v -0.000612 0.540153 -0.303794
v -0.000613 0.527093 -0.308436
v -0.000611 0.512919 -0.311306
v -0.000606 0.497683 -0.312334
v -0.000599 0.482705 -0.311477
v -0.000590 0.468802 -0.308739
v -0.000579 0.456013 -0.304120
v -0.000566 0.444381 -0.297620
v -0.000551 0.433947 -0.289239
v -0.000534 0.424753 -0.278975
v -0.000515 0.416840 -0.266830
v -0.000494 0.410251 -0.252803
v -0.000471 0.405027 -0.236893
v -0.000446 0.401209 -0.219101
v -0.000420 0.398839 -0.199426
v -0.000391 0.397960 -0.177868
v -0.000356 0.307961 -0.178350
v -0.000386 0.308173 -0.201599
v -0.000413 0.306144 -0.222856
v -0.000437 0.302022 -0.242117
v -0.000457 0.295951 -0.259379
v -0.000473 0.288078 -0.274636
v -0.000487 0.278548 -0.287885
v -0.000497 0.267508 -0.299120
v -0.000504 0.255102 -0.308339
v -0.000508 0.241477 -0.315537
v -0.000509 0.226779 -0.320709
v -0.000507 0.211153 -0.323851
v -0.000502 0.194746 -0.324960
v -0.000494 0.178732 -0.324161
v -0.000485 0.163737 -0.321631
v -0.000474 0.149830 -0.317435
v -0.000461 0.137081 -0.311639
v -0.000447 0.125560 -0.304309
v -0.000432 0.115337 -0.295510
v -0.000415 0.106481 -0.285308
v -0.000397 0.099063 -0.273769
v -0.000378 0.093151 -0.260957
v -0.000358 0.088817 -0.246939
v -0.000337 0.086129 -0.231780
v -0.000315 0.085157 -0.215546
v -0.000299 0.085445 -0.203043
v -0.000283 0.086445 -0.190530
v -0.000267 0.088159 -0.177998
v -0.000252 0.090592 -0.165442
v -0.000237 0.093748 -0.152854
v -0.000222 0.097629 -0.140228
v -0.000207 0.102238 -0.127556
v -0.000193 0.107580 -0.114832
v -0.000179 0.113658 -0.102048
v -0.000165 0.120476 -0.089197
v -0.000151 0.128035 -0.076274
v -0.000137 0.136341 -0.063269
v -0.000095 0.030343 -0.063838
v -0.000109 0.024390 -0.076119
v -0.000123 0.018905 -0.088391
v -0.000137 0.013899 -0.100646
v -0.000151 0.009383 -0.112877
v -0.000165 0.005367 -0.125078
v -0.000180 0.001861 -0.137242
v -0.000194 -0.001124 -0.149361
v -0.000209 -0.003579 -0.161429
v -0.000224 -0.005492 -0.173438
v -0.000239 -0.006853 -0.185382
v -0.000254 -0.007652 -0.197253
v -0.000269 -0.007879 -0.209045
v -0.000310 -0.005971 -0.239734
v -0.000350 -0.000698 -0.268683
v -0.000389 0.007774 -0.295712
v -0.000426 0.019276 -0.320642
v -0.000461 0.033641 -0.343292
v -0.000494 0.050700 -0.363483
v -0.000525 0.070288 -0.381036
v -0.000553 0.092235 -0.395770
v -0.000578 0.116375 -0.407506
v -0.000600 0.142539 -0.416065
v -0.000618 0.170561 -0.421267
v -0.000632 0.200272 -0.422931
v -0.000638 0.217759 -0.422208
v -0.000642 0.235105 -0.420207
v -0.000645 0.252131 -0.416903
v -0.000645 0.268660 -0.412268
v -0.000644 0.284515 -0.406276
v -0.000640 0.299519 -0.398899
v -0.000634 0.313495 -0.390111
v -0.000626 0.326265 -0.379885
v -0.000615 0.337652 -0.368194
v -0.000602 0.347479 -0.355011
v -0.000586 0.355568 -0.340310
v -0.000567 0.361743 -0.324064
v -0.000590 0.370524 -0.338753
v -0.000611 0.379754 -0.351940
v -0.000630 0.389519 -0.363665
v -0.000648 0.399901 -0.373971
v -0.000664 0.410983 -0.382898
v -0.000678 0.422851 -0.390487
v -0.000692 0.435586 -0.396780
v -0.000704 0.449273 -0.401818
v -0.000715 0.463995 -0.405641
v -0.000724 0.479836 -0.408293
v -0.000733 0.496879 -0.409812
v -0.000741 0.515208 -0.410242
v -0.000749 0.541389 -0.408476
v -0.000753 0.565858 -0.403553
v -0.000751 0.588505 -0.395598
v -0.000745 0.609221 -0.384737
v -0.000735 0.627893 -0.371095
v -0.000720 0.644412 -0.354798
v -0.000702 0.658668 -0.335971
v -0.000679 0.670550 -0.314740
v -0.000652 0.679947 -0.291231
v -0.000621 0.686749 -0.265570
v -0.000587 0.690846 -0.237880
v -0.000548 0.692127 -0.208290
v -0.000532 0.691871 -0.195783
v -0.000516 0.691236 -0.183729
v -0.000500 0.690214 -0.172081
v -0.000485 0.688798 -0.160789
v -0.000470 0.686981 -0.149804
v -0.000455 0.684756 -0.139078
v -0.000440 0.682115 -0.128564
v -0.000426 0.679051 -0.118211
v -0.000411 0.675558 -0.107971
v -0.000396 0.671627 -0.097796
v -0.000381 0.667252 -0.087638
v -0.000366 0.662425 -0.077447
usemtl None
s off
f 136 134 135
f 137 134 136
f 138 134 137
f 138 133 134
f 139 133 138
f 140 133 139
f 141 133 140
f 141 132 133
f 142 132 141
f 143 132 142
f 144 132 143
f 144 131 132
f 145 131 144
f 146 131 145
f 146 130 131
f 147 130 146
f 1 2 147
f 2 3 147
f 3 4 147
f 4 5 147
f 5 130 147
f 5 6 130
f 6 7 130
f 7 129 130
f 7 8 129
f 8 9 129
f 9 128 129
f 9 10 128
f 10 11 128
f 11 12 128
f 12 127 128
f 12 13 127
f 13 14 127
f 14 126 127
f 15 126 14
f 16 126 15
f 17 126 16
f 17 125 126
f 18 125 17
f 19 125 18
f 20 125 19
f 20 124 125
f 21 124 20
f 22 124 21
f 22 123 124
f 23 123 22
f 24 123 23
f 24 122 123
f 25 122 24
f 26 122 25
f 26 121 122
f 27 121 26
f 27 120 121
f 28 120 27
f 28 119 120
f 29 119 28
f 29 118 119
f 30 118 29
f 30 117 118
f 31 117 30
f 32 117 31
f 32 116 117
f 33 116 32
f 33 115 116
f 34 115 33
f 35 115 34
f 36 115 35
f 36 114 115
f 37 114 36
f 38 114 37
f 38 113 114
f 38 112 113
f 38 111 112
f 38 110 111
f 38 109 110
f 38 108 109
f 38 107 108
f 38 106 107
f 38 39 106
f 39 105 106
f 40 105 39
f 41 105 40
f 42 105 41
f 42 104 105
f 43 104 42
f 44 104 43
f 44 103 104
f 45 103 44
f 45 102 103
f 46 102 45
f 47 102 46
f 47 101 102
f 48 101 47
f 48 100 101
f 49 100 48
f 49 99 100
f 50 99 49
f 50 98 99
f 51 98 50
f 52 98 51
f 52 97 98
f 53 97 52
f 54 97 53
f 54 96 97
f 75 73 74
f 55 96 54
f 75 72 73
f 56 96 55
f 75 71 72
f 56 95 96
f 57 95 56
f 75 70 71
f 75 69 70
f 58 95 57
f 75 68 69
f 59 95 58
f 75 67 68
f 75 66 67
f 60 95 59
f 60 94 95
f 75 65 66
f 61 94 60
f 75 64 65
f 75 63 64
f 62 94 61
f 75 62 63
f 75 94 62
f 75 93 94
f 75 92 93
f 75 91 92
f 76 91 75
f 77 91 76
f 78 91 77
f 78 90 91
f 79 90 78
f 80 90 79
f 80 89 90
f 81 89 80
f 82 89 81
f 83 89 82
f 83 88 89
f 84 88 83
f 85 88 84
f 85 87 88
f 86 87 85
