# Blender v2.73 (sub 0) OBJ File: '5.blend'
# www.blender.org
mtllib 5.mtl
o B
v -0.000796 0.684157 -0.400335
v -0.000400 0.682532 -0.097340
v -0.000260 0.327537 -0.099244
v -0.000310 0.334594 -0.135420
v -0.000355 0.337564 -0.168978
v -0.000395 0.336749 -0.199821
v -0.000430 0.332449 -0.227849
v -0.000460 0.324967 -0.252964
v -0.000485 0.314605 -0.275066
v -0.000504 0.301663 -0.294057
v -0.000519 0.286444 -0.309838
v -0.000528 0.269248 -0.322310
v -0.000532 0.250378 -0.331374
v -0.000531 0.230135 -0.336932
v -0.000525 0.208821 -0.338884
v -0.000517 0.192319 -0.337669
v -0.000506 0.176419 -0.333961
v -0.000492 0.161277 -0.327936
v -0.000476 0.147051 -0.319771
v -0.000457 0.133897 -0.309642
v -0.000437 0.121974 -0.297725
v -0.000415 0.111437 -0.284196
v -0.000392 0.102446 -0.269232
v -0.000368 0.095155 -0.253009
v -0.000343 0.089724 -0.235702
v -0.000318 0.086308 -0.217490
v -0.000293 0.085066 -0.198546
v -0.000277 0.085353 -0.186045
v -0.000261 0.086344 -0.173544
v -0.000245 0.088037 -0.161046
v -0.000230 0.090428 -0.148554
v -0.000215 0.093513 -0.136073
v -0.000200 0.097289 -0.123605
v -0.000186 0.101753 -0.111154
v -0.000172 0.106901 -0.098724
v -0.000158 0.112730 -0.086318
v -0.000144 0.119236 -0.073940
v -0.000131 0.126416 -0.061593
v -0.000118 0.134266 -0.049280
v -0.000078 0.033268 -0.049822
v -0.000094 0.026217 -0.064374
v -0.000110 0.019894 -0.078505
v -0.000126 0.014277 -0.092300
v -0.000142 0.009346 -0.105840
v -0.000158 0.005080 -0.119210
v -0.000173 0.001461 -0.132494
v -0.000190 -0.001534 -0.145774
v -0.000206 -0.003924 -0.159134
v -0.000223 -0.005730 -0.172658
v -0.000240 -0.006972 -0.186429
v -0.000258 -0.007671 -0.200530
v -0.000277 -0.007847 -0.215045
v -0.000319 -0.005795 -0.246521
v -0.000360 -0.000120 -0.276315
v -0.000400 0.008976 -0.304222
v -0.000439 0.021289 -0.330038
v -0.000476 0.036618 -0.353561
v -0.000510 0.054760 -0.374586
v -0.000543 0.075513 -0.392910
v -0.000572 0.098673 -0.408328
v -0.000598 0.124039 -0.420637
v -0.000621 0.151409 -0.429633
v -0.000640 0.180578 -0.435113
v -0.000654 0.211346 -0.436872
v -0.000664 0.242187 -0.434768
v -0.000668 0.271531 -0.428873
v -0.000666 0.299113 -0.419307
v -0.000660 0.324665 -0.406190
v -0.000647 0.347921 -0.389640
v -0.000630 0.368614 -0.369778
v -0.000607 0.386477 -0.346722
v -0.000579 0.401244 -0.320593
v -0.000545 0.412648 -0.291509
v -0.000507 0.420422 -0.259591
v -0.000463 0.424299 -0.224957
v -0.000414 0.424013 -0.187728
v -0.000482 0.595011 -0.186811
v -0.000761 0.596159 -0.400807
usemtl None
s off
f 3 77 2
f 77 1 2
f 77 78 1
f 3 76 77
f 76 74 75
f 3 74 76
f 3 73 74
f 3 72 73
f 3 71 72
f 3 4 71
f 4 70 71
f 4 5 70
f 5 69 70
f 5 6 69
f 6 68 69
f 7 68 6
f 8 68 7
f 9 68 8
f 9 67 68
f 10 67 9
f 11 67 10
f 11 66 67
f 12 66 11
f 12 65 66
f 13 65 12
f 14 65 13
f 14 64 65
f 15 64 14
f 15 63 64
f 16 63 15
f 17 63 16
f 17 62 63
f 18 62 17
f 19 62 18
f 19 61 62
f 20 61 19
f 40 38 39
f 21 61 20
f 40 37 38
f 21 60 61
f 22 60 21
f 40 36 37
f 40 35 36
f 23 60 22
f 40 34 35
f 40 33 34
f 24 60 23
f 40 32 33
f 24 59 60
f 25 59 24
f 40 31 32
f 40 30 31
f 26 59 25
f 40 29 30
f 40 28 29
f 27 59 26
f 40 27 28
f 40 59 27
f 40 58 59
f 40 57 58
f 40 56 57
f 41 56 40
f 42 56 41
f 42 55 56
f 43 55 42
f 44 55 43
f 45 55 44
f 45 54 55
f 46 54 45
f 47 54 46
f 47 53 54
f 48 53 47
f 49 53 48
f 50 53 49
f 50 52 53
f 51 52 50
