# Blender v2.73 (sub 0) OBJ File: '9.blend'
# www.blender.org
mtllib 9.mtl
o B
v -0.000241 -0.007997 -0.187045
v -0.000302 0.018522 -0.225906
v -0.000362 0.048386 -0.262596
v -0.000420 0.081203 -0.296881
v -0.000475 0.116579 -0.328527
v -0.000528 0.154120 -0.357301
v -0.000577 0.193432 -0.382968
v -0.000622 0.234122 -0.405294
v -0.000663 0.275797 -0.424045
v -0.000700 0.318062 -0.438987
v -0.000731 0.360525 -0.449887
v -0.000756 0.402791 -0.456510
v -0.000776 0.444466 -0.458622
v -0.000787 0.479395 -0.456571
v -0.000793 0.512523 -0.450933
v -0.000794 0.543613 -0.441902
v -0.000789 0.572424 -0.429676
v -0.000780 0.598720 -0.414449
v -0.000766 0.622260 -0.396417
v -0.000747 0.642808 -0.375777
v -0.000724 0.660124 -0.352723
v -0.000697 0.673969 -0.327451
v -0.000665 0.684106 -0.300158
v -0.000630 0.690295 -0.271039
v -0.000590 0.692299 -0.240289
v -0.000550 0.690089 -0.209739
v -0.000510 0.684033 -0.181176
v -0.000472 0.674480 -0.154728
v -0.000435 0.661784 -0.130526
v -0.000400 0.646294 -0.108700
v -0.000368 0.628363 -0.089380
v -0.000338 0.608343 -0.072697
v -0.000311 0.586583 -0.058780
v -0.000288 0.563436 -0.047759
v -0.000268 0.539253 -0.039765
v -0.000251 0.514386 -0.034927
v -0.000239 0.489186 -0.033376
v -0.000231 0.461963 -0.035257
v -0.000227 0.435941 -0.040458
v -0.000228 0.411346 -0.048763
v -0.000234 0.388401 -0.059954
v -0.000243 0.367332 -0.073816
v -0.000257 0.348363 -0.090132
v -0.000274 0.331719 -0.108686
v -0.000296 0.317624 -0.129261
v -0.000320 0.306302 -0.151640
v -0.000348 0.297979 -0.175608
v -0.000379 0.292878 -0.200947
v -0.000413 0.291224 -0.227441
v -0.000425 0.291500 -0.236515
v -0.000437 0.292220 -0.245704
v -0.000450 0.293372 -0.254961
v -0.000463 0.294940 -0.264236
v -0.000475 0.296911 -0.273482
v -0.000488 0.299270 -0.282648
v -0.000501 0.302004 -0.291688
v -0.000514 0.305098 -0.300553
v -0.000527 0.308538 -0.309193
v -0.000539 0.312310 -0.317560
v -0.000551 0.316399 -0.325607
v -0.000563 0.320792 -0.333284
v -0.000547 0.299090 -0.327512
v -0.000528 0.277102 -0.319499
v -0.000505 0.254928 -0.309293
v -0.000480 0.232670 -0.296941
v -0.000453 0.210429 -0.282492
v -0.000422 0.188304 -0.265993
v -0.000389 0.166399 -0.247494
v -0.000354 0.144813 -0.227041
v -0.000316 0.123647 -0.204683
v -0.000277 0.103002 -0.180468
v -0.000235 0.082980 -0.154445
v -0.000191 0.063680 -0.126660
v -0.000368 0.490712 -0.131369
v -0.000375 0.506076 -0.132249
v -0.000384 0.520607 -0.134991
v -0.000396 0.534209 -0.139495
v -0.000409 0.546789 -0.145661
v -0.000423 0.558253 -0.153389
v -0.000439 0.568505 -0.162577
v -0.000457 0.577453 -0.173127
v -0.000475 0.585000 -0.184938
v -0.000494 0.591054 -0.197910
v -0.000515 0.595520 -0.211942
v -0.000535 0.598304 -0.226935
v -0.000556 0.599311 -0.242788
v -0.000576 0.598234 -0.258272
v -0.000594 0.594946 -0.273132
v -0.000610 0.589612 -0.287231
v -0.000625 0.582398 -0.300435
v -0.000637 0.573470 -0.312607
v -0.000647 0.562994 -0.323609
v -0.000655 0.551136 -0.333307
v -0.000661 0.538062 -0.341563
v -0.000664 0.523938 -0.348241
v -0.000664 0.508930 -0.353205
v -0.000662 0.493203 -0.356319
v -0.000657 0.476924 -0.357446
v -0.000655 0.472729 -0.357466
v -0.000654 0.468614 -0.357468
v -0.000652 0.464533 -0.357435
v -0.000650 0.460442 -0.357350
v -0.000648 0.456295 -0.357195
v -0.000646 0.452046 -0.356955
v -0.000644 0.447651 -0.356611
v -0.000642 0.443065 -0.356146
v -0.000639 0.438242 -0.355544
v -0.000636 0.433136 -0.354788
v -0.000633 0.427703 -0.353859
v -0.000629 0.421898 -0.352741
v -0.000614 0.415659 -0.343490
v -0.000600 0.410030 -0.334194
v -0.000586 0.404999 -0.324894
v -0.000572 0.400551 -0.315633
v -0.000558 0.396673 -0.306453
v -0.000545 0.393351 -0.297394
v -0.000532 0.390572 -0.288499
v -0.000520 0.388321 -0.279809
v -0.000509 0.386586 -0.271367
v -0.000497 0.385353 -0.263214
v -0.000487 0.384607 -0.255392
v -0.000477 0.384335 -0.247942
v -0.000457 0.385230 -0.232210
v -0.000438 0.387999 -0.217107
v -0.000421 0.392515 -0.202772
v -0.000406 0.398651 -0.189345
v -0.000393 0.406279 -0.176966
v -0.000382 0.415270 -0.165774
v -0.000373 0.425498 -0.155909
v -0.000367 0.436835 -0.147510
v -0.000363 0.449152 -0.140717
v -0.000362 0.462322 -0.135670
v -0.000363 0.476218 -0.132507
usemtl None
s off
f 26 24 25
f 27 24 26
f 27 23 24
f 28 23 27
f 28 22 23
f 29 22 28
f 29 21 22
f 30 21 29
f 30 20 21
f 31 20 30
f 31 19 20
f 32 19 31
f 32 18 19
f 33 85 32
f 85 86 32
f 86 18 32
f 87 18 86
f 33 84 85
f 88 18 87
f 88 17 18
f 33 83 84
f 89 17 88
f 33 82 83
f 90 17 89
f 34 82 33
f 34 81 82
f 91 17 90
f 34 80 81
f 92 17 91
f 92 16 17
f 34 79 80
f 35 79 34
f 93 16 92
f 35 78 79
f 94 16 93
f 35 77 78
f 94 15 16
f 36 77 35
f 95 15 94
f 36 76 77
f 96 15 95
f 36 75 76
f 37 75 36
f 96 14 15
f 97 14 96
f 37 74 75
f 98 14 97
f 37 133 74
f 38 133 37
f 98 13 14
f 38 132 133
f 99 13 98
f 100 13 99
f 101 13 100
f 102 13 101
f 39 132 38
f 39 131 132
f 103 13 102
f 104 13 103
f 105 13 104
f 39 130 131
f 106 13 105
f 106 12 13
f 107 12 106
f 108 12 107
f 39 129 130
f 40 129 39
f 109 12 108
f 110 12 109
f 40 128 129
f 111 12 110
f 40 127 128
f 112 12 111
f 41 127 40
f 113 12 112
f 41 126 127
f 114 12 113
f 114 11 12
f 115 11 114
f 41 125 126
f 116 11 115
f 117 11 116
f 41 124 125
f 118 11 117
f 42 124 41
f 42 123 124
f 119 11 118
f 120 11 119
f 42 122 123
f 121 11 120
f 122 11 121
f 42 11 122
f 43 11 42
f 43 10 11
f 44 10 43
f 45 61 44
f 61 10 44
f 45 60 61
f 62 10 61
f 46 60 45
f 62 9 10
f 46 59 60
f 46 58 59
f 46 57 58
f 47 57 46
f 47 56 57
f 47 55 56
f 47 54 55
f 63 9 62
f 48 54 47
f 48 53 54
f 48 52 53
f 48 51 52
f 49 51 48
f 49 50 51
f 64 9 63
f 64 8 9
f 65 8 64
f 65 7 8
f 66 7 65
f 67 7 66
f 67 6 7
f 68 6 67
f 69 6 68
f 69 5 6
f 70 5 69
f 71 5 70
f 71 4 5
f 72 4 71
f 73 4 72
f 73 3 4
f 1 3 73
f 1 2 3
