# Blender v2.73 (sub 0) OBJ File: ').blend'
# www.blender.org
mtllib ).mtl
o B
v -0.000295 0.232833 -0.154753
v -0.000276 0.188180 -0.154012
v -0.000255 0.144703 -0.151295
v -0.000232 0.102382 -0.146593
v -0.000207 0.061196 -0.139896
v -0.000180 0.021124 -0.131192
v -0.000150 -0.017854 -0.120472
v -0.000118 -0.055760 -0.107726
v -0.000084 -0.092614 -0.092943
v -0.000048 -0.128437 -0.076112
v -0.000009 -0.163251 -0.057224
v 0.000032 -0.197076 -0.036268
v 0.000075 -0.229932 -0.013234
v 0.000005 -0.229648 -0.066233
v -0.000044 -0.198824 -0.094883
v -0.000092 -0.165822 -0.121581
v -0.000138 -0.130874 -0.146220
v -0.000182 -0.094208 -0.168693
v -0.000224 -0.056054 -0.188894
v -0.000263 -0.016641 -0.206717
v -0.000299 0.023799 -0.222055
v -0.000332 0.065038 -0.234802
v -0.000362 0.106846 -0.244852
v -0.000388 0.148993 -0.252098
v -0.000411 0.191250 -0.256433
v -0.000429 0.233386 -0.257751
v -0.000444 0.275506 -0.255981
v -0.000455 0.317713 -0.251193
v -0.000461 0.359780 -0.243495
v -0.000464 0.401478 -0.232998
v -0.000464 0.442578 -0.219809
v -0.000459 0.482851 -0.204037
v -0.000451 0.522070 -0.185793
v -0.000439 0.560005 -0.165183
v -0.000424 0.596428 -0.142318
v -0.000405 0.631110 -0.117306
v -0.000383 0.663823 -0.090255
v -0.000358 0.694339 -0.061276
v -0.000288 0.694054 -0.008277
v -0.000306 0.661447 -0.031662
v -0.000320 0.627849 -0.052980
v -0.000331 0.593240 -0.072240
v -0.000340 0.557599 -0.089454
v -0.000345 0.520906 -0.104632
v -0.000347 0.483139 -0.117785
v -0.000346 0.444278 -0.128922
v -0.000342 0.404302 -0.138055
v -0.000335 0.363190 -0.145194
v -0.000324 0.320922 -0.150350
v -0.000311 0.277477 -0.153533
usemtl None
s off
f 40 38 39
f 40 37 38
f 40 36 37
f 41 36 40
f 41 35 36
f 42 35 41
f 42 34 35
f 43 34 42
f 43 33 34
f 44 33 43
f 44 32 33
f 45 32 44
f 46 32 45
f 46 31 32
f 47 31 46
f 47 30 31
f 48 30 47
f 48 29 30
f 49 29 48
f 49 28 29
f 50 28 49
f 50 27 28
f 1 27 50
f 1 26 27
f 2 26 1
f 2 25 26
f 2 24 25
f 3 24 2
f 3 23 24
f 4 23 3
f 4 22 23
f 5 22 4
f 5 21 22
f 6 21 5
f 6 20 21
f 7 20 6
f 7 19 20
f 8 19 7
f 9 19 8
f 9 18 19
f 10 18 9
f 10 17 18
f 11 17 10
f 11 16 17
f 12 16 11
f 12 15 16
f 13 15 12
f 13 14 15
