# Blender 4.2.3 LTS
# www.blender.org
mtllib equals.mtl
o equals
v 0.000000 0.285000 -0.056000
v 0.000000 0.203000 -0.056000
v -0.000000 0.203000 -0.528000
v -0.000000 0.285000 -0.528000
v 0.000000 0.503000 -0.056000
v 0.000000 0.421000 -0.056000
v -0.000000 0.421000 -0.528000
v -0.000000 0.503000 -0.528000
vn 1.0000 -0.0000 -0.0000
vt 0.714286 0.000000
vt 1.000000 0.000000
vt 0.571429 0.000000
vt 0.857143 0.000000
vt 0.142857 0.000000
vt 0.428571 0.000000
vt 0.000000 0.000000
vt 0.285714 0.000000
s 0
usemtl None
f 6/1/1 8/2/1 5/3/1
f 6/1/1 7/4/1 8/2/1
f 2/5/1 4/6/1 1/7/1
f 2/5/1 3/8/1 4/6/1
