# Blender v2.73 (sub 0) OBJ File: 'b.blend'
# www.blender.org
mtllib b.mtl
o B
v -0.000461 0.682784 -0.144339
v -0.000345 0.682307 -0.055340
v -0.000087 0.025316 -0.058865
v -0.000100 0.020297 -0.070294
v -0.000114 0.015632 -0.082468
v -0.000129 0.011339 -0.095300
v -0.000145 0.007435 -0.108702
v -0.000161 0.003936 -0.122589
v -0.000179 0.000859 -0.136872
v -0.000197 -0.001778 -0.151466
v -0.000215 -0.003960 -0.166283
v -0.000234 -0.005669 -0.181236
v -0.000253 -0.006887 -0.196239
v -0.000272 -0.007599 -0.211204
v -0.000292 -0.007788 -0.226045
v -0.000340 -0.005715 -0.262267
v -0.000386 0.000031 -0.295865
v -0.000430 0.009347 -0.326736
v -0.000472 0.022126 -0.354775
v -0.000511 0.038264 -0.379880
v -0.000547 0.057657 -0.401946
v -0.000581 0.080200 -0.420871
v -0.000612 0.105788 -0.436550
v -0.000639 0.134316 -0.448879
v -0.000663 0.165680 -0.457756
v -0.000684 0.199775 -0.463077
v -0.000701 0.236496 -0.464738
v -0.000711 0.267993 -0.462890
v -0.000716 0.297844 -0.457816
v -0.000717 0.325839 -0.449696
v -0.000713 0.351766 -0.438711
v -0.000704 0.375414 -0.425045
v -0.000692 0.396574 -0.408878
v -0.000675 0.415033 -0.390392
v -0.000654 0.430582 -0.369769
v -0.000630 0.443009 -0.347191
v -0.000602 0.452104 -0.322838
v -0.000570 0.457655 -0.296894
v -0.000535 0.459452 -0.269539
v -0.000521 0.459121 -0.258392
v -0.000506 0.458241 -0.247443
v -0.000491 0.456807 -0.236678
v -0.000477 0.454812 -0.226082
v -0.000462 0.452248 -0.215642
v -0.000447 0.449108 -0.205343
v -0.000433 0.445385 -0.195174
v -0.000418 0.441073 -0.185118
v -0.000403 0.436165 -0.175163
v -0.000388 0.430652 -0.165294
v -0.000373 0.424529 -0.155498
v -0.000357 0.417788 -0.145761
v -0.000324 0.332789 -0.146217
v -0.000339 0.340886 -0.155456
v -0.000354 0.348099 -0.164315
v -0.000367 0.354464 -0.172866
v -0.000380 0.360014 -0.181182
v -0.000393 0.364786 -0.189336
v -0.000405 0.368814 -0.197399
v -0.000417 0.372134 -0.205446
v -0.000428 0.374781 -0.213548
v -0.000440 0.376789 -0.221779
v -0.000451 0.378194 -0.230210
v -0.000463 0.379031 -0.238916
v -0.000475 0.379336 -0.247968
v -0.000498 0.378158 -0.266190
v -0.000519 0.374493 -0.283296
v -0.000538 0.368438 -0.299199
v -0.000553 0.360096 -0.313813
v -0.000566 0.349565 -0.327050
v -0.000577 0.336947 -0.338822
v -0.000584 0.322342 -0.349042
v -0.000589 0.305849 -0.357623
v -0.000590 0.287569 -0.364478
v -0.000589 0.267602 -0.369519
v -0.000584 0.246048 -0.372658
v -0.000577 0.223008 -0.373809
v -0.000567 0.202274 -0.372752
v -0.000555 0.182656 -0.369433
v -0.000540 0.164283 -0.363967
v -0.000524 0.147285 -0.356474
v -0.000505 0.131790 -0.347070
v -0.000485 0.117928 -0.335872
v -0.000464 0.105828 -0.322998
v -0.000441 0.095620 -0.308565
v -0.000417 0.087431 -0.292691
v -0.000392 0.081391 -0.275493
v -0.000366 0.077630 -0.257088
v -0.000340 0.076276 -0.237594
v -0.000332 0.076362 -0.230857
v -0.000322 0.076683 -0.223703
v -0.000313 0.077223 -0.216214
v -0.000303 0.077971 -0.208473
v -0.000293 0.078913 -0.200565
v -0.000283 0.080034 -0.192573
v -0.000273 0.081322 -0.184580
v -0.000264 0.082764 -0.176670
v -0.000254 0.084345 -0.168925
v -0.000245 0.086052 -0.161429
v -0.000236 0.087873 -0.154267
v -0.000228 0.089793 -0.147520
usemtl None
s off
f 3 1 2
f 3 51 1
f 40 38 39
f 41 38 40
f 42 38 41
f 42 37 38
f 43 37 42
f 44 37 43
f 45 37 44
f 45 36 37
f 46 36 45
f 47 36 46
f 47 35 36
f 48 35 47
f 49 35 48
f 50 35 49
f 50 34 35
f 51 34 50
f 3 52 51
f 52 53 51
f 53 54 51
f 54 55 51
f 55 56 51
f 56 57 51
f 57 58 51
f 58 59 51
f 59 60 51
f 60 61 51
f 61 34 51
f 61 62 34
f 62 33 34
f 62 63 33
f 63 64 33
f 64 32 33
f 65 32 64
f 66 32 65
f 66 31 32
f 67 31 66
f 68 31 67
f 69 31 68
f 69 30 31
f 70 30 69
f 71 30 70
f 3 100 52
f 71 29 30
f 72 29 71
f 73 29 72
f 73 28 29
f 74 28 73
f 75 28 74
f 75 27 28
f 76 27 75
f 76 26 27
f 77 26 76
f 78 26 77
f 78 25 26
f 79 25 78
f 79 24 25
f 80 24 79
f 81 24 80
f 81 23 24
f 82 23 81
f 83 23 82
f 84 23 83
f 84 22 23
f 85 22 84
f 3 99 100
f 3 98 99
f 86 22 85
f 3 97 98
f 3 96 97
f 3 95 96
f 3 94 95
f 87 22 86
f 3 93 94
f 87 21 22
f 3 92 93
f 3 91 92
f 88 21 87
f 3 90 91
f 3 89 90
f 3 88 89
f 3 21 88
f 3 20 21
f 3 19 20
f 4 19 3
f 4 18 19
f 5 18 4
f 6 18 5
f 7 18 6
f 7 17 18
f 8 17 7
f 9 17 8
f 10 17 9
f 10 16 17
f 11 16 10
f 12 16 11
f 13 16 12
f 13 15 16
f 14 15 13
