# Blender v2.73 (sub 0) OBJ File: 'b.blend'
# www.blender.org
mtllib e.mtl
o B
v -0.000623 0.132348 -0.437296
v -0.000603 0.124073 -0.424359
v -0.000583 0.116403 -0.411446
v -0.000564 0.109358 -0.398544
v -0.000544 0.102959 -0.385638
v -0.000525 0.097226 -0.372715
v -0.000506 0.092181 -0.359760
v -0.000487 0.087844 -0.346760
v -0.000469 0.084236 -0.333701
v -0.000451 0.081377 -0.320568
v -0.000433 0.079289 -0.307347
v -0.000415 0.077991 -0.294025
v -0.000397 0.077506 -0.280588
v -0.000370 0.078351 -0.259814
v -0.000346 0.081111 -0.240494
v -0.000325 0.085774 -0.222637
v -0.000306 0.092330 -0.206248
v -0.000290 0.100769 -0.191336
v -0.000276 0.111081 -0.177907
v -0.000266 0.123255 -0.165967
v -0.000258 0.137281 -0.155525
v -0.000252 0.153148 -0.146587
v -0.000250 0.170846 -0.139159
v -0.000250 0.190365 -0.133250
v -0.000253 0.211694 -0.128866
v -0.000666 0.213389 -0.444861
v -0.000679 0.253112 -0.443084
v -0.000687 0.289290 -0.438273
v -0.000690 0.321939 -0.430544
v -0.000688 0.351073 -0.420011
v -0.000681 0.376706 -0.406788
v -0.000669 0.398853 -0.390991
v -0.000653 0.417529 -0.372732
v -0.000632 0.432747 -0.352128
v -0.000607 0.444523 -0.329292
v -0.000578 0.452870 -0.304339
v -0.000545 0.457805 -0.277383
v -0.000508 0.459340 -0.248539
v -0.000468 0.457289 -0.218369
v -0.000428 0.451581 -0.189969
v -0.000390 0.442383 -0.163504
v -0.000353 0.429864 -0.139140
v -0.000318 0.414189 -0.117044
v -0.000285 0.395528 -0.097379
v -0.000254 0.374047 -0.080314
v -0.000226 0.349915 -0.066013
v -0.000201 0.323298 -0.054641
v -0.000178 0.294364 -0.046366
v -0.000159 0.263281 -0.041352
v -0.000144 0.230217 -0.039766
v -0.000134 0.199475 -0.041546
v -0.000128 0.169493 -0.046517
v -0.000127 0.140639 -0.054621
v -0.000131 0.113281 -0.065801
v -0.000139 0.087786 -0.079998
v -0.000153 0.064522 -0.097155
v -0.000170 0.043857 -0.117215
v -0.000193 0.026159 -0.140121
v -0.000221 0.011796 -0.165814
v -0.000254 0.001135 -0.194237
v -0.000292 -0.005457 -0.225333
v -0.000335 -0.007611 -0.259044
v -0.000359 -0.007156 -0.277498
v -0.000382 -0.005992 -0.294934
v -0.000405 -0.004111 -0.311464
v -0.000426 -0.001504 -0.327198
v -0.000447 0.001835 -0.342247
v -0.000468 0.005914 -0.356723
v -0.000488 0.010740 -0.370737
v -0.000508 0.016321 -0.384399
v -0.000528 0.022666 -0.397821
v -0.000548 0.029780 -0.411114
v -0.000569 0.037672 -0.424389
v -0.000589 0.046349 -0.437757
v -0.000279 0.270704 -0.130550
v -0.000290 0.287822 -0.134061
v -0.000302 0.303624 -0.138780
v -0.000316 0.318078 -0.144702
v -0.000330 0.331152 -0.151818
v -0.000346 0.342817 -0.160123
v -0.000362 0.353040 -0.169608
v -0.000380 0.361790 -0.180269
v -0.000398 0.369036 -0.192097
v -0.000417 0.374746 -0.205086
v -0.000437 0.378890 -0.219230
v -0.000458 0.381435 -0.234521
v -0.000480 0.382352 -0.250952
v -0.000500 0.381548 -0.266200
v -0.000517 0.379010 -0.280415
v -0.000533 0.374799 -0.293556
v -0.000546 0.368978 -0.305580
v -0.000557 0.361609 -0.316446
v -0.000566 0.352754 -0.326112
v -0.000573 0.342476 -0.334535
v -0.000578 0.330837 -0.341674
v -0.000580 0.317900 -0.347487
v -0.000580 0.303725 -0.351931
v -0.000578 0.288377 -0.354965
v -0.000574 0.271916 -0.356546
usemtl None
s off
f 39 37 38
f 39 36 37
f 40 36 39
f 40 35 36
f 41 35 40
f 41 34 35
f 42 34 41
f 42 33 34
f 43 33 42
f 43 32 33
f 44 32 43
f 44 31 32
f 45 87 44
f 87 31 44
f 45 86 87
f 88 31 87
f 45 85 86
f 89 31 88
f 45 84 85
f 90 31 89
f 90 30 31
f 45 83 84
f 46 83 45
f 91 30 90
f 46 82 83
f 92 30 91
f 46 81 82
f 93 30 92
f 46 80 81
f 94 30 93
f 47 80 46
f 94 29 30
f 47 79 80
f 95 29 94
f 47 78 79
f 96 29 95
f 48 78 47
f 96 28 29
f 48 77 78
f 97 28 96
f 48 76 77
f 98 28 97
f 49 76 48
f 49 75 76
f 98 27 28
f 99 27 98
f 49 99 75
f 49 27 99
f 50 27 49
f 50 26 27
f 51 25 50
f 25 26 50
f 51 24 25
f 52 24 51
f 52 23 24
f 52 22 23
f 53 22 52
f 53 21 22
f 54 21 53
f 54 20 21
f 2 74 1
f 54 19 20
f 3 74 2
f 4 74 3
f 55 19 54
f 55 18 19
f 5 74 4
f 6 74 5
f 55 17 18
f 7 74 6
f 55 16 17
f 8 74 7
f 56 16 55
f 9 74 8
f 56 15 16
f 10 74 9
f 56 14 15
f 11 74 10
f 12 74 11
f 56 13 14
f 13 74 12
f 56 74 13
f 57 74 56
f 57 73 74
f 58 73 57
f 58 72 73
f 58 71 72
f 59 71 58
f 59 70 71
f 59 69 70
f 60 69 59
f 60 68 69
f 60 67 68
f 61 67 60
f 61 66 67
f 61 65 66
f 61 64 65
f 62 64 61
f 62 63 64
