# Blender v2.73 (sub 0) OBJ File: 'b.blend'
# www.blender.org
mtllib q.mtl
o B
v -0.000372 -0.228098 -0.355228
v -0.000488 -0.227620 -0.444227
v -0.000755 0.451370 -0.440585
v -0.000541 0.450490 -0.276587
v -0.000477 0.447120 -0.228339
v -0.000419 0.438119 -0.186777
v -0.000367 0.424318 -0.151429
v -0.000321 0.406548 -0.121821
v -0.000281 0.385640 -0.097479
v -0.000247 0.362423 -0.077932
v -0.000217 0.337730 -0.062705
v -0.000192 0.312391 -0.051325
v -0.000171 0.287237 -0.043319
v -0.000155 0.263098 -0.038214
v -0.000143 0.240805 -0.035537
v -0.000134 0.221190 -0.034814
v -0.000123 0.188316 -0.036936
v -0.000119 0.157320 -0.042809
v -0.000119 0.128391 -0.052234
v -0.000125 0.101721 -0.065011
v -0.000137 0.077497 -0.080941
v -0.000153 0.055911 -0.099826
v -0.000173 0.037153 -0.121467
v -0.000199 0.021411 -0.145665
v -0.000228 0.008877 -0.172220
v -0.000262 -0.000260 -0.200935
v -0.000300 -0.005810 -0.231609
v -0.000341 -0.007584 -0.264044
v -0.000350 -0.007426 -0.270436
v -0.000359 -0.007023 -0.277097
v -0.000368 -0.006383 -0.284007
v -0.000378 -0.005512 -0.291145
v -0.000388 -0.004419 -0.298490
v -0.000398 -0.003109 -0.306021
v -0.000409 -0.001589 -0.313718
v -0.000419 0.000132 -0.321559
v -0.000431 0.002049 -0.329525
v -0.000442 0.004154 -0.337593
v -0.000453 0.006439 -0.345744
v -0.000465 0.008899 -0.353957
v -0.000607 0.370894 -0.352015
v -0.000496 0.087898 -0.353533
v -0.000486 0.084737 -0.346760
v -0.000476 0.081829 -0.339913
v -0.000466 0.079178 -0.333002
v -0.000456 0.076787 -0.326037
v -0.000446 0.074660 -0.319029
v -0.000436 0.072800 -0.311989
v -0.000426 0.071210 -0.304926
v -0.000416 0.069895 -0.297851
v -0.000407 0.068858 -0.290775
v -0.000397 0.068102 -0.283708
v -0.000388 0.067630 -0.276660
v -0.000379 0.067447 -0.269642
v -0.000353 0.068747 -0.249385
v -0.000329 0.072750 -0.230201
v -0.000308 0.079280 -0.212218
v -0.000290 0.088161 -0.195567
v -0.000275 0.099217 -0.180376
v -0.000262 0.112271 -0.166775
v -0.000253 0.127147 -0.154893
v -0.000246 0.143668 -0.144861
v -0.000243 0.161658 -0.136806
v -0.000243 0.180941 -0.130860
v -0.000246 0.201339 -0.127150
v -0.000253 0.222678 -0.125807
v -0.000265 0.247005 -0.127193
v -0.000279 0.269015 -0.131443
v -0.000296 0.288746 -0.138281
v -0.000315 0.306240 -0.147433
v -0.000335 0.321536 -0.158625
v -0.000358 0.334675 -0.171582
v -0.000381 0.345697 -0.186029
v -0.000405 0.354642 -0.201693
v -0.000429 0.361551 -0.218298
v -0.000454 0.366463 -0.235570
v -0.000478 0.369419 -0.253234
v -0.000502 0.370459 -0.271016
usemtl None
s off
f 5 3 4
f 5 41 3
f 41 2 3
f 6 41 5
f 7 41 6
f 8 41 7
f 9 41 8
f 10 78 9
f 78 41 9
f 10 77 78
f 42 2 41
f 10 76 77
f 10 75 76
f 11 75 10
f 11 74 75
f 11 73 74
f 11 72 73
f 12 72 11
f 12 71 72
f 12 70 71
f 13 70 12
f 13 69 70
f 13 68 69
f 14 68 13
f 14 67 68
f 15 67 14
f 15 66 67
f 16 66 15
f 16 65 66
f 17 65 16
f 17 64 65
f 18 64 17
f 18 63 64
f 18 62 63
f 19 62 18
f 19 61 62
f 20 61 19
f 20 60 61
f 20 59 60
f 21 59 20
f 21 58 59
f 21 57 58
f 43 2 42
f 44 2 43
f 45 2 44
f 21 56 57
f 46 40 45
f 40 2 45
f 22 56 21
f 47 40 46
f 48 40 47
f 22 55 56
f 49 40 48
f 50 40 49
f 51 40 50
f 22 54 55
f 52 40 51
f 53 40 52
f 54 40 53
f 22 40 54
f 23 40 22
f 24 40 23
f 25 40 24
f 26 40 25
f 26 39 40
f 1 2 40
f 26 38 39
f 26 37 38
f 26 36 37
f 27 36 26
f 27 35 36
f 27 34 35
f 27 33 34
f 27 32 33
f 28 32 27
f 28 31 32
f 28 30 31
f 28 29 30
