# Blender v2.73 (sub 0) OBJ File: 'b.blend'
# www.blender.org
mtllib w.mtl
o B
v -0.000690 0.451102 -0.390585
v -0.000604 0.450748 -0.324586
v -0.000348 0.178140 -0.212047
v -0.000301 0.449503 -0.092590
v -0.000176 0.448994 0.002409
v -0.000258 -0.007927 -0.200045
v -0.000294 -0.007777 -0.228045
v -0.000590 0.306927 -0.358358
v -0.000640 -0.006355 -0.493041
v -0.000677 -0.006205 -0.521040
v -0.001116 0.452850 -0.716580
v -0.000992 0.452341 -0.621582
v -0.000732 0.179717 -0.506043
usemtl None
s off
f 6 4 5
f 6 3 4
f 3 1 2
f 3 8 1
f 8 13 1
f 13 11 12
f 13 10 11
f 3 7 8
f 9 13 8
f 6 7 3
f 9 10 13
