# Blender v2.73 (sub 0) OBJ File: 'D.blend'
# www.blender.org
mtllib D.mtl
o A
v -0.000099 0.000408 -0.075999
v -0.000447 0.001835 -0.341995
v -0.000519 0.005494 -0.396364
v -0.000589 0.015504 -0.446863
v -0.000656 0.031319 -0.493323
v -0.000719 0.052392 -0.535578
v -0.000779 0.078178 -0.573460
v -0.000835 0.108131 -0.606803
v -0.000885 0.141705 -0.635439
v -0.000931 0.178353 -0.659200
v -0.000971 0.217530 -0.677920
v -0.001005 0.258689 -0.691432
v -0.001033 0.301285 -0.699567
v -0.001054 0.344771 -0.702160
v -0.001067 0.385289 -0.699613
v -0.001073 0.425882 -0.692336
v -0.001073 0.465859 -0.680229
v -0.001067 0.504528 -0.663191
v -0.001053 0.541197 -0.641123
v -0.001031 0.575176 -0.613923
v -0.001001 0.605773 -0.581491
v -0.000962 0.632296 -0.543727
v -0.000914 0.654054 -0.500529
v -0.000857 0.670354 -0.451799
v -0.000790 0.680507 -0.397435
v -0.000713 0.683819 -0.337336
v -0.000367 0.682398 -0.072340
v -0.000461 0.594925 -0.170811
v -0.000658 0.595735 -0.321809
v -0.000717 0.593618 -0.367414
v -0.000768 0.586974 -0.408769
v -0.000812 0.576135 -0.445931
v -0.000849 0.561429 -0.478958
v -0.000880 0.543188 -0.507906
v -0.000904 0.521741 -0.532833
v -0.000921 0.497418 -0.553797
v -0.000933 0.470550 -0.570854
v -0.000938 0.441467 -0.584062
v -0.000938 0.410500 -0.593477
v -0.000933 0.377977 -0.599158
v -0.000922 0.344230 -0.601162
v -0.000911 0.321600 -0.600151
v -0.000897 0.296297 -0.596613
v -0.000877 0.269201 -0.590126
v -0.000853 0.241190 -0.580270
v -0.000824 0.213145 -0.566621
v -0.000790 0.185946 -0.548760
v -0.000751 0.160472 -0.526264
v -0.000705 0.137603 -0.498713
v -0.000655 0.118218 -0.465685
v -0.000598 0.103198 -0.426758
v -0.000535 0.093422 -0.381511
v -0.000466 0.089769 -0.329523
v -0.000262 0.088932 -0.173525
usemtl None
s off
f 1 28 27
f 28 26 27
f 28 25 26
f 28 24 25
f 28 23 24
f 28 22 23
f 28 21 22
f 28 29 21
f 29 30 21
f 30 20 21
f 1 54 28
f 31 20 30
f 32 20 31
f 33 20 32
f 33 19 20
f 34 19 33
f 35 19 34
f 35 18 19
f 36 18 35
f 36 17 18
f 37 17 36
f 38 17 37
f 38 16 17
f 39 16 38
f 39 15 16
f 40 15 39
f 40 14 15
f 41 14 40
f 42 14 41
f 42 13 14
f 43 13 42
f 43 12 13
f 44 12 43
f 45 12 44
f 45 11 12
f 46 11 45
f 46 10 11
f 47 10 46
f 48 10 47
f 48 9 10
f 49 9 48
f 49 8 9
f 50 8 49
f 51 8 50
f 51 7 8
f 52 7 51
f 53 7 52
f 1 53 54
f 1 7 53
f 1 6 7
f 1 5 6
f 1 4 5
f 1 3 4
f 1 2 3
