# Blender v2.73 (sub 0) OBJ File: 'E.blend'
# www.blender.org
mtllib E.mtl
o A
v -0.000871 0.684468 -0.458334
v -0.000366 0.682392 -0.071340
v -0.000098 0.000402 -0.074999
v -0.000615 0.002526 -0.470993
v -0.000650 0.090525 -0.470521
v -0.000261 0.088927 -0.172525
v -0.000344 0.300924 -0.171388
v -0.000708 0.302420 -0.450384
v -0.000743 0.390419 -0.449912
v -0.000378 0.388922 -0.170916
v -0.000459 0.594919 -0.169811
v -0.000837 0.596470 -0.458806
usemtl None
s off
f 3 11 2
f 11 1 2
f 11 12 1
f 3 10 11
f 3 7 10
f 7 9 10
f 7 8 9
f 3 6 7
f 3 5 6
f 3 4 5
