# Blender v2.73 (sub 0) OBJ File: 'FontH.blend'
# www.blender.org
mtllib H.mtl
o A
v -0.001121 0.685493 -0.649331
v -0.000993 0.684967 -0.551333
v -0.000876 0.387971 -0.552926
v -0.000377 0.385922 -0.170932
v -0.000494 0.682918 -0.169339
v -0.000366 0.682392 -0.071340
v -0.000098 0.000402 -0.074999
v -0.000226 0.000928 -0.172997
v -0.000343 0.297924 -0.171404
v -0.000842 0.299973 -0.553398
v -0.000725 0.002977 -0.554992
v -0.000853 0.003503 -0.652990
usemtl None
s off
f 7 5 6
f 7 4 5
f 3 1 2
f 3 12 1
f 7 9 4
f 9 3 4
f 9 10 3
f 10 12 3
f 7 8 9
f 11 12 10
