# Blender v2.73 (sub 0) OBJ File: 'K.blend'
# www.blender.org
mtllib K.mtl
o A
v -0.000513 0.360524 -0.283070
v -0.001028 0.685112 -0.578332
v -0.000869 0.684458 -0.456334
v -0.000371 0.370923 -0.171012
v -0.000494 0.682918 -0.169339
v -0.000366 0.682392 -0.071340
v -0.000098 0.000402 -0.074999
v -0.000226 0.000928 -0.172997
v -0.000358 0.337923 -0.171190
v -0.000679 0.002789 -0.519992
v -0.000856 0.003513 -0.654990
usemtl None
s off
f 7 5 6
f 7 4 5
f 4 2 3
f 4 1 2
f 7 9 4
f 9 1 4
f 9 11 1
f 7 8 9
f 10 11 9
