# Blender v2.73 (sub 0) OBJ File: 'O.blend'
# www.blender.org
mtllib O.mtl
o A
v -0.000193 0.341236 -0.043170
v -0.000179 0.295503 -0.046319
v -0.000172 0.251137 -0.055130
v -0.000174 0.208641 -0.069397
v -0.000183 0.168516 -0.088912
v -0.000200 0.131266 -0.113467
v -0.000225 0.097393 -0.142854
v -0.000258 0.067398 -0.176867
v -0.000297 0.041785 -0.215297
v -0.000345 0.021056 -0.257937
v -0.000400 0.005713 -0.304580
v -0.000462 -0.003742 -0.355017
v -0.000531 -0.006806 -0.409042
v -0.000605 -0.003134 -0.464810
v -0.000676 0.006919 -0.516512
v -0.000745 0.022838 -0.563995
v -0.000809 0.044109 -0.607105
v -0.000870 0.070217 -0.645689
v -0.000927 0.100647 -0.679594
v -0.000978 0.134884 -0.708666
v -0.001025 0.172414 -0.732752
v -0.001065 0.212723 -0.751697
v -0.001100 0.255294 -0.765349
v -0.001129 0.299614 -0.773554
v -0.001150 0.345168 -0.776159
v -0.001165 0.391952 -0.772984
v -0.001171 0.437003 -0.764106
v -0.001170 0.479872 -0.749733
v -0.001160 0.520109 -0.730072
v -0.001143 0.557262 -0.705330
v -0.001118 0.590883 -0.675714
v -0.001085 0.620520 -0.641433
v -0.001044 0.645724 -0.602692
v -0.000996 0.666043 -0.559700
v -0.000941 0.681028 -0.512664
v -0.000878 0.690229 -0.461790
v -0.000808 0.693195 -0.407287
v -0.000737 0.689630 -0.353678
v -0.000668 0.679837 -0.303510
v -0.000601 0.664279 -0.257018
v -0.000537 0.643419 -0.214440
v -0.000477 0.617720 -0.176013
v -0.000420 0.587645 -0.141974
v -0.000368 0.553657 -0.112561
v -0.000321 0.516220 -0.088010
v -0.000280 0.475796 -0.068558
v -0.000244 0.432849 -0.054443
v -0.000215 0.387841 -0.045901
v -0.000325 0.341778 -0.144168
v -0.000342 0.378416 -0.146283
v -0.000365 0.413168 -0.152860
v -0.000392 0.445790 -0.163642
v -0.000423 0.476038 -0.178375
v -0.000458 0.503666 -0.196802
v -0.000497 0.528431 -0.218668
v -0.000538 0.550087 -0.243718
v -0.000582 0.568391 -0.271695
v -0.000627 0.583099 -0.302345
v -0.000675 0.593965 -0.335411
v -0.000724 0.600746 -0.370638
v -0.000773 0.603196 -0.407770
v -0.000821 0.601145 -0.445156
v -0.000865 0.594744 -0.480645
v -0.000904 0.584234 -0.513982
v -0.000939 0.569857 -0.544913
v -0.000968 0.551855 -0.573183
v -0.000993 0.530468 -0.598537
v -0.001012 0.505940 -0.620721
v -0.001025 0.478511 -0.639479
v -0.001033 0.448424 -0.654556
v -0.001035 0.415919 -0.665699
v -0.001030 0.381240 -0.672652
v -0.001018 0.344627 -0.675160
v -0.001001 0.308199 -0.673044
v -0.000979 0.273584 -0.666463
v -0.000952 0.241036 -0.655669
v -0.000920 0.210811 -0.640915
v -0.000885 0.183164 -0.622452
v -0.000847 0.158349 -0.600534
v -0.000805 0.136620 -0.575411
v -0.000761 0.118234 -0.547336
v -0.000715 0.103444 -0.516562
v -0.000667 0.092506 -0.483339
v -0.000618 0.085674 -0.447921
v -0.000569 0.083203 -0.410559
v -0.000521 0.085274 -0.373403
v -0.000478 0.091727 -0.338105
v -0.000439 0.102309 -0.304924
v -0.000404 0.116768 -0.274118
v -0.000375 0.134853 -0.245945
v -0.000350 0.156311 -0.220664
v -0.000331 0.180890 -0.198533
v -0.000318 0.208338 -0.179811
v -0.000310 0.238403 -0.164755
v -0.000309 0.270833 -0.153623
v -0.000313 0.305375 -0.146675
usemtl None
s off
f 38 36 37
f 38 35 36
f 39 35 38
f 39 34 35
f 40 34 39
f 40 33 34
f 41 33 40
f 41 32 33
f 42 32 41
f 42 31 32
f 43 61 42
f 61 31 42
f 43 60 61
f 62 31 61
f 63 31 62
f 43 59 60
f 64 31 63
f 43 58 59
f 64 30 31
f 44 58 43
f 65 30 64
f 44 57 58
f 66 30 65
f 44 56 57
f 66 29 30
f 45 56 44
f 67 29 66
f 45 55 56
f 68 29 67
f 45 54 55
f 68 28 29
f 46 54 45
f 69 28 68
f 46 53 54
f 69 27 28
f 47 53 46
f 70 27 69
f 47 52 53
f 71 27 70
f 47 51 52
f 71 26 27
f 48 51 47
f 72 26 71
f 48 50 51
f 72 25 26
f 1 50 48
f 73 25 72
f 1 49 50
f 2 49 1
f 2 96 49
f 74 25 73
f 74 24 25
f 2 95 96
f 75 24 74
f 75 23 24
f 3 95 2
f 3 94 95
f 76 23 75
f 76 22 23
f 4 94 3
f 77 22 76
f 4 93 94
f 77 21 22
f 5 93 4
f 78 21 77
f 5 92 93
f 79 21 78
f 5 91 92
f 79 20 21
f 6 91 5
f 80 20 79
f 6 90 91
f 81 20 80
f 6 89 90
f 81 19 20
f 7 89 6
f 82 19 81
f 7 88 89
f 83 19 82
f 7 87 88
f 83 18 19
f 8 87 7
f 84 18 83
f 8 86 87
f 85 18 84
f 8 85 86
f 8 18 85
f 8 17 18
f 9 17 8
f 9 16 17
f 10 16 9
f 10 15 16
f 11 15 10
f 11 14 15
f 12 14 11
f 12 13 14
