# Blender v2.73 (sub 0) OBJ File: 'P.blend'
# www.blender.org
mtllib P.mtl
o A
v -0.000359 0.682366 -0.066340
v -0.000091 0.000375 -0.069999
v -0.000219 0.000901 -0.167997
v -0.000335 0.295897 -0.166415
v -0.000469 0.296444 -0.268413
v -0.000519 0.298361 -0.306120
v -0.000565 0.303547 -0.340274
v -0.000608 0.311791 -0.370926
v -0.000648 0.322881 -0.398125
v -0.000685 0.336605 -0.421921
v -0.000718 0.352753 -0.442364
v -0.000748 0.371112 -0.459503
v -0.000774 0.391471 -0.473388
v -0.000797 0.413618 -0.484069
v -0.000816 0.437342 -0.491596
v -0.000832 0.462432 -0.496018
v -0.000844 0.488675 -0.497385
v -0.000853 0.515211 -0.495819
v -0.000857 0.540662 -0.491379
v -0.000857 0.564792 -0.484024
v -0.000853 0.587364 -0.473707
v -0.000844 0.608143 -0.460387
v -0.000830 0.626891 -0.444018
v -0.000811 0.643372 -0.424557
v -0.000787 0.657351 -0.401961
v -0.000758 0.668590 -0.376184
v -0.000723 0.676854 -0.347184
v -0.000683 0.681905 -0.314916
v -0.000638 0.683508 -0.279337
v -0.000453 0.594893 -0.164811
v -0.000603 0.595509 -0.279809
v -0.000630 0.594531 -0.300793
v -0.000653 0.591490 -0.319327
v -0.000672 0.586589 -0.335530
v -0.000688 0.580031 -0.349523
v -0.000700 0.572017 -0.361426
v -0.000709 0.562750 -0.371361
v -0.000716 0.552431 -0.379447
v -0.000720 0.541262 -0.385805
v -0.000721 0.529446 -0.390556
v -0.000720 0.517185 -0.393819
v -0.000718 0.504680 -0.395715
v -0.000714 0.492133 -0.396365
v -0.000706 0.475738 -0.395486
v -0.000696 0.460576 -0.392715
v -0.000685 0.446682 -0.388125
v -0.000672 0.434091 -0.381788
v -0.000657 0.422839 -0.373777
v -0.000640 0.412959 -0.364165
v -0.000622 0.404489 -0.353024
v -0.000603 0.397461 -0.340428
v -0.000582 0.391913 -0.326449
v -0.000561 0.387878 -0.311160
v -0.000538 0.385393 -0.294633
v -0.000515 0.384491 -0.276941
v -0.000370 0.383896 -0.165943
usemtl None
s off
f 2 30 1
f 30 29 1
f 30 28 29
f 30 27 28
f 30 26 27
f 30 25 26
f 30 24 25
f 30 23 24
f 30 22 23
f 30 31 22
f 31 21 22
f 2 56 30
f 32 21 31
f 33 21 32
f 34 21 33
f 34 20 21
f 35 20 34
f 36 20 35
f 37 20 36
f 37 19 20
f 38 19 37
f 39 19 38
f 40 19 39
f 40 18 19
f 41 18 40
f 42 18 41
f 42 17 18
f 43 17 42
f 44 17 43
f 44 16 17
f 45 16 44
f 45 15 16
f 46 15 45
f 47 15 46
f 47 14 15
f 48 14 47
f 49 14 48
f 49 13 14
f 50 13 49
f 51 13 50
f 52 13 51
f 53 13 52
f 53 12 13
f 54 12 53
f 55 12 54
f 2 4 56
f 4 55 56
f 4 12 55
f 4 11 12
f 4 10 11
f 4 9 10
f 4 8 9
f 4 7 8
f 4 6 7
f 4 5 6
f 2 3 4
