# Blender v2.73 (sub 0) OBJ File: 'FontQ.blend'
# www.blender.org
mtllib Q.mtl
o A
v -0.000648 0.002661 -0.495992
v -0.000705 0.013118 -0.536186
v -0.000760 0.027844 -0.574187
v -0.000814 0.046537 -0.609743
v -0.000866 0.068892 -0.642602
v -0.000915 0.094607 -0.672513
v -0.000961 0.123377 -0.699223
v -0.001004 0.154900 -0.722480
v -0.001043 0.188872 -0.742034
v -0.001078 0.224989 -0.757631
v -0.001108 0.262948 -0.769021
v -0.001133 0.302446 -0.775951
v -0.001152 0.343179 -0.778170
v -0.001167 0.392101 -0.774739
v -0.001173 0.438630 -0.765231
v -0.001171 0.482405 -0.750016
v -0.001161 0.523069 -0.729463
v -0.001142 0.560261 -0.703943
v -0.001116 0.593623 -0.673825
v -0.001083 0.622796 -0.639479
v -0.001043 0.647420 -0.601276
v -0.000997 0.667136 -0.559585
v -0.000944 0.681586 -0.514777
v -0.000885 0.690410 -0.467220
v -0.000821 0.693248 -0.417287
v -0.000750 0.690007 -0.363480
v -0.000680 0.681067 -0.312763
v -0.000613 0.666715 -0.265443
v -0.000548 0.647236 -0.221827
v -0.000487 0.622918 -0.182224
v -0.000429 0.594047 -0.146940
v -0.000376 0.560908 -0.116284
v -0.000328 0.523790 -0.090562
v -0.000285 0.482977 -0.070082
v -0.000247 0.438756 -0.055152
v -0.000217 0.391414 -0.046079
v -0.000193 0.341236 -0.043170
v -0.000179 0.299440 -0.045794
v -0.000173 0.259224 -0.053059
v -0.000173 0.220850 -0.064738
v -0.000179 0.184583 -0.080603
v -0.000191 0.150684 -0.100429
v -0.000209 0.119417 -0.123986
v -0.000233 0.091043 -0.151049
v -0.000263 0.065826 -0.181390
v -0.000298 0.044028 -0.214782
v -0.000338 0.025912 -0.250999
v -0.000383 0.011740 -0.289812
v -0.000432 0.001776 -0.330995
v -0.000457 -0.015344 -0.355114
v -0.000483 -0.031871 -0.379810
v -0.000509 -0.047671 -0.405121
v -0.000537 -0.062614 -0.431083
v -0.000566 -0.076568 -0.457734
v -0.000597 -0.089399 -0.485111
v -0.000629 -0.100976 -0.513253
v -0.000663 -0.111167 -0.542196
v -0.000698 -0.119840 -0.571979
v -0.000735 -0.126862 -0.602638
v -0.000774 -0.132101 -0.634211
v -0.000815 -0.135426 -0.666736
v -0.000965 -0.047955 -0.754267
v -0.000962 -0.044971 -0.751251
v -0.000938 -0.049082 -0.734473
v -0.000915 -0.051736 -0.717468
v -0.000892 -0.052933 -0.700059
v -0.000868 -0.052675 -0.682070
v -0.000845 -0.050963 -0.663322
v -0.000820 -0.047798 -0.643640
v -0.000795 -0.043180 -0.622846
v -0.000769 -0.037111 -0.600763
v -0.000741 -0.029592 -0.577213
v -0.000712 -0.020623 -0.552021
v -0.000681 -0.010205 -0.525008
v -0.000648 0.001661 -0.495998
v -0.000648 0.003661 -0.495987
v -0.000781 0.603228 -0.413770
v -0.000828 0.601097 -0.450657
v -0.000871 0.594479 -0.485655
v -0.000910 0.583649 -0.518517
v -0.000943 0.568879 -0.548993
v -0.000972 0.550442 -0.576836
v -0.000996 0.528611 -0.601797
v -0.001015 0.503658 -0.623630
v -0.001028 0.475858 -0.642086
v -0.001035 0.445483 -0.656916
v -0.001036 0.412806 -0.667873
v -0.001031 0.378100 -0.674709
v -0.001020 0.341637 -0.677176
v -0.001003 0.307370 -0.675147
v -0.000982 0.274291 -0.668834
v -0.000956 0.242739 -0.658457
v -0.000925 0.213051 -0.644236
v -0.000891 0.185567 -0.626393
v -0.000853 0.160623 -0.605147
v -0.000813 0.138559 -0.580718
v -0.000770 0.119711 -0.553328
v -0.000724 0.104417 -0.523197
v -0.000677 0.093017 -0.490545
v -0.000629 0.085847 -0.455592
v -0.000579 0.083246 -0.418559
v -0.000523 0.085473 -0.374942
v -0.000474 0.092401 -0.335092
v -0.000431 0.103668 -0.299010
v -0.000395 0.118914 -0.266699
v -0.000366 0.137777 -0.238160
v -0.000342 0.159897 -0.213395
v -0.000325 0.184912 -0.192406
v -0.000313 0.212461 -0.175196
v -0.000308 0.242184 -0.161766
v -0.000308 0.273718 -0.152117
v -0.000313 0.306703 -0.146253
v -0.000324 0.340778 -0.144174
v -0.000337 0.367558 -0.145467
v -0.000354 0.395906 -0.149786
v -0.000375 0.425085 -0.157378
v -0.000401 0.454355 -0.168491
v -0.000432 0.482978 -0.183371
v -0.000468 0.510217 -0.202266
v -0.000508 0.535333 -0.225422
v -0.000553 0.557588 -0.253086
v -0.000603 0.576243 -0.285506
v -0.000657 0.590560 -0.322929
v -0.000717 0.599801 -0.365601
usemtl None
s off
f 26 24 25
f 27 24 26
f 27 23 24
f 28 23 27
f 28 22 23
f 29 22 28
f 29 21 22
f 30 21 29
f 30 20 21
f 31 20 30
f 31 77 20
f 77 19 20
f 31 124 77
f 78 19 77
f 79 19 78
f 31 123 124
f 32 123 31
f 80 19 79
f 80 18 19
f 32 122 123
f 81 18 80
f 32 121 122
f 82 18 81
f 33 121 32
f 82 17 18
f 33 120 121
f 83 17 82
f 33 119 120
f 84 17 83
f 34 119 33
f 84 16 17
f 34 118 119
f 85 16 84
f 35 118 34
f 35 117 118
f 85 15 16
f 86 15 85
f 35 116 117
f 87 15 86
f 36 116 35
f 87 14 15
f 36 115 116
f 88 14 87
f 36 114 115
f 37 114 36
f 88 13 14
f 89 13 88
f 37 113 114
f 38 113 37
f 38 112 113
f 89 12 13
f 90 12 89
f 38 111 112
f 91 12 90
f 39 111 38
f 91 11 12
f 39 110 111
f 92 11 91
f 40 110 39
f 92 10 11
f 40 109 110
f 93 10 92
f 93 9 10
f 41 109 40
f 41 108 109
f 94 9 93
f 94 8 9
f 42 108 41
f 42 107 108
f 95 8 94
f 42 106 107
f 96 8 95
f 96 7 8
f 43 106 42
f 43 105 106
f 97 7 96
f 97 6 7
f 44 105 43
f 44 104 105
f 98 6 97
f 44 103 104
f 99 6 98
f 99 5 6
f 44 102 103
f 100 5 99
f 45 102 44
f 45 101 102
f 101 5 100
f 45 5 101
f 45 4 5
f 46 4 45
f 46 3 4
f 47 3 46
f 47 2 3
f 48 2 47
f 48 76 2
f 76 1 2
f 49 76 48
f 49 75 76
f 50 75 49
f 50 74 75
f 50 73 74
f 51 73 50
f 51 72 73
f 51 71 72
f 52 71 51
f 52 70 71
f 52 69 70
f 64 62 63
f 53 69 52
f 53 68 69
f 64 61 62
f 65 61 64
f 53 67 68
f 66 61 65
f 53 66 67
f 53 61 66
f 54 61 53
f 55 61 54
f 56 61 55
f 57 61 56
f 58 61 57
f 59 61 58
f 60 61 59
