# Blender v2.73 (sub 0) OBJ File: 'U.blend'
# www.blender.org
mtllib U.mtl
o A
v -0.001114 0.685466 -0.644331
v -0.000986 0.684940 -0.546333
v -0.000830 0.287946 -0.548463
v -0.000824 0.272238 -0.548369
v -0.000817 0.257114 -0.547873
v -0.000810 0.242578 -0.546909
v -0.000803 0.228633 -0.545410
v -0.000795 0.215281 -0.543311
v -0.000786 0.202527 -0.540546
v -0.000777 0.190374 -0.537048
v -0.000766 0.178823 -0.532752
v -0.000755 0.167879 -0.527591
v -0.000743 0.157545 -0.521500
v -0.000730 0.147823 -0.514412
v -0.000716 0.138718 -0.506263
v -0.000702 0.131079 -0.498076
v -0.000687 0.123786 -0.488935
v -0.000671 0.116898 -0.478848
v -0.000654 0.110474 -0.467821
v -0.000636 0.104572 -0.455861
v -0.000617 0.099253 -0.442974
v -0.000598 0.094574 -0.429166
v -0.000577 0.090595 -0.414446
v -0.000555 0.087375 -0.398818
v -0.000533 0.084973 -0.382290
v -0.000509 0.083449 -0.364869
v -0.000485 0.082860 -0.346560
v -0.000466 0.083179 -0.332017
v -0.000448 0.084294 -0.317885
v -0.000431 0.086211 -0.304167
v -0.000415 0.088932 -0.290860
v -0.000399 0.092461 -0.277966
v -0.000385 0.096800 -0.265484
v -0.000371 0.101955 -0.253415
v -0.000358 0.107928 -0.241758
v -0.000347 0.114723 -0.230513
v -0.000335 0.122342 -0.219680
v -0.000325 0.130790 -0.209260
v -0.000316 0.140071 -0.199251
v -0.000309 0.147828 -0.191891
v -0.000304 0.155784 -0.185366
v -0.000300 0.164091 -0.179638
v -0.000297 0.172902 -0.174667
v -0.000295 0.182370 -0.170416
v -0.000295 0.192648 -0.166844
v -0.000295 0.203887 -0.163912
v -0.000297 0.216240 -0.161583
v -0.000300 0.229861 -0.159816
v -0.000305 0.244900 -0.158573
v -0.000310 0.261512 -0.157814
v -0.000317 0.279849 -0.157501
v -0.000476 0.682843 -0.155339
v -0.000348 0.682317 -0.057340
v -0.000181 0.258323 -0.059615
v -0.000167 0.214013 -0.062691
v -0.000162 0.174023 -0.071104
v -0.000165 0.138267 -0.084384
v -0.000176 0.106660 -0.102059
v -0.000193 0.079116 -0.123656
v -0.000216 0.055548 -0.148704
v -0.000245 0.035872 -0.176731
v -0.000278 0.020001 -0.207266
v -0.000316 0.007849 -0.239836
v -0.000357 -0.000669 -0.273970
v -0.000401 -0.005640 -0.309197
v -0.000447 -0.007149 -0.345043
v -0.000512 -0.004628 -0.393636
v -0.000572 0.002270 -0.437924
v -0.000629 0.013361 -0.477919
v -0.000681 0.028459 -0.513632
v -0.000730 0.047382 -0.545074
v -0.000774 0.069946 -0.572257
v -0.000815 0.095965 -0.595193
v -0.000851 0.125258 -0.613892
v -0.000883 0.157638 -0.628366
v -0.000910 0.192924 -0.638626
v -0.000933 0.230930 -0.644685
v -0.000952 0.271472 -0.646552
usemtl None
s off
f 54 52 53
f 54 51 52
f 3 1 2
f 3 78 1
f 4 78 3
f 54 50 51
f 5 78 4
f 5 77 78
f 54 49 50
f 55 49 54
f 6 77 5
f 55 48 49
f 7 77 6
f 55 47 48
f 7 76 77
f 8 76 7
f 55 46 47
f 56 46 55
f 9 76 8
f 56 45 46
f 10 76 9
f 56 44 45
f 10 75 76
f 11 75 10
f 56 43 44
f 12 75 11
f 57 43 56
f 57 42 43
f 13 75 12
f 57 41 42
f 57 40 41
f 14 75 13
f 14 74 75
f 57 39 40
f 15 74 14
f 57 38 39
f 58 38 57
f 16 74 15
f 58 37 38
f 17 74 16
f 17 73 74
f 58 36 37
f 18 73 17
f 19 73 18
f 58 35 36
f 20 73 19
f 58 34 35
f 59 34 58
f 21 73 20
f 59 33 34
f 22 73 21
f 59 32 33
f 22 72 73
f 23 72 22
f 59 31 32
f 24 72 23
f 59 30 31
f 25 72 24
f 59 29 30
f 26 72 25
f 59 28 29
f 27 72 26
f 59 27 28
f 59 72 27
f 60 72 59
f 60 71 72
f 61 71 60
f 61 70 71
f 62 70 61
f 62 69 70
f 63 69 62
f 63 68 69
f 64 68 63
f 64 67 68
f 65 67 64
f 65 66 67
