# Blender v2.73 (sub 0) OBJ File: '4.blend'
# www.blender.org
mtllib 4.mtl
o B
v -0.000791 0.693125 -0.394287
v -0.000737 0.692900 -0.352288
v -0.000120 0.269055 -0.009557
v -0.000102 0.224056 -0.009798
v -0.000480 0.225606 -0.298794
v -0.000392 0.001609 -0.299995
v -0.000520 0.002135 -0.397994
v -0.000608 0.226132 -0.396792
v -0.000703 0.226523 -0.469791
v -0.000738 0.314522 -0.469319
v -0.000642 0.314130 -0.396320
v -0.000588 0.507591 -0.295281
v -0.000591 0.507602 -0.297281
v -0.000514 0.313605 -0.298322
v -0.000308 0.312757 -0.140324
usemtl None
s off
f 3 1 2
f 3 12 1
f 12 13 1
f 13 11 1
f 3 15 12
f 14 11 13
f 3 14 15
f 3 11 14
f 3 10 11
f 3 9 10
f 4 9 3
f 5 9 4
f 6 8 5
f 8 9 5
f 6 7 8
