# Blender v2.73 (sub 0) OBJ File: '6.blend'
# www.blender.org
mtllib 6.mtl
o B
v -0.000686 0.692690 -0.313288
v -0.000618 0.661928 -0.270899
v -0.000554 0.629230 -0.231947
v -0.000494 0.594766 -0.196484
v -0.000438 0.558706 -0.164561
v -0.000386 0.521220 -0.136228
v -0.000338 0.482480 -0.111538
v -0.000295 0.442656 -0.090542
v -0.000256 0.401917 -0.073289
v -0.000222 0.360435 -0.059833
v -0.000193 0.318380 -0.050223
v -0.000168 0.275923 -0.044512
v -0.000149 0.233233 -0.042749
v -0.000138 0.198231 -0.044764
v -0.000132 0.165346 -0.050313
v -0.000131 0.134757 -0.059231
v -0.000136 0.106644 -0.071355
v -0.000145 0.081185 -0.086520
v -0.000160 0.058562 -0.104562
v -0.000179 0.038953 -0.125318
v -0.000203 0.022538 -0.148622
v -0.000231 0.009498 -0.174311
v -0.000264 0.000011 -0.202220
v -0.000301 -0.005743 -0.232186
v -0.000341 -0.007584 -0.264044
v -0.000377 -0.005546 -0.290886
v -0.000413 0.000102 -0.316740
v -0.000449 0.009097 -0.341346
v -0.000484 0.021177 -0.364447
v -0.000518 0.036082 -0.385782
v -0.000550 0.053549 -0.405093
v -0.000580 0.073316 -0.422121
v -0.000607 0.095121 -0.436607
v -0.000632 0.118703 -0.448291
v -0.000653 0.143800 -0.456915
v -0.000671 0.170150 -0.462220
v -0.000684 0.197491 -0.463947
v -0.000693 0.225135 -0.462122
v -0.000697 0.251432 -0.457079
v -0.000696 0.276178 -0.449009
v -0.000691 0.299169 -0.438105
v -0.000682 0.320201 -0.424558
v -0.000668 0.339071 -0.408562
v -0.000651 0.355575 -0.390307
v -0.000630 0.369508 -0.369986
v -0.000606 0.380668 -0.347791
v -0.000578 0.388849 -0.323914
v -0.000547 0.393849 -0.298547
v -0.000513 0.395464 -0.271882
v -0.000498 0.395121 -0.260841
v -0.000484 0.394246 -0.250212
v -0.000470 0.392887 -0.239989
v -0.000457 0.391092 -0.230164
v -0.000443 0.388911 -0.220730
v -0.000431 0.386391 -0.211680
v -0.000418 0.383582 -0.203006
v -0.000406 0.380531 -0.194702
v -0.000394 0.377288 -0.186760
v -0.000383 0.373902 -0.179172
v -0.000372 0.370420 -0.171933
v -0.000362 0.366891 -0.165034
v -0.000382 0.390740 -0.173067
v -0.000405 0.414605 -0.183315
v -0.000430 0.438321 -0.195620
v -0.000458 0.461725 -0.209822
v -0.000488 0.484651 -0.225763
v -0.000520 0.506937 -0.243284
v -0.000553 0.528418 -0.262226
v -0.000588 0.548930 -0.282429
v -0.000623 0.568309 -0.303737
v -0.000660 0.586391 -0.325988
v -0.000696 0.603012 -0.349026
v -0.000733 0.618008 -0.372690
v -0.000295 0.265779 -0.144576
v -0.000311 0.272425 -0.154897
v -0.000326 0.278275 -0.164523
v -0.000340 0.283373 -0.173592
v -0.000353 0.287759 -0.182237
v -0.000365 0.291478 -0.190593
v -0.000377 0.294571 -0.198797
v -0.000389 0.297080 -0.206984
v -0.000400 0.299048 -0.215288
v -0.000412 0.300518 -0.223844
v -0.000424 0.301531 -0.232788
v -0.000437 0.302130 -0.242256
v -0.000450 0.302358 -0.252381
v -0.000470 0.301523 -0.268264
v -0.000489 0.298913 -0.283340
v -0.000506 0.294631 -0.297502
v -0.000521 0.288782 -0.310640
v -0.000533 0.281467 -0.322648
v -0.000544 0.272792 -0.333416
v -0.000552 0.262860 -0.342837
v -0.000558 0.251774 -0.350802
v -0.000562 0.239638 -0.357204
v -0.000563 0.226556 -0.361933
v -0.000561 0.212630 -0.364882
v -0.000556 0.197966 -0.365943
v -0.000549 0.181683 -0.365127
v -0.000539 0.166387 -0.362552
v -0.000528 0.152158 -0.358298
v -0.000515 0.139078 -0.352444
v -0.000501 0.127225 -0.345069
v -0.000485 0.116680 -0.336254
v -0.000468 0.107524 -0.326076
v -0.000450 0.099837 -0.314617
v -0.000431 0.093699 -0.301955
v -0.000411 0.089191 -0.288169
v -0.000391 0.086392 -0.273340
v -0.000370 0.085383 -0.257545
v -0.000348 0.086711 -0.239923
v -0.000327 0.090826 -0.222761
v -0.000308 0.097640 -0.206370
v -0.000292 0.107063 -0.191058
v -0.000279 0.119009 -0.177135
v -0.000268 0.133387 -0.164912
v -0.000262 0.150109 -0.154696
v -0.000259 0.169086 -0.146799
v -0.000261 0.190231 -0.141528
v -0.000267 0.213453 -0.139195
v -0.000278 0.238666 -0.140108
usemtl None
s off
f 2 73 1
f 3 73 2
f 4 73 3
f 4 72 73
f 4 71 72
f 5 71 4
f 5 70 71
f 5 69 70
f 6 69 5
f 6 68 69
f 6 67 68
f 7 67 6
f 7 66 67
f 7 65 66
f 8 65 7
f 8 64 65
f 9 64 8
f 9 63 64
f 9 62 63
f 10 62 9
f 50 48 49
f 51 48 50
f 52 48 51
f 52 47 48
f 53 47 52
f 54 47 53
f 10 61 62
f 55 47 54
f 55 46 47
f 56 46 55
f 57 46 56
f 58 46 57
f 58 45 46
f 59 45 58
f 60 45 59
f 61 45 60
f 61 44 45
f 10 44 61
f 11 44 10
f 11 43 44
f 11 42 43
f 12 83 11
f 83 84 11
f 84 42 11
f 84 85 42
f 85 86 42
f 86 41 42
f 87 41 86
f 88 41 87
f 12 82 83
f 12 81 82
f 89 41 88
f 89 40 41
f 12 80 81
f 12 79 80
f 90 40 89
f 12 78 79
f 91 40 90
f 12 77 78
f 12 76 77
f 92 40 91
f 12 75 76
f 13 75 12
f 92 39 40
f 13 74 75
f 93 39 92
f 13 121 74
f 94 39 93
f 95 39 94
f 95 38 39
f 13 120 121
f 96 38 95
f 14 120 13
f 97 38 96
f 97 37 38
f 14 119 120
f 98 37 97
f 15 119 14
f 99 37 98
f 99 36 37
f 15 118 119
f 100 36 99
f 15 117 118
f 100 35 36
f 16 117 15
f 101 35 100
f 102 35 101
f 16 116 117
f 102 34 35
f 103 34 102
f 17 116 16
f 17 115 116
f 104 34 103
f 17 114 115
f 104 33 34
f 105 33 104
f 18 114 17
f 18 113 114
f 106 33 105
f 107 33 106
f 18 112 113
f 107 32 33
f 108 32 107
f 18 111 112
f 109 32 108
f 18 110 111
f 110 32 109
f 18 32 110
f 19 32 18
f 19 31 32
f 20 31 19
f 20 30 31
f 21 30 20
f 21 29 30
f 22 29 21
f 22 28 29
f 23 28 22
f 23 27 28
f 24 27 23
f 24 26 27
f 25 26 24
