# Blender v2.73 (sub 0) OBJ File: '8.blend'
# www.blender.org
mtllib 8.mtl
o B
v -0.000684 0.186508 -0.467006
v -0.000689 0.203595 -0.466248
v -0.000693 0.220308 -0.464162
v -0.000696 0.236569 -0.460753
v -0.000696 0.252302 -0.456023
v -0.000694 0.267430 -0.449977
v -0.000690 0.281878 -0.442619
v -0.000684 0.295569 -0.433952
v -0.000676 0.308427 -0.423981
v -0.000666 0.320375 -0.412709
v -0.000654 0.331336 -0.400140
v -0.000640 0.341235 -0.386278
v -0.000624 0.349996 -0.371127
v -0.000646 0.359932 -0.384931
v -0.000667 0.370531 -0.397453
v -0.000686 0.381713 -0.408708
v -0.000703 0.393400 -0.418710
v -0.000720 0.405510 -0.427474
v -0.000734 0.417964 -0.435014
v -0.000748 0.430683 -0.441344
v -0.000760 0.443587 -0.446478
v -0.000770 0.456595 -0.450432
v -0.000779 0.469628 -0.453218
v -0.000786 0.482606 -0.454852
v -0.000792 0.495450 -0.455348
v -0.000801 0.523073 -0.453441
v -0.000804 0.549315 -0.448156
v -0.000803 0.573976 -0.439692
v -0.000797 0.596861 -0.428248
v -0.000787 0.617773 -0.414023
v -0.000773 0.636515 -0.397216
v -0.000754 0.652890 -0.378025
v -0.000732 0.666700 -0.356651
v -0.000706 0.677751 -0.333291
v -0.000676 0.685843 -0.308144
v -0.000643 0.690782 -0.281411
v -0.000607 0.692369 -0.253289
v -0.000569 0.690495 -0.224188
v -0.000530 0.685323 -0.196525
v -0.000493 0.677049 -0.170511
v -0.000457 0.665869 -0.146356
v -0.000423 0.651977 -0.124271
v -0.000390 0.635570 -0.104467
v -0.000360 0.616842 -0.087154
v -0.000333 0.595990 -0.072544
v -0.000309 0.573210 -0.060848
v -0.000288 0.548696 -0.052275
v -0.000270 0.522644 -0.047037
v -0.000257 0.495250 -0.045344
v -0.000252 0.480884 -0.046041
v -0.000249 0.466806 -0.047955
v -0.000248 0.453046 -0.051055
v -0.000248 0.439636 -0.055309
v -0.000250 0.426608 -0.060686
v -0.000253 0.413991 -0.067155
v -0.000258 0.401818 -0.074684
v -0.000265 0.390119 -0.083242
v -0.000273 0.378925 -0.092797
v -0.000282 0.368268 -0.103317
v -0.000293 0.358178 -0.114773
v -0.000305 0.348687 -0.127131
v -0.000281 0.338789 -0.111621
v -0.000258 0.328259 -0.097486
v -0.000237 0.317084 -0.084722
v -0.000218 0.305250 -0.073326
v -0.000200 0.292742 -0.063296
v -0.000183 0.279547 -0.054626
v -0.000168 0.265651 -0.047315
v -0.000154 0.251040 -0.041358
v -0.000142 0.235701 -0.036752
v -0.000132 0.219618 -0.033494
v -0.000122 0.202779 -0.031580
v -0.000114 0.185169 -0.031007
v -0.000107 0.158465 -0.033111
v -0.000104 0.132993 -0.038972
v -0.000107 0.108964 -0.048354
v -0.000114 0.086588 -0.061018
v -0.000126 0.066075 -0.076728
v -0.000143 0.047637 -0.095246
v -0.000164 0.031483 -0.116335
v -0.000189 0.017824 -0.139758
v -0.000218 0.006871 -0.165278
v -0.000251 -0.001166 -0.192657
v -0.000287 -0.006076 -0.221658
v -0.000326 -0.007648 -0.252044
v -0.000365 -0.005772 -0.281913
v -0.000405 -0.000608 -0.310369
v -0.000443 0.007637 -0.337182
v -0.000480 0.018758 -0.362126
v -0.000515 0.032548 -0.384973
v -0.000548 0.048801 -0.405494
v -0.000579 0.067311 -0.423461
v -0.000607 0.087873 -0.438646
v -0.000632 0.110279 -0.450821
v -0.000653 0.134325 -0.459758
v -0.000671 0.159803 -0.465229
v -0.000665 0.496924 -0.357339
v -0.000658 0.483358 -0.356433
v -0.000649 0.470251 -0.353653
v -0.000638 0.457739 -0.349127
v -0.000626 0.445957 -0.342983
v -0.000611 0.435043 -0.335347
v -0.000596 0.425132 -0.326349
v -0.000579 0.416360 -0.316115
v -0.000561 0.408863 -0.304774
v -0.000542 0.402778 -0.292453
v -0.000523 0.398240 -0.279279
v -0.000504 0.395386 -0.265382
v -0.000485 0.394351 -0.250888
v -0.000467 0.395252 -0.236594
v -0.000450 0.398016 -0.222803
v -0.000434 0.402505 -0.209656
v -0.000421 0.408583 -0.197292
v -0.000409 0.416109 -0.185851
v -0.000399 0.424947 -0.175473
v -0.000391 0.434958 -0.166296
v -0.000385 0.446005 -0.158461
v -0.000382 0.457947 -0.152108
v -0.000380 0.470649 -0.147375
v -0.000382 0.483971 -0.144403
v -0.000386 0.497776 -0.143332
v -0.000393 0.512582 -0.144156
v -0.000402 0.526457 -0.146738
v -0.000413 0.539333 -0.150999
v -0.000425 0.551146 -0.156860
v -0.000439 0.561827 -0.164241
v -0.000454 0.571311 -0.173063
v -0.000471 0.579532 -0.183245
v -0.000488 0.586423 -0.194709
v -0.000507 0.591918 -0.207374
v -0.000527 0.595949 -0.221162
v -0.000547 0.598452 -0.235994
v -0.000568 0.599359 -0.251788
v -0.000587 0.598539 -0.266673
v -0.000605 0.595982 -0.280765
v -0.000620 0.591789 -0.293970
v -0.000634 0.586058 -0.306194
v -0.000645 0.578892 -0.317341
v -0.000655 0.570389 -0.327320
v -0.000662 0.560650 -0.336033
v -0.000668 0.549776 -0.343389
v -0.000671 0.537866 -0.349291
v -0.000671 0.525020 -0.353647
v -0.000669 0.511340 -0.356361
v -0.000559 0.193982 -0.368964
v -0.000552 0.179879 -0.368188
v -0.000543 0.166172 -0.365711
v -0.000533 0.153020 -0.361543
v -0.000520 0.140577 -0.355695
v -0.000506 0.129000 -0.348176
v -0.000489 0.118445 -0.338994
v -0.000472 0.109069 -0.328161
v -0.000452 0.101028 -0.315684
v -0.000431 0.094478 -0.301575
v -0.000409 0.089576 -0.285843
v -0.000385 0.086478 -0.268496
v -0.000360 0.085340 -0.249546
v -0.000338 0.086170 -0.232475
v -0.000318 0.088787 -0.216332
v -0.000300 0.093096 -0.201222
v -0.000284 0.099006 -0.187249
v -0.000270 0.106422 -0.174518
v -0.000259 0.115252 -0.163134
v -0.000250 0.125402 -0.153201
v -0.000244 0.136779 -0.144824
v -0.000240 0.149290 -0.138107
v -0.000239 0.162842 -0.133156
v -0.000241 0.177341 -0.130075
v -0.000245 0.192695 -0.128968
v -0.000253 0.208269 -0.129872
v -0.000262 0.222937 -0.132704
v -0.000274 0.236615 -0.137389
v -0.000287 0.249220 -0.143850
v -0.000302 0.260666 -0.152012
v -0.000319 0.270872 -0.161799
v -0.000338 0.279752 -0.173135
v -0.000357 0.287224 -0.185943
v -0.000378 0.293203 -0.200149
v -0.000400 0.297606 -0.215675
v -0.000423 0.300348 -0.232446
v -0.000447 0.301347 -0.250387
v -0.000469 0.300497 -0.267208
v -0.000488 0.297828 -0.283105
v -0.000506 0.293446 -0.297977
v -0.000521 0.287454 -0.311721
v -0.000535 0.279955 -0.324238
v -0.000546 0.271053 -0.335425
v -0.000554 0.260852 -0.345182
v -0.000561 0.249455 -0.353407
v -0.000564 0.236966 -0.359999
v -0.000565 0.223488 -0.364857
v -0.000563 0.209126 -0.367879
usemtl None
s off
f 38 36 37
f 39 36 38
f 39 35 36
f 40 35 39
f 40 34 35
f 41 34 40
f 41 33 34
f 42 33 41
f 42 32 33
f 43 32 42
f 43 31 32
f 44 31 43
f 44 30 31
f 45 30 44
f 45 133 30
f 133 29 30
f 45 132 133
f 134 29 133
f 45 131 132
f 135 29 134
f 46 131 45
f 46 130 131
f 135 28 29
f 136 28 135
f 46 129 130
f 137 28 136
f 46 128 129
f 138 28 137
f 46 127 128
f 139 28 138
f 47 127 46
f 139 27 28
f 47 126 127
f 140 27 139
f 47 125 126
f 141 27 140
f 47 124 125
f 48 124 47
f 142 27 141
f 142 26 27
f 48 123 124
f 143 26 142
f 48 122 123
f 144 26 143
f 49 122 48
f 144 25 26
f 49 121 122
f 97 25 144
f 49 120 121
f 50 120 49
f 98 25 97
f 98 24 25
f 50 119 120
f 99 24 98
f 51 119 50
f 99 23 24
f 51 118 119
f 100 23 99
f 100 22 23
f 52 118 51
f 52 117 118
f 101 22 100
f 101 21 22
f 53 117 52
f 53 116 117
f 102 21 101
f 102 20 21
f 54 116 53
f 54 115 116
f 103 20 102
f 103 19 20
f 55 115 54
f 55 114 115
f 104 19 103
f 104 18 19
f 55 113 114
f 105 18 104
f 56 113 55
f 56 112 113
f 106 18 105
f 106 17 18
f 57 112 56
f 57 111 112
f 107 17 106
f 57 110 111
f 108 17 107
f 57 109 110
f 109 17 108
f 57 17 109
f 57 16 17
f 58 16 57
f 58 15 16
f 59 15 58
f 59 14 15
f 60 14 59
f 60 13 14
f 61 13 60
f 62 13 61
f 62 12 13
f 62 11 12
f 63 11 62
f 63 10 11
f 64 10 63
f 64 9 10
f 65 9 64
f 65 181 9
f 181 8 9
f 66 181 65
f 66 180 181
f 182 8 181
f 66 179 180
f 183 8 182
f 66 178 179
f 184 8 183
f 184 7 8
f 67 178 66
f 67 177 178
f 185 7 184
f 67 176 177
f 186 7 185
f 186 6 7
f 68 176 67
f 68 175 176
f 187 6 186
f 68 174 175
f 188 6 187
f 69 174 68
f 188 5 6
f 69 173 174
f 189 5 188
f 70 173 69
f 189 4 5
f 70 172 173
f 190 4 189
f 70 171 172
f 71 171 70
f 191 4 190
f 191 3 4
f 71 170 171
f 192 3 191
f 72 170 71
f 192 2 3
f 72 169 170
f 145 2 192
f 73 169 72
f 145 1 2
f 73 168 169
f 146 1 145
f 74 168 73
f 146 96 1
f 147 96 146
f 74 167 168
f 148 96 147
f 74 166 167
f 75 166 74
f 148 95 96
f 149 95 148
f 75 165 166
f 150 95 149
f 75 164 165
f 76 164 75
f 150 94 95
f 151 94 150
f 76 163 164
f 152 94 151
f 76 162 163
f 77 162 76
f 152 93 94
f 153 93 152
f 77 161 162
f 154 93 153
f 77 160 161
f 155 93 154
f 77 159 160
f 156 93 155
f 77 158 159
f 78 158 77
f 156 92 93
f 157 92 156
f 78 157 158
f 78 92 157
f 79 92 78
f 79 91 92
f 80 91 79
f 80 90 91
f 81 90 80
f 81 89 90
f 82 89 81
f 82 88 89
f 83 88 82
f 83 87 88
f 84 87 83
f 84 86 87
f 85 86 84
