# Blender 4.2.3 LTS
# www.blender.org
mtllib comma.mtl
o comma
v -0.000000 -0.118000 -0.059000
v -0.000000 -0.111634 -0.077898
v -0.000000 -0.103653 -0.095097
v -0.000000 -0.094234 -0.110609
v -0.000000 -0.083556 -0.124444
v -0.000000 -0.071793 -0.136613
v -0.000000 -0.059125 -0.147125
v -0.000000 -0.045727 -0.155991
v -0.000000 -0.031778 -0.163222
v -0.000000 -0.017453 -0.168828
v -0.000000 -0.002931 -0.172819
v -0.000000 0.011613 -0.175207
v -0.000000 0.026000 -0.176000
v -0.000000 0.040303 -0.175424
v -0.000000 0.053671 -0.173727
v -0.000000 0.066047 -0.170953
v -0.000000 0.077370 -0.167148
v -0.000000 0.087583 -0.162357
v -0.000000 0.096625 -0.156625
v -0.000000 0.104438 -0.149997
v -0.000000 0.110963 -0.142519
v -0.000000 0.116141 -0.134234
v -0.000000 0.119912 -0.125190
v 0.000000 0.122218 -0.115430
v 0.000000 0.123000 -0.105000
v 0.000000 0.122509 -0.096697
v 0.000000 0.121069 -0.088824
v 0.000000 0.118734 -0.081438
v 0.000000 0.115556 -0.074593
v 0.000000 0.111585 -0.068345
v 0.000000 0.106875 -0.062750
v 0.000000 0.101477 -0.057863
v 0.000000 0.095444 -0.053741
v 0.000000 0.088828 -0.050438
v 0.000000 0.081681 -0.048009
v 0.000000 0.074054 -0.046512
v 0.000000 0.066000 -0.046000
v 0.000000 0.057985 -0.046410
v 0.000000 0.050463 -0.047616
v -0.000000 0.043469 -0.049578
v -0.000000 0.037037 -0.052259
v -0.000000 0.031203 -0.055621
v -0.000000 0.026000 -0.059625
v -0.000000 0.021464 -0.064233
v -0.000000 0.017630 -0.069407
v -0.000000 0.014531 -0.075109
v -0.000000 0.012204 -0.081301
v -0.000000 0.010682 -0.087944
v -0.000000 0.010000 -0.095000
v -0.000000 0.000713 -0.096813
v -0.000000 -0.009046 -0.097750
v -0.000000 -0.019125 -0.097813
v -0.000000 -0.029370 -0.097000
v -0.000000 -0.039630 -0.095313
v -0.000000 -0.049750 -0.092750
v -0.000000 -0.059579 -0.089313
v -0.000000 -0.068963 -0.085000
v -0.000000 -0.077750 -0.079813
v -0.000000 -0.085787 -0.073750
v -0.000000 -0.092921 -0.066813
v -0.000000 -0.099000 -0.059000
vn 1.0000 -0.0000 -0.0000
vt 0.416667 0.000000
vt 0.383333 0.000000
vt 0.400000 0.000000
vt 0.433333 0.000000
vt 0.366667 0.000000
vt 0.450000 0.000000
vt 0.350000 0.000000
vt 0.466667 0.000000
vt 0.333333 0.000000
vt 0.483333 0.000000
vt 0.500000 0.000000
vt 0.316667 0.000000
vt 0.516667 0.000000
vt 0.300000 0.000000
vt 0.533333 0.000000
vt 0.283333 0.000000
vt 0.550000 0.000000
vt 0.566667 0.000000
vt 0.266667 0.000000
vt 0.583333 0.000000
vt 0.250000 0.000000
vt 0.600000 0.000000
vt 0.233333 0.000000
vt 0.616667 0.000000
vt 0.633333 0.000000
vt 0.216667 0.000000
vt 0.650000 0.000000
vt 0.666667 0.000000
vt 0.200000 0.000000
vt 0.683333 0.000000
vt 0.700000 0.000000
vt 0.716667 0.000000
vt 0.183333 0.000000
vt 0.733333 0.000000
vt 0.750000 0.000000
vt 0.766667 0.000000
vt 0.783333 0.000000
vt 0.800000 0.000000
vt 0.166667 0.000000
vt 0.816667 0.000000
vt 0.833333 0.000000
vt 0.150000 0.000000
vt 0.850000 0.000000
vt 0.133333 0.000000
vt 0.866667 0.000000
vt 0.883333 0.000000
vt 0.116667 0.000000
vt 0.900000 0.000000
vt 0.100000 0.000000
vt 0.916667 0.000000
vt 0.083333 0.000000
vt 0.933333 0.000000
vt 0.950000 0.000000
vt 0.066667 0.000000
vt 0.966667 0.000000
vt 0.050000 0.000000
vt 0.983333 0.000000
vt 1.000000 0.000000
vt 0.033333 0.000000
vt 0.000000 0.000000
vt 0.016667 0.000000
usemtl None
s 0
f 26/1/1 24/2/1 25/3/1
f 27/4/1 24/2/1 26/1/1
f 27/4/1 23/5/1 24/2/1
f 28/6/1 23/5/1 27/4/1
f 28/6/1 22/7/1 23/5/1
f 29/8/1 22/7/1 28/6/1
f 29/8/1 21/9/1 22/7/1
f 30/10/1 21/9/1 29/8/1
f 31/11/1 21/9/1 30/10/1
f 31/11/1 20/12/1 21/9/1
f 32/13/1 20/12/1 31/11/1
f 32/13/1 19/14/1 20/12/1
f 33/15/1 19/14/1 32/13/1
f 33/15/1 18/16/1 19/14/1
f 34/17/1 18/16/1 33/15/1
f 35/18/1 18/16/1 34/17/1
f 35/18/1 17/19/1 18/16/1
f 36/20/1 17/19/1 35/18/1
f 36/20/1 16/21/1 17/19/1
f 37/22/1 16/21/1 36/20/1
f 37/22/1 15/23/1 16/21/1
f 38/24/1 15/23/1 37/22/1
f 39/25/1 15/23/1 38/24/1
f 39/25/1 14/26/1 15/23/1
f 40/27/1 14/26/1 39/25/1
f 41/28/1 14/26/1 40/27/1
f 41/28/1 13/29/1 14/26/1
f 42/30/1 13/29/1 41/28/1
f 43/31/1 13/29/1 42/30/1
f 44/32/1 13/29/1 43/31/1
f 44/32/1 12/33/1 13/29/1
f 45/34/1 12/33/1 44/32/1
f 46/35/1 12/33/1 45/34/1
f 47/36/1 12/33/1 46/35/1
f 48/37/1 12/33/1 47/36/1
f 48/37/1 49/38/1 12/33/1
f 49/38/1 11/39/1 12/33/1
f 50/40/1 11/39/1 49/38/1
f 51/41/1 11/39/1 50/40/1
f 51/41/1 10/42/1 11/39/1
f 52/43/1 10/42/1 51/41/1
f 52/43/1 9/44/1 10/42/1
f 53/45/1 9/44/1 52/43/1
f 54/46/1 9/44/1 53/45/1
f 54/46/1 8/47/1 9/44/1
f 55/48/1 8/47/1 54/46/1
f 55/48/1 7/49/1 8/47/1
f 56/50/1 7/49/1 55/48/1
f 56/50/1 6/51/1 7/49/1
f 57/52/1 6/51/1 56/50/1
f 58/53/1 6/51/1 57/52/1
f 58/53/1 5/54/1 6/51/1
f 59/55/1 5/54/1 58/53/1
f 59/55/1 4/56/1 5/54/1
f 60/57/1 4/56/1 59/55/1
f 61/58/1 4/56/1 60/57/1
f 61/58/1 3/59/1 4/56/1
f 1/60/1 3/59/1 61/58/1
f 1/60/1 2/61/1 3/59/1
