# Blender v2.73 (sub 0) OBJ File: 'DOT.blend'
# www.blender.org
mtllib DOT.mtl
o B
v -0.000186 0.111583 -0.108403
v -0.000175 0.110989 -0.100293
v -0.000164 0.109345 -0.092512
v -0.000154 0.106724 -0.085132
v -0.000143 0.103199 -0.078225
v -0.000133 0.098844 -0.071865
v -0.000124 0.093731 -0.066123
v -0.000115 0.087935 -0.061073
v -0.000107 0.081528 -0.056786
v -0.000099 0.074584 -0.053335
v -0.000093 0.067176 -0.050793
v -0.000088 0.059378 -0.049232
v -0.000084 0.051262 -0.048726
v -0.000082 0.043152 -0.049320
v -0.000081 0.035371 -0.050964
v -0.000081 0.027991 -0.053585
v -0.000083 0.021084 -0.057110
v -0.000086 0.014724 -0.061465
v -0.000090 0.008982 -0.066578
v -0.000096 0.003932 -0.072374
v -0.000103 -0.000355 -0.078781
v -0.000110 -0.003806 -0.085725
v -0.000119 -0.006348 -0.093133
v -0.000128 -0.007908 -0.100931
v -0.000139 -0.008415 -0.109047
v -0.000150 -0.007821 -0.117156
v -0.000160 -0.006177 -0.124938
v -0.000171 -0.003556 -0.132318
v -0.000182 -0.000031 -0.139224
v -0.000192 0.004324 -0.145585
v -0.000201 0.009437 -0.151326
v -0.000210 0.015233 -0.156377
v -0.000218 0.021640 -0.160664
v -0.000225 0.028584 -0.164114
v -0.000232 0.035992 -0.166656
v -0.000237 0.043790 -0.168217
v -0.000241 0.051906 -0.168724
v -0.000243 0.060016 -0.168130
v -0.000244 0.067797 -0.166486
v -0.000244 0.075177 -0.163865
v -0.000242 0.082083 -0.160340
v -0.000239 0.088444 -0.155984
v -0.000234 0.094186 -0.150872
v -0.000229 0.099236 -0.145076
v -0.000222 0.103523 -0.138669
v -0.000215 0.106974 -0.131725
v -0.000206 0.109516 -0.124317
v -0.000196 0.111076 -0.116519
usemtl None
s off
f 2 48 1
f 3 48 2
f 3 47 48
f 4 47 3
f 4 46 47
f 5 46 4
f 5 45 46
f 6 45 5
f 6 44 45
f 7 44 6
f 7 43 44
f 8 43 7
f 8 42 43
f 9 42 8
f 9 41 42
f 10 41 9
f 10 40 41
f 11 40 10
f 11 39 40
f 12 39 11
f 12 38 39
f 12 37 38
f 13 37 12
f 14 37 13
f 14 36 37
f 15 36 14
f 15 35 36
f 16 35 15
f 16 34 35
f 17 34 16
f 17 33 34
f 18 33 17
f 18 32 33
f 19 32 18
f 19 31 32
f 20 31 19
f 20 30 31
f 21 30 20
f 21 29 30
f 22 29 21
f 22 28 29
f 23 28 22
f 23 27 28
f 24 27 23
f 24 26 27
f 25 26 24
