# Blender v2.73 (sub 0) OBJ File: 'plus.blend'
# www.blender.org
mtllib plus.mtl
o B
v -0.000559 0.590338 -0.247836
v -0.000483 0.395341 -0.248883
v -0.000228 0.394295 -0.053886
v -0.000196 0.312296 -0.054325
v -0.000450 0.313342 -0.249322
v -0.000374 0.118345 -0.250369
v -0.000481 0.118785 -0.332367
v -0.000558 0.313782 -0.331321
v -0.000812 0.314828 -0.526318
v -0.000845 0.396827 -0.525878
v -0.000590 0.395781 -0.330881
v -0.000666 0.590778 -0.329835
usemtl None
s off
f 2 12 1
f 2 11 12
f 4 2 3
f 4 11 2
f 4 10 11
f 4 9 10
f 5 9 4
f 6 8 5
f 8 9 5
f 6 7 8
