# Blender v2.73 (sub 0) OBJ File: 'questionMark.blend'
# www.blender.org
mtllib questionMark.mtl
o B
v -0.000245 0.111824 -0.153402
v -0.000234 0.111231 -0.145292
v -0.000223 0.109586 -0.137511
v -0.000212 0.106965 -0.130131
v -0.000202 0.103440 -0.123225
v -0.000192 0.099085 -0.116864
v -0.000183 0.093972 -0.111122
v -0.000174 0.088176 -0.106072
v -0.000165 0.081769 -0.101785
v -0.000158 0.074825 -0.098334
v -0.000152 0.067418 -0.095792
v -0.000147 0.059619 -0.094232
v -0.000143 0.051503 -0.093725
v -0.000140 0.043394 -0.094319
v -0.000139 0.035612 -0.095963
v -0.000140 0.028232 -0.098584
v -0.000142 0.021326 -0.102109
v -0.000145 0.014965 -0.106465
v -0.000149 0.009224 -0.111577
v -0.000155 0.004173 -0.117373
v -0.000161 -0.000114 -0.123780
v -0.000169 -0.003564 -0.130724
v -0.000178 -0.006106 -0.138132
v -0.000187 -0.007667 -0.145930
v -0.000198 -0.008174 -0.154046
v -0.000208 -0.007580 -0.162156
v -0.000219 -0.005936 -0.169937
v -0.000230 -0.003315 -0.177317
v -0.000240 0.000210 -0.184224
v -0.000250 0.004566 -0.190584
v -0.000260 0.009678 -0.196326
v -0.000269 0.015475 -0.201376
v -0.000277 0.021881 -0.205663
v -0.000284 0.028825 -0.209114
v -0.000291 0.036233 -0.211656
v -0.000296 0.044031 -0.213216
v -0.000300 0.052147 -0.213723
v -0.000302 0.060257 -0.213129
v -0.000303 0.068038 -0.211485
v -0.000303 0.075418 -0.208864
v -0.000301 0.082325 -0.205339
v -0.000298 0.088685 -0.200984
v -0.000293 0.094427 -0.195871
v -0.000288 0.099478 -0.190075
v -0.000281 0.103764 -0.183668
v -0.000273 0.107215 -0.176724
v -0.000265 0.109757 -0.169316
v -0.000255 0.111318 -0.161518
v -0.000341 0.595431 -0.078807
v -0.000345 0.595984 -0.081598
v -0.000349 0.596601 -0.084490
v -0.000353 0.597259 -0.087500
v -0.000357 0.597939 -0.090645
v -0.000362 0.598620 -0.093943
v -0.000367 0.599281 -0.097411
v -0.000372 0.599901 -0.101067
v -0.000377 0.600460 -0.104928
v -0.000382 0.600937 -0.109012
v -0.000388 0.601311 -0.113336
v -0.000394 0.601561 -0.117917
v -0.000401 0.601667 -0.122774
v -0.000413 0.601165 -0.132478
v -0.000424 0.599583 -0.141563
v -0.000434 0.596969 -0.149987
v -0.000443 0.593373 -0.157708
v -0.000450 0.588842 -0.164684
v -0.000456 0.583425 -0.170872
v -0.000461 0.577170 -0.176232
v -0.000464 0.570126 -0.180722
v -0.000465 0.562340 -0.184298
v -0.000465 0.553863 -0.186920
v -0.000464 0.544740 -0.188546
v -0.000461 0.535022 -0.189132
v -0.000449 0.512665 -0.187049
v -0.000432 0.490964 -0.181072
v -0.000412 0.469726 -0.171982
v -0.000389 0.448757 -0.160558
v -0.000364 0.427862 -0.147577
v -0.000337 0.406849 -0.133819
v -0.000311 0.385523 -0.120063
v -0.000285 0.363691 -0.107087
v -0.000261 0.341159 -0.095671
v -0.000240 0.317733 -0.086593
v -0.000222 0.293220 -0.080632
v -0.000209 0.267425 -0.078566
v -0.000206 0.256565 -0.078984
v -0.000203 0.246452 -0.080133
v -0.000202 0.237037 -0.082042
v -0.000202 0.228273 -0.084740
v -0.000203 0.220110 -0.088253
v -0.000206 0.212500 -0.092611
v -0.000210 0.205395 -0.097842
v -0.000215 0.198746 -0.103972
v -0.000222 0.192505 -0.111031
v -0.000230 0.186623 -0.119047
v -0.000239 0.181052 -0.128047
v -0.000250 0.175743 -0.138059
v -0.000261 0.201815 -0.137949
v -0.000279 0.228605 -0.144100
v -0.000305 0.256165 -0.155315
v -0.000336 0.284548 -0.170402
v -0.000371 0.313806 -0.188164
v -0.000408 0.343992 -0.207407
v -0.000446 0.375160 -0.226937
v -0.000483 0.407360 -0.245559
v -0.000518 0.440647 -0.262077
v -0.000549 0.475071 -0.275298
v -0.000575 0.510688 -0.284026
v -0.000593 0.547548 -0.287067
v -0.000598 0.563649 -0.286066
v -0.000601 0.580212 -0.283160
v -0.000602 0.596876 -0.278239
v -0.000599 0.613278 -0.271195
v -0.000593 0.629057 -0.261918
v -0.000584 0.643852 -0.250299
v -0.000571 0.657300 -0.236229
v -0.000554 0.669039 -0.219599
v -0.000533 0.678709 -0.200299
v -0.000507 0.685947 -0.178221
v -0.000476 0.690392 -0.153254
v -0.000440 0.691682 -0.125291
usemtl None
s off
f 49 120 121
f 49 119 120
f 49 118 119
f 49 117 118
f 49 116 117
f 49 115 116
f 49 53 115
f 53 54 115
f 54 55 115
f 55 114 115
f 55 56 114
f 56 57 114
f 57 58 114
f 58 59 114
f 59 113 114
f 59 60 113
f 60 61 113
f 61 112 113
f 62 112 61
f 63 112 62
f 64 112 63
f 49 52 53
f 49 51 52
f 65 112 64
f 49 50 51
f 65 111 112
f 66 111 65
f 67 111 66
f 68 111 67
f 68 110 111
f 69 110 68
f 70 110 69
f 70 109 110
f 71 109 70
f 72 109 71
f 72 108 109
f 73 108 72
f 74 108 73
f 75 108 74
f 75 107 108
f 76 107 75
f 76 106 107
f 77 106 76
f 78 106 77
f 78 105 106
f 79 105 78
f 80 105 79
f 80 104 105
f 81 104 80
f 81 103 104
f 82 103 81
f 82 102 103
f 83 102 82
f 84 102 83
f 84 101 102
f 85 101 84
f 85 100 101
f 86 100 85
f 87 100 86
f 87 99 100
f 88 99 87
f 89 99 88
f 89 98 99
f 90 98 89
f 91 98 90
f 92 98 91
f 93 98 92
f 93 97 98
f 94 97 93
f 95 97 94
f 96 97 95
f 2 48 1
f 3 48 2
f 3 47 48
f 4 47 3
f 4 46 47
f 5 46 4
f 5 45 46
f 6 45 5
f 6 44 45
f 7 44 6
f 7 43 44
f 8 43 7
f 8 42 43
f 9 42 8
f 9 41 42
f 10 41 9
f 10 40 41
f 11 40 10
f 11 39 40
f 12 39 11
f 12 38 39
f 12 37 38
f 13 37 12
f 14 37 13
f 14 36 37
f 15 36 14
f 15 35 36
f 16 35 15
f 16 34 35
f 17 34 16
f 17 33 34
f 18 33 17
f 18 32 33
f 19 32 18
f 19 31 32
f 20 31 19
f 20 30 31
f 21 30 20
f 21 29 30
f 22 29 21
f 22 28 29
f 23 28 22
f 23 27 28
f 24 27 23
f 24 26 27
f 25 26 24
