# Blender v2.73 (sub 0) OBJ File: 'a_small.blend'
# www.blender.org
mtllib A.mtl
o B
v -0.000568 0.082203 -0.410565
v -0.000560 0.078554 -0.405630
v -0.000553 0.075165 -0.400801
v -0.000545 0.072048 -0.396103
v -0.000538 0.069212 -0.391560
v -0.000532 0.066670 -0.387196
v -0.000525 0.064431 -0.383035
v -0.000519 0.062505 -0.379101
v -0.000514 0.060904 -0.375419
v -0.000509 0.059637 -0.372013
v -0.000505 0.058716 -0.368908
v -0.000501 0.058151 -0.366126
v -0.000498 0.057952 -0.363694
v -0.000494 0.058065 -0.361048
v -0.000491 0.058448 -0.358613
v -0.000488 0.059116 -0.356391
v -0.000486 0.060087 -0.354386
v -0.000484 0.061379 -0.352602
v -0.000483 0.063009 -0.351042
v -0.000482 0.064994 -0.349709
v -0.000482 0.067352 -0.348606
v -0.000482 0.070101 -0.347738
v -0.000482 0.073256 -0.347107
v -0.000483 0.076837 -0.346717
v -0.000484 0.080860 -0.346571
v -0.000575 0.311857 -0.345332
v -0.000583 0.336188 -0.343732
v -0.000586 0.358205 -0.339328
v -0.000585 0.377944 -0.332305
v -0.000579 0.395441 -0.322846
v -0.000570 0.410732 -0.311135
v -0.000557 0.423851 -0.297355
v -0.000541 0.434836 -0.281691
v -0.000522 0.443721 -0.264327
v -0.000500 0.450542 -0.245446
v -0.000476 0.455335 -0.225232
v -0.000449 0.458136 -0.203869
v -0.000420 0.458980 -0.181540
v -0.000399 0.458478 -0.165625
v -0.000379 0.457142 -0.150374
v -0.000359 0.454969 -0.135780
v -0.000340 0.451956 -0.121836
v -0.000321 0.448100 -0.108536
v -0.000302 0.443396 -0.095873
v -0.000284 0.437841 -0.083839
v -0.000267 0.431432 -0.072427
v -0.000250 0.424165 -0.061632
v -0.000233 0.416037 -0.051445
v -0.000217 0.407043 -0.041860
v -0.000202 0.397182 -0.032870
v -0.000164 0.300183 -0.033390
v -0.000183 0.312411 -0.044216
v -0.000202 0.323491 -0.055312
v -0.000220 0.333440 -0.066650
v -0.000239 0.342276 -0.078202
v -0.000257 0.350016 -0.089941
v -0.000275 0.356676 -0.101838
v -0.000293 0.362275 -0.113866
v -0.000311 0.366829 -0.125997
v -0.000328 0.370356 -0.138203
v -0.000345 0.372873 -0.150455
v -0.000362 0.374396 -0.162728
v -0.000378 0.374944 -0.174991
v -0.000395 0.374528 -0.187931
v -0.000410 0.373114 -0.199751
v -0.000423 0.370665 -0.210452
v -0.000434 0.367148 -0.220033
v -0.000443 0.362528 -0.228496
v -0.000450 0.356770 -0.235839
v -0.000456 0.349839 -0.242064
v -0.000459 0.341701 -0.247170
v -0.000460 0.332321 -0.251158
v -0.000460 0.321664 -0.254028
v -0.000457 0.309695 -0.255780
v -0.000453 0.296380 -0.256414
v -0.000444 0.272380 -0.256542
v -0.000329 0.243957 -0.177694
v -0.000303 0.237303 -0.159594
v -0.000277 0.230396 -0.141433
v -0.000250 0.223025 -0.123524
v -0.000224 0.214980 -0.106181
v -0.000199 0.206051 -0.089719
v -0.000175 0.196027 -0.074449
v -0.000153 0.184699 -0.060687
v -0.000132 0.171857 -0.048745
v -0.000114 0.157289 -0.038938
v -0.000097 0.140787 -0.031579
v -0.000084 0.122140 -0.026981
v -0.000074 0.101138 -0.025458
v -0.000069 0.086795 -0.026439
v -0.000067 0.072871 -0.029174
v -0.000068 0.059525 -0.033587
v -0.000070 0.046917 -0.039601
v -0.000076 0.035206 -0.047137
v -0.000083 0.024551 -0.056119
v -0.000093 0.015113 -0.066470
v -0.000105 0.007049 -0.078111
v -0.000119 0.000519 -0.090967
v -0.000135 -0.004317 -0.104960
v -0.000154 -0.007300 -0.120012
v -0.000174 -0.008270 -0.136046
v -0.000188 -0.007902 -0.146293
v -0.000201 -0.006906 -0.156530
v -0.000215 -0.005277 -0.166749
v -0.000230 -0.003014 -0.176944
v -0.000244 -0.000112 -0.187108
v -0.000259 0.003433 -0.197234
v -0.000273 0.007623 -0.207315
v -0.000288 0.012462 -0.217343
v -0.000304 0.017954 -0.227313
v -0.000319 0.024101 -0.237217
v -0.000335 0.030908 -0.247047
v -0.000350 0.038378 -0.256798
v -0.000350 0.030763 -0.259112
v -0.000351 0.023887 -0.261982
v -0.000353 0.017737 -0.265424
v -0.000356 0.012297 -0.269456
v -0.000360 0.007556 -0.274096
v -0.000366 0.003499 -0.279360
v -0.000372 0.000111 -0.285267
v -0.000380 -0.002620 -0.291833
v -0.000388 -0.004708 -0.299076
v -0.000398 -0.006168 -0.307014
v -0.000409 -0.007013 -0.315664
v -0.000421 -0.007257 -0.325043
v -0.000430 -0.007047 -0.331833
v -0.000439 -0.006468 -0.338285
v -0.000447 -0.005480 -0.344518
v -0.000456 -0.004045 -0.350656
v -0.000465 -0.002124 -0.356819
v -0.000474 0.000323 -0.363128
v -0.000484 0.003333 -0.369705
v -0.000494 0.006947 -0.376672
v -0.000505 0.011201 -0.384148
v -0.000518 0.016137 -0.392257
v -0.000532 0.021791 -0.401118
v -0.000547 0.028204 -0.410854
v -0.000373 0.092383 -0.257508
v -0.000363 0.086791 -0.251496
v -0.000353 0.081591 -0.245399
v -0.000343 0.076800 -0.239216
v -0.000333 0.072436 -0.232948
v -0.000323 0.068516 -0.226594
v -0.000313 0.065057 -0.220154
v -0.000303 0.062077 -0.213628
v -0.000294 0.059593 -0.207016
v -0.000284 0.057622 -0.200319
v -0.000275 0.056182 -0.193535
v -0.000266 0.055291 -0.186664
v -0.000256 0.054965 -0.179708
v -0.000245 0.055449 -0.170673
v -0.000234 0.056968 -0.162109
v -0.000225 0.059468 -0.154074
v -0.000216 0.062899 -0.146628
v -0.000209 0.067208 -0.139829
v -0.000203 0.072343 -0.133739
v -0.000199 0.078254 -0.128415
v -0.000196 0.084888 -0.123917
v -0.000194 0.092194 -0.120304
v -0.000193 0.100119 -0.117636
v -0.000195 0.108611 -0.115972
v -0.000198 0.117621 -0.115371
v -0.000204 0.130331 -0.116645
v -0.000214 0.142023 -0.120480
v -0.000226 0.152791 -0.126682
v -0.000241 0.162727 -0.135055
v -0.000258 0.171923 -0.145404
v -0.000278 0.180473 -0.157534
v -0.000299 0.188468 -0.171251
v -0.000321 0.196002 -0.186358
v -0.000346 0.203168 -0.202663
v -0.000371 0.210058 -0.219969
v -0.000397 0.216765 -0.238081
v -0.000424 0.223381 -0.256805
usemtl None
s off
f 39 37 38
f 40 37 39
f 40 36 37
f 41 36 40
f 42 36 41
f 42 35 36
f 43 35 42
f 43 34 35
f 44 34 43
f 45 34 44
f 45 33 34
f 46 33 45
f 46 32 33
f 47 32 46
f 48 32 47
f 48 31 32
f 49 31 48
f 49 30 31
f 50 30 49
f 51 52 50
f 52 53 50
f 53 54 50
f 54 55 50
f 55 56 50
f 56 57 50
f 57 58 50
f 58 59 50
f 59 60 50
f 60 61 50
f 61 30 50
f 61 62 30
f 62 63 30
f 63 29 30
f 63 64 29
f 64 28 29
f 65 28 64
f 66 28 65
f 67 28 66
f 68 28 67
f 69 28 68
f 69 27 28
f 70 27 69
f 71 27 70
f 72 27 71
f 72 26 27
f 73 26 72
f 74 26 73
f 74 25 26
f 75 25 74
f 76 25 75
f 77 174 76
f 174 25 76
f 78 174 77
f 79 174 78
f 80 174 79
f 81 174 80
f 81 173 174
f 138 25 174
f 81 172 173
f 82 172 81
f 82 171 172
f 83 171 82
f 83 170 171
f 84 170 83
f 84 169 170
f 84 168 169
f 85 168 84
f 85 167 168
f 86 167 85
f 86 166 167
f 86 165 166
f 87 165 86
f 87 164 165
f 87 163 164
f 88 163 87
f 88 162 163
f 89 162 88
f 89 161 162
f 89 160 161
f 90 160 89
f 90 159 160
f 90 158 159
f 139 25 138
f 91 158 90
f 140 25 139
f 91 157 158
f 141 25 140
f 2 137 1
f 141 24 25
f 91 156 157
f 3 137 2
f 142 24 141
f 142 23 24
f 4 137 3
f 92 156 91
f 92 155 156
f 142 22 23
f 143 22 142
f 5 137 4
f 143 21 22
f 144 21 143
f 6 137 5
f 92 154 155
f 144 20 21
f 7 137 6
f 145 20 144
f 145 19 20
f 8 137 7
f 92 153 154
f 145 18 19
f 146 18 145
f 9 137 8
f 146 17 18
f 93 153 92
f 10 137 9
f 93 152 153
f 147 17 146
f 147 16 17
f 11 137 10
f 147 15 16
f 12 137 11
f 148 15 147
f 148 14 15
f 13 137 12
f 148 13 14
f 93 151 152
f 148 137 13
f 149 137 148
f 93 150 151
f 150 137 149
f 93 113 150
f 113 137 150
f 94 113 93
f 94 112 113
f 114 137 113
f 95 112 94
f 95 111 112
f 115 137 114
f 115 136 137
f 96 111 95
f 96 110 111
f 116 136 115
f 116 135 136
f 96 109 110
f 117 135 116
f 97 109 96
f 117 134 135
f 97 108 109
f 118 134 117
f 118 133 134
f 98 108 97
f 98 107 108
f 119 133 118
f 119 132 133
f 98 106 107
f 120 132 119
f 120 131 132
f 99 106 98
f 99 105 106
f 121 131 120
f 121 130 131
f 99 104 105
f 121 129 130
f 122 129 121
f 100 104 99
f 122 128 129
f 100 103 104
f 123 128 122
f 123 127 128
f 100 102 103
f 124 127 123
f 101 102 100
f 124 126 127
f 125 126 124
