# Blender v2.73 (sub 0) OBJ File: 'b.blend'
# www.blender.org
mtllib g.mtl
o B
v -0.000726 0.451252 -0.418585
v -0.000485 0.450259 -0.233588
v -0.000446 0.448886 -0.204320
v -0.000409 0.445141 -0.177082
v -0.000374 0.439103 -0.151975
v -0.000341 0.430847 -0.129098
v -0.000310 0.420451 -0.108552
v -0.000281 0.407991 -0.090438
v -0.000255 0.393545 -0.074855
v -0.000232 0.377189 -0.061903
v -0.000211 0.359001 -0.051684
v -0.000193 0.339057 -0.044297
v -0.000179 0.317435 -0.039843
v -0.000168 0.294210 -0.038422
v -0.000165 0.286065 -0.038633
v -0.000162 0.278131 -0.039175
v -0.000160 0.270406 -0.040050
v -0.000159 0.262892 -0.041257
v -0.000158 0.255587 -0.042796
v -0.000158 0.248493 -0.044668
v -0.000158 0.241609 -0.046871
v -0.000158 0.234935 -0.049407
v -0.000160 0.228471 -0.052275
v -0.000161 0.222217 -0.055475
v -0.000163 0.216174 -0.059008
v -0.000166 0.210340 -0.062872
v -0.000170 0.204468 -0.067321
v -0.000174 0.198806 -0.072101
v -0.000178 0.193354 -0.077214
v -0.000183 0.188113 -0.082659
v -0.000189 0.183081 -0.088436
v -0.000195 0.178260 -0.094545
v -0.000201 0.173648 -0.100986
v -0.000208 0.169247 -0.107760
v -0.000216 0.165056 -0.114866
v -0.000224 0.161075 -0.122304
v -0.000233 0.157304 -0.130075
v -0.000242 0.153743 -0.138177
v -0.000241 0.151743 -0.138188
v -0.000226 0.148881 -0.127773
v -0.000212 0.145436 -0.118032
v -0.000199 0.141446 -0.109008
v -0.000186 0.136950 -0.100748
v -0.000174 0.131986 -0.093296
v -0.000164 0.126592 -0.086697
v -0.000154 0.120807 -0.080996
v -0.000145 0.114670 -0.076238
v -0.000138 0.108218 -0.072467
v -0.000132 0.101491 -0.069730
v -0.000127 0.094527 -0.068070
v -0.000123 0.087364 -0.067532
v -0.000121 0.082405 -0.067852
v -0.000121 0.077523 -0.068766
v -0.000121 0.072706 -0.070283
v -0.000122 0.067945 -0.072414
v -0.000123 0.063229 -0.075171
v -0.000126 0.058547 -0.078562
v -0.000129 0.053890 -0.082599
v -0.000134 0.049247 -0.087293
v -0.000139 0.044607 -0.092653
v -0.000145 0.039961 -0.098690
v -0.000152 0.035297 -0.105415
v -0.000159 0.030606 -0.112837
v -0.000133 0.025335 -0.094257
v -0.000109 0.019217 -0.077444
v -0.000086 0.012225 -0.062373
v -0.000066 0.004337 -0.049014
v -0.000047 -0.004473 -0.037342
v -0.000030 -0.014229 -0.027327
v -0.000015 -0.024955 -0.018942
v -0.000001 -0.036676 -0.012160
v 0.000011 -0.049417 -0.006953
v 0.000021 -0.063201 -0.003293
v 0.000030 -0.078053 -0.001153
v 0.000037 -0.093999 -0.000504
v 0.000042 -0.113260 -0.002370
v 0.000043 -0.131466 -0.007636
v 0.000038 -0.148494 -0.016125
v 0.000030 -0.164224 -0.027659
v 0.000017 -0.178537 -0.042061
v -0.000001 -0.191310 -0.059152
v -0.000022 -0.202425 -0.078755
v -0.000047 -0.211759 -0.100693
v -0.000075 -0.219193 -0.124787
v -0.000107 -0.224606 -0.150860
v -0.000142 -0.227877 -0.178734
v -0.000180 -0.228886 -0.208231
v -0.000222 -0.227600 -0.240335
v -0.000263 -0.224142 -0.270090
v -0.000300 -0.218580 -0.297411
v -0.000336 -0.210978 -0.322210
v -0.000369 -0.201405 -0.344402
v -0.000399 -0.189926 -0.363899
v -0.000426 -0.176607 -0.380615
v -0.000450 -0.161516 -0.394464
v -0.000471 -0.144718 -0.405360
v -0.000488 -0.126281 -0.413215
v -0.000503 -0.106269 -0.417944
v -0.000513 -0.084751 -0.419460
v -0.000518 -0.070685 -0.418660
v -0.000520 -0.057036 -0.416349
v -0.000520 -0.043882 -0.412429
v -0.000518 -0.031300 -0.406803
v -0.000513 -0.019366 -0.399376
v -0.000505 -0.008158 -0.390049
v -0.000495 0.002248 -0.378727
v -0.000481 0.011775 -0.365312
v -0.000464 0.020345 -0.349708
v -0.000444 0.027882 -0.331818
v -0.000420 0.034309 -0.311545
v -0.000392 0.039550 -0.288792
v -0.000366 0.043879 -0.267166
v -0.000342 0.048138 -0.247347
v -0.000320 0.052372 -0.229347
v -0.000301 0.056626 -0.213181
v -0.000284 0.060945 -0.198861
v -0.000269 0.065376 -0.186402
v -0.000257 0.069962 -0.175817
v -0.000248 0.074749 -0.167120
v -0.000241 0.079783 -0.160324
v -0.000237 0.085108 -0.155444
v -0.000235 0.090770 -0.152492
v -0.000236 0.096814 -0.151483
v -0.000244 0.108411 -0.153856
v -0.000256 0.117118 -0.160689
v -0.000273 0.123561 -0.171339
v -0.000293 0.128365 -0.185166
v -0.000316 0.132155 -0.201525
v -0.000341 0.135556 -0.219776
v -0.000368 0.139192 -0.239275
v -0.000396 0.143690 -0.259381
v -0.000424 0.149673 -0.279451
v -0.000453 0.157767 -0.298843
v -0.000481 0.168598 -0.316915
v -0.000507 0.182789 -0.333024
v -0.000517 0.188509 -0.338231
v -0.000526 0.195048 -0.343361
v -0.000535 0.202309 -0.348341
v -0.000545 0.210193 -0.353099
v -0.000554 0.218604 -0.357563
v -0.000563 0.227443 -0.361660
v -0.000571 0.236613 -0.365317
v -0.000579 0.246017 -0.368463
v -0.000586 0.255556 -0.371025
v -0.000592 0.265134 -0.372930
v -0.000598 0.274652 -0.374106
v -0.000602 0.284013 -0.374481
v -0.000605 0.293254 -0.374176
v -0.000608 0.302030 -0.373334
v -0.000609 0.310421 -0.371918
v -0.000610 0.318507 -0.369889
v -0.000609 0.326367 -0.367208
v -0.000608 0.334081 -0.363838
v -0.000606 0.341729 -0.359738
v -0.000603 0.349390 -0.354871
v -0.000598 0.357144 -0.349198
v -0.000593 0.365070 -0.342681
v -0.000587 0.373249 -0.335279
v -0.000579 0.381759 -0.326956
v -0.000699 0.382253 -0.418955
v -0.000502 0.294584 -0.294424
v -0.000496 0.282634 -0.293750
v -0.000489 0.271332 -0.291650
v -0.000480 0.260753 -0.288199
v -0.000470 0.250969 -0.283472
v -0.000459 0.242053 -0.277547
v -0.000446 0.234079 -0.270498
v -0.000433 0.227121 -0.262402
v -0.000419 0.221251 -0.253335
v -0.000404 0.216543 -0.243373
v -0.000389 0.213070 -0.232592
v -0.000373 0.210906 -0.221067
v -0.000356 0.210123 -0.208876
v -0.000340 0.210731 -0.195758
v -0.000324 0.212658 -0.183445
v -0.000311 0.215848 -0.172001
v -0.000299 0.220240 -0.161487
v -0.000288 0.225776 -0.151968
v -0.000280 0.232398 -0.143505
v -0.000274 0.240047 -0.136162
v -0.000269 0.248664 -0.130001
v -0.000266 0.258190 -0.125085
v -0.000266 0.268568 -0.121478
v -0.000267 0.279737 -0.119241
v -0.000271 0.291640 -0.118437
v -0.000276 0.302480 -0.119194
v -0.000284 0.312934 -0.121513
v -0.000293 0.322895 -0.125285
v -0.000303 0.332260 -0.130405
v -0.000315 0.340923 -0.136764
v -0.000328 0.348779 -0.144256
v -0.000341 0.355724 -0.152774
v -0.000356 0.361653 -0.162210
v -0.000371 0.366462 -0.172458
v -0.000387 0.370045 -0.183411
v -0.000403 0.372298 -0.194961
v -0.000419 0.373116 -0.207001
v -0.000434 0.372445 -0.218590
v -0.000448 0.370372 -0.229780
v -0.000460 0.366998 -0.240456
v -0.000472 0.362423 -0.250504
v -0.000482 0.356746 -0.259807
v -0.000490 0.350069 -0.268251
v -0.000497 0.342490 -0.275720
v -0.000502 0.334111 -0.282100
v -0.000505 0.325030 -0.287276
v -0.000506 0.315349 -0.291132
v -0.000505 0.305166 -0.293553
v -0.000398 -0.092212 -0.333499
v -0.000393 -0.102109 -0.332602
v -0.000386 -0.111283 -0.329833
v -0.000376 -0.119710 -0.325240
v -0.000365 -0.127365 -0.318873
v -0.000352 -0.134224 -0.310779
v -0.000336 -0.140262 -0.301007
v -0.000320 -0.145455 -0.289605
v -0.000301 -0.149778 -0.276622
v -0.000281 -0.153206 -0.262107
v -0.000259 -0.155714 -0.246107
v -0.000235 -0.157280 -0.228672
v -0.000211 -0.157877 -0.209850
v -0.000185 -0.157483 -0.190372
v -0.000162 -0.156091 -0.172455
v -0.000142 -0.153712 -0.156124
v -0.000124 -0.150355 -0.141401
v -0.000109 -0.146031 -0.128312
v -0.000096 -0.140750 -0.116882
v -0.000086 -0.134523 -0.107133
v -0.000078 -0.127359 -0.099092
v -0.000073 -0.119270 -0.092782
v -0.000071 -0.110264 -0.088227
v -0.000071 -0.100354 -0.085452
v -0.000074 -0.089548 -0.084482
v -0.000079 -0.079803 -0.085290
v -0.000086 -0.070604 -0.087769
v -0.000095 -0.062008 -0.091834
v -0.000105 -0.054071 -0.097403
v -0.000117 -0.046848 -0.104392
v -0.000131 -0.040396 -0.112718
v -0.000146 -0.034770 -0.122299
v -0.000162 -0.030027 -0.133052
v -0.000178 -0.026223 -0.144893
v -0.000196 -0.023413 -0.157739
v -0.000215 -0.021654 -0.171507
v -0.000234 -0.021002 -0.186115
v -0.000253 -0.021253 -0.200563
v -0.000273 -0.022216 -0.216108
v -0.000293 -0.023989 -0.232304
v -0.000314 -0.026666 -0.248702
v -0.000333 -0.030345 -0.264856
v -0.000352 -0.035122 -0.280317
v -0.000368 -0.041092 -0.294639
v -0.000382 -0.048352 -0.307375
v -0.000392 -0.056998 -0.318076
v -0.000399 -0.067126 -0.326295
v -0.000401 -0.078832 -0.331585
usemtl None
s off
f 3 1 2
f 3 160 1
f 4 160 3
f 5 160 4
f 6 160 5
f 7 160 6
f 8 160 7
f 9 160 8
f 10 159 9
f 159 160 9
f 10 158 159
f 11 196 10
f 196 197 10
f 197 158 10
f 198 158 197
f 198 157 158
f 199 157 198
f 11 195 196
f 200 157 199
f 11 194 195
f 201 157 200
f 11 193 194
f 201 156 157
f 202 156 201
f 11 192 193
f 12 192 11
f 203 156 202
f 203 155 156
f 12 191 192
f 204 155 203
f 12 190 191
f 204 154 155
f 205 154 204
f 12 189 190
f 205 153 154
f 13 189 12
f 206 153 205
f 206 152 153
f 13 188 189
f 206 151 152
f 207 151 206
f 13 187 188
f 14 187 13
f 207 150 151
f 208 150 207
f 14 186 187
f 208 149 150
f 161 149 208
f 14 185 186
f 161 148 149
f 15 185 14
f 162 148 161
f 162 147 148
f 15 184 185
f 16 184 15
f 162 146 147
f 163 146 162
f 16 183 184
f 17 183 16
f 163 145 146
f 18 183 17
f 164 145 163
f 18 182 183
f 164 144 145
f 19 182 18
f 165 144 164
f 19 181 182
f 20 181 19
f 165 143 144
f 166 143 165
f 21 181 20
f 21 180 181
f 166 142 143
f 22 180 21
f 167 142 166
f 22 179 180
f 23 179 22
f 167 141 142
f 168 141 167
f 23 178 179
f 24 178 23
f 169 141 168
f 169 140 141
f 24 177 178
f 25 177 24
f 170 140 169
f 25 176 177
f 170 139 140
f 26 176 25
f 171 139 170
f 26 175 176
f 172 139 171
f 26 174 175
f 27 174 26
f 173 139 172
f 27 173 174
f 27 139 173
f 27 138 139
f 28 138 27
f 28 137 138
f 29 137 28
f 29 136 137
f 30 136 29
f 31 136 30
f 31 135 136
f 32 135 31
f 32 134 135
f 33 134 32
f 34 134 33
f 35 134 34
f 35 133 134
f 36 133 35
f 37 133 36
f 38 133 37
f 38 132 133
f 39 132 38
f 40 132 39
f 41 132 40
f 41 131 132
f 42 131 41
f 42 130 131
f 43 130 42
f 43 129 130
f 44 129 43
f 44 128 129
f 45 128 44
f 45 127 128
f 45 126 127
f 46 126 45
f 46 125 126
f 47 125 46
f 47 124 125
f 48 124 47
f 49 124 48
f 49 123 124
f 50 123 49
f 50 122 123
f 51 122 50
f 51 121 122
f 52 121 51
f 52 120 121
f 53 120 52
f 53 119 120
f 54 119 53
f 54 118 119
f 55 118 54
f 55 117 118
f 56 117 55
f 56 116 117
f 57 116 56
f 57 115 116
f 58 115 57
f 58 114 115
f 59 114 58
f 59 113 114
f 60 113 59
f 60 112 113
f 61 112 60
f 61 111 112
f 62 111 61
f 62 110 111
f 63 110 62
f 63 109 110
f 64 109 63
f 64 108 109
f 65 108 64
f 66 108 65
f 66 107 108
f 67 107 66
f 67 106 107
f 68 106 67
f 68 105 106
f 69 105 68
f 69 104 105
f 70 245 69
f 245 104 69
f 245 246 104
f 246 103 104
f 70 244 245
f 247 103 246
f 70 243 244
f 248 103 247
f 70 242 243
f 71 242 70
f 249 103 248
f 71 241 242
f 250 103 249
f 71 240 241
f 251 103 250
f 251 102 103
f 71 239 240
f 252 102 251
f 72 239 71
f 72 238 239
f 253 102 252
f 253 101 102
f 72 237 238
f 73 237 72
f 254 101 253
f 73 236 237
f 255 101 254
f 255 100 101
f 73 235 236
f 74 235 73
f 256 100 255
f 74 234 235
f 256 99 100
f 75 234 74
f 75 233 234
f 209 99 256
f 209 98 99
f 75 232 233
f 76 232 75
f 210 98 209
f 76 231 232
f 211 98 210
f 211 97 98
f 76 230 231
f 212 97 211
f 77 230 76
f 77 229 230
f 213 97 212
f 77 228 229
f 213 96 97
f 214 96 213
f 78 228 77
f 78 227 228
f 215 96 214
f 78 226 227
f 216 96 215
f 78 225 226
f 216 95 96
f 217 95 216
f 79 225 78
f 79 224 225
f 218 95 217
f 79 223 224
f 219 95 218
f 79 222 223
f 220 95 219
f 79 221 222
f 221 95 220
f 79 95 221
f 79 94 95
f 80 94 79
f 80 93 94
f 81 93 80
f 82 93 81
f 82 92 93
f 83 92 82
f 83 91 92
f 84 91 83
f 84 90 91
f 85 90 84
f 85 89 90
f 86 89 85
f 86 88 89
f 87 88 86
