# Blender v2.73 (sub 0) OBJ File: 'b.blend'
# www.blender.org
mtllib h.mtl
o B
v -0.000464 0.682795 -0.146339
v -0.000348 0.682317 -0.057340
v -0.000080 0.000327 -0.060999
v -0.000196 0.000805 -0.149998
v -0.000322 0.322800 -0.148270
v -0.000340 0.334007 -0.158492
v -0.000357 0.344042 -0.168328
v -0.000373 0.352943 -0.177843
v -0.000388 0.360750 -0.187104
v -0.000403 0.367499 -0.196176
v -0.000417 0.373231 -0.205126
v -0.000430 0.377983 -0.214017
v -0.000443 0.381794 -0.222918
v -0.000456 0.384703 -0.231892
v -0.000469 0.386747 -0.241007
v -0.000482 0.387967 -0.250328
v -0.000494 0.388400 -0.259920
v -0.000511 0.387586 -0.273000
v -0.000526 0.385045 -0.285207
v -0.000539 0.380846 -0.296492
v -0.000550 0.375059 -0.306807
v -0.000559 0.367752 -0.316102
v -0.000567 0.358995 -0.324329
v -0.000572 0.348857 -0.331437
v -0.000575 0.337407 -0.337380
v -0.000576 0.324715 -0.342106
v -0.000575 0.310849 -0.345569
v -0.000572 0.295879 -0.347717
v -0.000566 0.279873 -0.348503
v -0.000457 0.001877 -0.349995
v -0.000573 0.002355 -0.438993
v -0.000682 0.277351 -0.437518
v -0.000691 0.306783 -0.436030
v -0.000697 0.333586 -0.431994
v -0.000698 0.357772 -0.425555
v -0.000695 0.379353 -0.416859
v -0.000689 0.398338 -0.406053
v -0.000679 0.414741 -0.393280
v -0.000665 0.428570 -0.378689
v -0.000649 0.439839 -0.362423
v -0.000629 0.448558 -0.344630
v -0.000606 0.454738 -0.325454
v -0.000581 0.458391 -0.305042
v -0.000554 0.459528 -0.283539
v -0.000537 0.458944 -0.271051
v -0.000520 0.457343 -0.258624
v -0.000503 0.454750 -0.246314
v -0.000486 0.451189 -0.234175
v -0.000469 0.446684 -0.222264
v -0.000451 0.441261 -0.210636
v -0.000434 0.434944 -0.199345
v -0.000417 0.427758 -0.188449
v -0.000400 0.419726 -0.178001
v -0.000383 0.410875 -0.168057
v -0.000367 0.401228 -0.158674
v -0.000352 0.390810 -0.149906
v -0.000349 0.390799 -0.147906
usemtl None
s off
f 3 1 2
f 3 57 1
f 45 43 44
f 46 43 45
f 46 42 43
f 47 42 46
f 48 42 47
f 48 41 42
f 49 41 48
f 49 40 41
f 50 40 49
f 51 40 50
f 51 39 40
f 52 39 51
f 53 39 52
f 53 38 39
f 54 38 53
f 54 37 38
f 55 37 54
f 56 37 55
f 56 17 37
f 17 36 37
f 3 56 57
f 3 5 56
f 5 6 56
f 6 7 56
f 7 8 56
f 8 9 56
f 9 10 56
f 10 11 56
f 11 12 56
f 12 13 56
f 13 14 56
f 14 15 56
f 15 16 56
f 16 17 56
f 18 36 17
f 19 36 18
f 20 36 19
f 21 36 20
f 21 35 36
f 22 35 21
f 23 35 22
f 24 35 23
f 24 34 35
f 25 34 24
f 26 34 25
f 26 33 34
f 27 33 26
f 3 4 5
f 28 33 27
f 28 32 33
f 29 32 28
f 30 32 29
f 30 31 32
