# Blender v2.73 (sub 0) OBJ File: 'b.blend'
# www.blender.org
mtllib j.mtl
o B
v -0.000438 0.585844 -0.155859
v -0.000440 0.592977 -0.155332
v -0.000441 0.599829 -0.153872
v -0.000440 0.606337 -0.151546
v -0.000438 0.612435 -0.148420
v -0.000436 0.618056 -0.144561
v -0.000432 0.623135 -0.140034
v -0.000427 0.627607 -0.134906
v -0.000421 0.631406 -0.129244
v -0.000414 0.634466 -0.123114
v -0.000407 0.636723 -0.116581
v -0.000398 0.638109 -0.109713
v -0.000389 0.638559 -0.102576
v -0.000380 0.638032 -0.095444
v -0.000370 0.636572 -0.088591
v -0.000361 0.634246 -0.082083
v -0.000351 0.631120 -0.075986
v -0.000343 0.627261 -0.070365
v -0.000334 0.622734 -0.065285
v -0.000326 0.617606 -0.060813
v -0.000319 0.611944 -0.057014
v -0.000313 0.605814 -0.053954
v -0.000307 0.599281 -0.051698
v -0.000303 0.592413 -0.050312
v -0.000299 0.585276 -0.049861
v -0.000297 0.578144 -0.050388
v -0.000296 0.571291 -0.051848
v -0.000297 0.564783 -0.054174
v -0.000298 0.558686 -0.057300
v -0.000301 0.553065 -0.061159
v -0.000305 0.547985 -0.065686
v -0.000310 0.543513 -0.070814
v -0.000316 0.539714 -0.076476
v -0.000322 0.536654 -0.082607
v -0.000330 0.534398 -0.089139
v -0.000338 0.533012 -0.096007
v -0.000347 0.532561 -0.103144
v -0.000357 0.533088 -0.110277
v -0.000367 0.534548 -0.117129
v -0.000376 0.536874 -0.123637
v -0.000385 0.540000 -0.129735
v -0.000394 0.543859 -0.135356
v -0.000402 0.548386 -0.140435
v -0.000410 0.553514 -0.144907
v -0.000418 0.559176 -0.148706
v -0.000424 0.565307 -0.151766
v -0.000430 0.571839 -0.154022
v -0.000434 0.578707 -0.155409
v -0.000372 0.449798 -0.147589
v -0.000256 0.449321 -0.058590
v -0.000054 -0.065672 -0.061353
v -0.000048 -0.077801 -0.060845
v -0.000042 -0.089193 -0.059225
v -0.000034 -0.099854 -0.056552
v -0.000025 -0.109792 -0.052886
v -0.000015 -0.119012 -0.048286
v -0.000005 -0.127522 -0.042810
v 0.000006 -0.135328 -0.036518
v 0.000019 -0.142437 -0.029468
v 0.000031 -0.148854 -0.021721
v 0.000044 -0.154588 -0.013334
v 0.000058 -0.159644 -0.004367
v 0.000072 -0.164030 0.005120
v 0.000011 -0.229669 -0.062233
v -0.000011 -0.221340 -0.076334
v -0.000031 -0.212413 -0.089219
v -0.000050 -0.202743 -0.100886
v -0.000068 -0.192183 -0.111329
v -0.000085 -0.180589 -0.120544
v -0.000101 -0.167813 -0.128527
v -0.000115 -0.153711 -0.135274
v -0.000128 -0.138136 -0.140780
v -0.000141 -0.120942 -0.145041
v -0.000152 -0.101985 -0.148054
v -0.000163 -0.081118 -0.149813
v -0.000173 -0.058195 -0.150314
usemtl None
s off
f 51 49 50
f 51 76 49
f 51 75 76
f 52 75 51
f 53 75 52
f 53 74 75
f 54 74 53
f 55 74 54
f 55 73 74
f 56 73 55
f 57 73 56
f 57 72 73
f 58 72 57
f 59 72 58
f 59 71 72
f 60 71 59
f 61 71 60
f 61 70 71
f 62 70 61
f 63 70 62
f 64 70 63
f 64 69 70
f 64 68 69
f 64 67 68
f 64 66 67
f 64 65 66
f 14 12 13
f 14 11 12
f 15 11 14
f 15 10 11
f 16 10 15
f 16 9 10
f 17 9 16
f 17 8 9
f 18 8 17
f 18 7 8
f 19 7 18
f 19 6 7
f 20 6 19
f 20 5 6
f 21 5 20
f 21 4 5
f 22 4 21
f 22 3 4
f 23 3 22
f 23 2 3
f 24 2 23
f 24 1 2
f 25 1 24
f 26 1 25
f 26 48 1
f 26 47 48
f 27 47 26
f 27 46 47
f 28 46 27
f 28 45 46
f 29 45 28
f 29 44 45
f 30 44 29
f 30 43 44
f 31 43 30
f 31 42 43
f 32 42 31
f 32 41 42
f 33 41 32
f 33 40 41
f 34 40 33
f 34 39 40
f 35 39 34
f 35 38 39
f 36 38 35
f 36 37 38
