# Blender v2.73 (sub 0) OBJ File: 'b.blend'
# www.blender.org
mtllib o.mtl
o B
v -0.000537 0.459458 -0.270539
v -0.000493 0.457240 -0.237738
v -0.000450 0.451110 -0.206499
v -0.000407 0.441316 -0.177072
v -0.000366 0.428106 -0.149705
v -0.000327 0.411727 -0.124647
v -0.000290 0.392429 -0.102146
v -0.000256 0.370457 -0.082451
v -0.000224 0.346062 -0.065811
v -0.000196 0.319489 -0.052474
v -0.000172 0.290988 -0.042690
v -0.000152 0.260805 -0.036706
v -0.000137 0.229190 -0.034771
v -0.000126 0.195529 -0.036979
v -0.000122 0.163687 -0.043095
v -0.000123 0.133879 -0.052908
v -0.000129 0.106320 -0.066208
v -0.000140 0.081222 -0.082788
v -0.000157 0.058800 -0.102436
v -0.000179 0.039269 -0.124944
v -0.000205 0.022842 -0.150102
v -0.000236 0.009735 -0.177700
v -0.000271 0.000159 -0.207530
v -0.000310 -0.005669 -0.239381
v -0.000353 -0.007535 -0.273044
v -0.000400 -0.005377 -0.308064
v -0.000445 0.000598 -0.341001
v -0.000489 0.010213 -0.371669
v -0.000531 0.023293 -0.399880
v -0.000571 0.039666 -0.425449
v -0.000608 0.059155 -0.448189
v -0.000643 0.081586 -0.467912
v -0.000674 0.106785 -0.484434
v -0.000703 0.134577 -0.497566
v -0.000727 0.164787 -0.507123
v -0.000748 0.197241 -0.512918
v -0.000764 0.231765 -0.514764
v -0.000774 0.264198 -0.512501
v -0.000778 0.294863 -0.506217
v -0.000776 0.323557 -0.496130
v -0.000769 0.350074 -0.482462
v -0.000757 0.374213 -0.465431
v -0.000739 0.395769 -0.445258
v -0.000716 0.414538 -0.422162
v -0.000689 0.430318 -0.396364
v -0.000657 0.442903 -0.368082
v -0.000621 0.452090 -0.337538
v -0.000581 0.457677 -0.304950
v -0.000504 0.379454 -0.269968
v -0.000532 0.378280 -0.291681
v -0.000557 0.374611 -0.312231
v -0.000580 0.368580 -0.331480
v -0.000600 0.360323 -0.349294
v -0.000617 0.349974 -0.365535
v -0.000631 0.337669 -0.380069
v -0.000642 0.323540 -0.392758
v -0.000649 0.307724 -0.403466
v -0.000654 0.290355 -0.412057
v -0.000654 0.271568 -0.418396
v -0.000651 0.251497 -0.422346
v -0.000645 0.230276 -0.423770
v -0.000634 0.206804 -0.422681
v -0.000621 0.184941 -0.419208
v -0.000605 0.164767 -0.413434
v -0.000587 0.146362 -0.405443
v -0.000567 0.129807 -0.395316
v -0.000546 0.115182 -0.383137
v -0.000522 0.102567 -0.368989
v -0.000497 0.092043 -0.352955
v -0.000471 0.083689 -0.335118
v -0.000443 0.077587 -0.315560
v -0.000413 0.073817 -0.294365
v -0.000383 0.072458 -0.271615
v -0.000356 0.073640 -0.250689
v -0.000332 0.077347 -0.230986
v -0.000311 0.083470 -0.212618
v -0.000292 0.091903 -0.195695
v -0.000276 0.102539 -0.180330
v -0.000263 0.115270 -0.166634
v -0.000254 0.129991 -0.154719
v -0.000247 0.146593 -0.144697
v -0.000244 0.164970 -0.136679
v -0.000245 0.185014 -0.130778
v -0.000248 0.206619 -0.127104
v -0.000256 0.229678 -0.125770
v -0.000266 0.250682 -0.126906
v -0.000278 0.270602 -0.130458
v -0.000293 0.289298 -0.136294
v -0.000311 0.306630 -0.144283
v -0.000330 0.322460 -0.154294
v -0.000351 0.336646 -0.166196
v -0.000374 0.349051 -0.179858
v -0.000398 0.359533 -0.195148
v -0.000424 0.367955 -0.211935
v -0.000450 0.374175 -0.230088
v -0.000477 0.378054 -0.249476
usemtl None
s off
f 2 48 1
f 2 47 48
f 3 47 2
f 3 46 47
f 4 46 3
f 4 45 46
f 5 45 4
f 5 44 45
f 6 44 5
f 6 43 44
f 7 43 6
f 7 42 43
f 8 49 7
f 49 42 7
f 8 96 49
f 50 42 49
f 8 95 96
f 51 42 50
f 8 94 95
f 52 42 51
f 52 41 42
f 9 94 8
f 9 93 94
f 53 41 52
f 9 92 93
f 54 41 53
f 9 91 92
f 55 41 54
f 55 40 41
f 10 91 9
f 10 90 91
f 56 40 55
f 10 89 90
f 57 40 56
f 57 39 40
f 11 89 10
f 11 88 89
f 58 39 57
f 58 38 39
f 12 88 11
f 12 87 88
f 59 38 58
f 12 86 87
f 60 38 59
f 60 37 38
f 13 86 12
f 13 85 86
f 61 37 60
f 14 85 13
f 14 84 85
f 61 36 37
f 62 36 61
f 14 83 84
f 63 36 62
f 15 83 14
f 63 35 36
f 15 82 83
f 64 35 63
f 15 81 82
f 16 81 15
f 65 35 64
f 65 34 35
f 16 80 81
f 66 34 65
f 17 80 16
f 66 33 34
f 17 79 80
f 67 33 66
f 17 78 79
f 68 33 67
f 18 78 17
f 68 32 33
f 18 77 78
f 69 32 68
f 18 76 77
f 70 32 69
f 18 75 76
f 71 32 70
f 19 75 18
f 71 31 32
f 19 74 75
f 72 31 71
f 19 73 74
f 73 31 72
f 19 31 73
f 20 31 19
f 20 30 31
f 21 30 20
f 21 29 30
f 22 29 21
f 22 28 29
f 23 28 22
f 23 27 28
f 24 27 23
f 24 26 27
f 25 26 24
