# Blender v2.73 (sub 0) OBJ File: 'b.blend'
# www.blender.org
mtllib p.mtl
o B
v -0.000195 0.011783 -0.145939
v -0.000205 0.008493 -0.154316
v -0.000214 0.005529 -0.162431
v -0.000223 0.002882 -0.170315
v -0.000232 0.000547 -0.177999
v -0.000241 -0.001483 -0.185516
v -0.000250 -0.003215 -0.192895
v -0.000259 -0.004657 -0.200168
v -0.000268 -0.005814 -0.207367
v -0.000277 -0.006693 -0.214523
v -0.000286 -0.007302 -0.221667
v -0.000295 -0.007646 -0.228831
v -0.000305 -0.007734 -0.236045
v -0.000348 -0.005613 -0.268459
v -0.000390 0.000266 -0.299072
v -0.000431 0.009711 -0.327687
v -0.000471 0.022529 -0.354106
v -0.000509 0.038529 -0.378134
v -0.000544 0.057519 -0.399572
v -0.000577 0.079306 -0.418224
v -0.000607 0.103699 -0.433894
v -0.000634 0.130506 -0.446384
v -0.000658 0.159534 -0.455498
v -0.000677 0.190591 -0.461038
v -0.000693 0.223486 -0.462807
v -0.000705 0.259052 -0.460770
v -0.000710 0.291723 -0.455089
v -0.000710 0.321458 -0.445813
v -0.000704 0.348216 -0.432990
v -0.000692 0.371956 -0.416669
v -0.000675 0.392635 -0.396899
v -0.000651 0.410212 -0.373729
v -0.000623 0.424646 -0.347208
v -0.000588 0.435896 -0.317385
v -0.000548 0.443920 -0.284308
v -0.000503 0.448677 -0.248026
v -0.000452 0.450125 -0.208588
v -0.000251 0.449299 -0.054590
v 0.000016 -0.229691 -0.058233
v -0.000100 -0.229214 -0.147232
v -0.000336 0.369778 -0.144018
v -0.000442 0.370212 -0.225017
v -0.000471 0.369221 -0.248272
v -0.000498 0.366021 -0.269535
v -0.000521 0.360664 -0.288803
v -0.000540 0.353202 -0.306072
v -0.000557 0.343689 -0.321338
v -0.000569 0.332175 -0.334598
v -0.000579 0.318712 -0.345846
v -0.000584 0.303353 -0.355081
v -0.000587 0.286151 -0.362298
v -0.000586 0.267156 -0.367493
v -0.000582 0.246421 -0.370663
v -0.000574 0.223998 -0.371803
v -0.000565 0.202744 -0.370689
v -0.000552 0.182579 -0.367197
v -0.000537 0.163644 -0.361455
v -0.000520 0.146084 -0.353592
v -0.000500 0.130041 -0.343734
v -0.000479 0.115658 -0.332009
v -0.000457 0.103078 -0.318546
v -0.000433 0.092444 -0.303471
v -0.000408 0.083900 -0.286913
v -0.000382 0.077588 -0.268999
v -0.000355 0.073651 -0.249858
v -0.000328 0.072233 -0.229616
v -0.000319 0.072340 -0.222596
v -0.000310 0.072736 -0.215543
v -0.000301 0.073416 -0.208468
v -0.000292 0.074378 -0.201381
v -0.000284 0.075617 -0.194293
v -0.000275 0.077130 -0.187214
v -0.000267 0.078915 -0.180154
v -0.000258 0.080967 -0.173124
v -0.000250 0.083283 -0.166134
v -0.000242 0.085860 -0.159194
v -0.000234 0.088694 -0.152316
v -0.000226 0.091782 -0.145510
usemtl None
s off
f 39 41 38
f 41 37 38
f 41 36 37
f 41 35 36
f 41 34 35
f 41 33 34
f 41 32 33
f 41 31 32
f 41 30 31
f 41 42 30
f 42 43 30
f 43 29 30
f 39 78 41
f 44 29 43
f 45 29 44
f 46 29 45
f 47 29 46
f 47 28 29
f 48 28 47
f 49 28 48
f 49 27 28
f 50 27 49
f 51 27 50
f 51 26 27
f 52 26 51
f 53 26 52
f 53 25 26
f 54 25 53
f 55 25 54
f 55 24 25
f 56 24 55
f 56 23 24
f 57 23 56
f 58 23 57
f 58 22 23
f 59 22 58
f 60 22 59
f 60 21 22
f 61 21 60
f 61 20 21
f 62 20 61
f 39 77 78
f 63 20 62
f 39 76 77
f 39 75 76
f 39 1 75
f 1 74 75
f 64 20 63
f 1 73 74
f 1 72 73
f 64 19 20
f 65 19 64
f 1 71 72
f 1 70 71
f 1 69 70
f 66 19 65
f 1 68 69
f 1 67 68
f 1 66 67
f 1 19 66
f 1 18 19
f 1 17 18
f 1 16 17
f 39 40 1
f 2 16 1
f 2 15 16
f 3 15 2
f 4 15 3
f 5 15 4
f 6 15 5
f 6 14 15
f 7 14 6
f 8 14 7
f 9 14 8
f 10 14 9
f 10 13 14
f 11 13 10
f 12 13 11
