# Blender v2.73 (sub 0) OBJ File: 'b.blend'
# www.blender.org
mtllib s.mtl
o B
v -0.000589 0.422732 -0.321737
v -0.000576 0.428649 -0.310036
v -0.000563 0.434029 -0.298495
v -0.000550 0.438874 -0.287103
v -0.000537 0.443190 -0.275848
v -0.000524 0.446978 -0.264722
v -0.000511 0.450242 -0.253713
v -0.000498 0.452987 -0.242811
v -0.000485 0.455214 -0.232006
v -0.000471 0.456928 -0.221286
v -0.000458 0.458132 -0.210642
v -0.000444 0.458829 -0.200064
v -0.000431 0.459023 -0.189540
v -0.000402 0.457957 -0.167727
v -0.000374 0.455038 -0.147348
v -0.000348 0.450321 -0.128492
v -0.000323 0.443862 -0.111250
v -0.000299 0.435719 -0.095711
v -0.000277 0.425946 -0.081966
v -0.000257 0.414600 -0.070104
v -0.000239 0.401736 -0.060216
v -0.000223 0.387412 -0.052391
v -0.000210 0.371682 -0.046720
v -0.000198 0.354603 -0.043292
v -0.000189 0.336231 -0.042197
v -0.000184 0.307769 -0.046482
v -0.000189 0.282607 -0.058040
v -0.000202 0.260330 -0.075417
v -0.000223 0.240525 -0.097155
v -0.000248 0.222776 -0.121800
v -0.000276 0.206671 -0.147893
v -0.000304 0.191795 -0.173980
v -0.000330 0.177735 -0.198605
v -0.000353 0.164075 -0.220310
v -0.000370 0.150402 -0.237641
v -0.000379 0.136302 -0.249140
v -0.000379 0.121361 -0.253352
v -0.000375 0.113670 -0.252783
v -0.000370 0.106598 -0.251043
v -0.000364 0.100145 -0.248216
v -0.000356 0.094312 -0.244386
v -0.000348 0.089099 -0.239636
v -0.000339 0.084507 -0.234050
v -0.000329 0.080535 -0.227710
v -0.000319 0.077185 -0.220700
v -0.000308 0.074457 -0.213103
v -0.000296 0.072351 -0.205004
v -0.000285 0.070867 -0.196484
v -0.000273 0.070007 -0.187627
v -0.000261 0.070354 -0.178278
v -0.000248 0.071496 -0.168258
v -0.000235 0.073440 -0.157608
v -0.000221 0.076194 -0.146371
v -0.000207 0.079764 -0.134588
v -0.000193 0.084157 -0.122300
v -0.000179 0.089382 -0.109550
v -0.000164 0.095444 -0.096378
v -0.000149 0.102352 -0.082827
v -0.000134 0.110112 -0.068938
v -0.000119 0.118732 -0.054753
v -0.000104 0.128218 -0.040313
v -0.000066 0.032219 -0.040828
v -0.000082 0.025187 -0.055069
v -0.000097 0.018915 -0.068774
v -0.000112 0.013378 -0.082039
v -0.000127 0.008547 -0.094955
v -0.000142 0.004394 -0.107619
v -0.000157 0.000894 -0.120122
v -0.000172 -0.001981 -0.132559
v -0.000187 -0.004259 -0.145025
v -0.000203 -0.005967 -0.157612
v -0.000219 -0.007132 -0.170416
v -0.000236 -0.007782 -0.183529
v -0.000254 -0.007943 -0.197045
v -0.000281 -0.006743 -0.217807
v -0.000308 -0.003434 -0.237499
v -0.000335 0.001889 -0.255978
v -0.000360 0.009132 -0.273103
v -0.000384 0.018200 -0.288732
v -0.000406 0.028999 -0.302724
v -0.000427 0.041435 -0.314935
v -0.000446 0.055412 -0.325226
v -0.000463 0.070837 -0.333453
v -0.000478 0.087614 -0.339474
v -0.000490 0.105649 -0.343149
v -0.000499 0.124849 -0.344335
v -0.000503 0.136052 -0.343701
v -0.000505 0.146739 -0.341875
v -0.000505 0.157023 -0.338787
v -0.000503 0.167018 -0.334368
v -0.000499 0.176840 -0.328547
v -0.000494 0.186601 -0.321253
v -0.000486 0.196416 -0.312418
v -0.000476 0.206401 -0.301971
v -0.000465 0.216667 -0.289842
v -0.000451 0.227331 -0.275960
v -0.000435 0.238505 -0.260256
v -0.000417 0.250305 -0.242661
v -0.000396 0.261257 -0.223861
v -0.000379 0.271364 -0.207042
v -0.000363 0.280691 -0.192137
v -0.000349 0.289298 -0.179080
v -0.000338 0.297248 -0.167804
v -0.000328 0.304603 -0.158243
v -0.000321 0.311425 -0.150331
v -0.000315 0.317777 -0.144001
v -0.000311 0.323720 -0.139187
v -0.000309 0.329317 -0.135823
v -0.000308 0.334629 -0.133843
v -0.000310 0.339719 -0.133179
v -0.000312 0.345570 -0.133621
v -0.000316 0.351099 -0.134989
v -0.000321 0.356273 -0.137247
v -0.000327 0.361054 -0.140361
v -0.000334 0.365410 -0.144297
v -0.000342 0.369305 -0.149021
v -0.000351 0.372703 -0.154497
v -0.000360 0.375571 -0.160691
v -0.000370 0.377873 -0.167569
v -0.000380 0.379574 -0.175096
v -0.000391 0.380640 -0.183237
v -0.000403 0.381035 -0.191959
v -0.000414 0.380786 -0.200495
v -0.000425 0.379940 -0.209580
v -0.000437 0.378478 -0.219176
v -0.000449 0.376383 -0.229243
v -0.000462 0.373638 -0.239745
v -0.000475 0.370225 -0.250642
v -0.000488 0.366126 -0.261898
v -0.000501 0.361324 -0.273473
v -0.000514 0.355801 -0.285329
v -0.000528 0.349540 -0.297430
v -0.000541 0.342523 -0.309736
v -0.000554 0.334733 -0.322209
usemtl None
s off
f 14 12 13
f 14 11 12
f 15 11 14
f 15 10 11
f 15 9 10
f 16 9 15
f 16 8 9
f 16 7 8
f 17 7 16
f 17 6 7
f 17 5 6
f 18 5 17
f 18 4 5
f 18 3 4
f 19 3 18
f 19 2 3
f 19 1 2
f 20 1 19
f 20 126 1
f 126 127 1
f 127 128 1
f 128 129 1
f 129 130 1
f 130 131 1
f 131 132 1
f 132 133 1
f 133 134 1
f 21 124 20
f 124 125 20
f 125 126 20
f 22 123 21
f 123 124 21
f 23 121 22
f 121 122 22
f 122 123 22
f 23 120 121
f 23 119 120
f 23 118 119
f 23 117 118
f 23 116 117
f 24 116 23
f 24 115 116
f 24 114 115
f 24 113 114
f 24 112 113
f 25 112 24
f 25 111 112
f 25 110 111
f 25 109 110
f 26 109 25
f 26 108 109
f 26 107 108
f 26 106 107
f 26 105 106
f 26 104 105
f 27 104 26
f 27 103 104
f 27 102 103
f 27 101 102
f 28 101 27
f 28 100 101
f 28 99 100
f 28 98 99
f 29 98 28
f 29 97 98
f 30 97 29
f 30 96 97
f 30 95 96
f 31 95 30
f 31 94 95
f 32 94 31
f 32 93 94
f 32 92 93
f 33 92 32
f 33 91 92
f 34 91 33
f 34 90 91
f 34 89 90
f 35 89 34
f 35 88 89
f 36 88 35
f 36 87 88
f 37 87 36
f 37 86 87
f 62 60 61
f 37 85 86
f 38 85 37
f 62 59 60
f 39 85 38
f 62 58 59
f 40 85 39
f 40 84 85
f 62 57 58
f 41 84 40
f 62 56 57
f 42 84 41
f 62 55 56
f 43 84 42
f 43 83 84
f 62 54 55
f 44 83 43
f 45 83 44
f 62 53 54
f 46 83 45
f 62 52 53
f 47 83 46
f 62 51 52
f 48 83 47
f 62 50 51
f 49 83 48
f 62 49 50
f 49 82 83
f 62 82 49
f 62 81 82
f 62 80 81
f 63 80 62
f 63 79 80
f 64 79 63
f 65 79 64
f 65 78 79
f 66 78 65
f 67 78 66
f 67 77 78
f 68 77 67
f 68 76 77
f 69 76 68
f 70 76 69
f 70 75 76
f 71 75 70
f 72 75 71
f 72 74 75
f 73 74 72
