# Blender v2.73 (sub 0) OBJ File: 'b.blend'
# www.blender.org
mtllib t.mtl
o B
v -0.000431 0.542888 -0.164090
v -0.000149 0.378995 0.002033
v -0.000145 0.368995 0.001980
v -0.000247 0.369413 -0.076019
v -0.000154 0.132416 -0.077291
v -0.000147 0.112632 -0.078417
v -0.000144 0.093869 -0.081576
v -0.000144 0.076263 -0.086764
v -0.000147 0.059949 -0.093976
v -0.000153 0.045063 -0.103208
v -0.000162 0.031739 -0.114456
v -0.000175 0.020114 -0.127716
v -0.000191 0.010323 -0.142984
v -0.000210 0.002500 -0.160254
v -0.000233 -0.003218 -0.179524
v -0.000259 -0.006696 -0.200789
v -0.000289 -0.007798 -0.224045
v -0.000299 -0.007492 -0.231668
v -0.000310 -0.006671 -0.239956
v -0.000322 -0.005369 -0.248782
v -0.000335 -0.003616 -0.258023
v -0.000348 -0.001445 -0.267553
v -0.000362 0.001112 -0.277248
v -0.000376 0.004024 -0.286982
v -0.000390 0.007258 -0.296632
v -0.000403 0.010783 -0.306071
v -0.000417 0.014566 -0.315176
v -0.000430 0.018576 -0.323821
v -0.000442 0.022781 -0.331882
v -0.000475 0.105779 -0.331437
v -0.000461 0.100461 -0.322527
v -0.000447 0.095601 -0.313732
v -0.000434 0.091200 -0.305046
v -0.000422 0.087258 -0.296462
v -0.000409 0.083775 -0.287972
v -0.000397 0.080751 -0.279571
v -0.000385 0.078185 -0.271250
v -0.000373 0.076079 -0.263003
v -0.000362 0.074430 -0.254823
v -0.000351 0.073241 -0.246703
v -0.000340 0.072510 -0.238636
v -0.000330 0.072238 -0.230616
v -0.000321 0.072528 -0.223893
v -0.000312 0.073521 -0.216840
v -0.000304 0.075297 -0.209630
v -0.000295 0.077939 -0.202436
v -0.000287 0.081526 -0.195432
v -0.000281 0.086139 -0.188790
v -0.000275 0.091859 -0.182684
v -0.000271 0.098767 -0.177287
v -0.000268 0.106944 -0.172772
v -0.000267 0.116470 -0.169313
v -0.000269 0.127426 -0.167081
v -0.000273 0.139894 -0.166252
v -0.000363 0.369890 -0.165018
v -0.000549 0.370652 -0.307016
v -0.000580 0.450651 -0.306587
v -0.000395 0.449889 -0.164589
usemtl None
s off
f 2 58 1
f 2 57 58
f 2 56 57
f 3 56 2
f 4 56 3
f 5 55 4
f 55 56 4
f 5 54 55
f 5 53 54
f 6 53 5
f 6 52 53
f 6 51 52
f 7 51 6
f 7 50 51
f 31 29 30
f 32 29 31
f 7 49 50
f 33 29 32
f 8 49 7
f 8 48 49
f 34 29 33
f 35 29 34
f 8 47 48
f 36 29 35
f 8 46 47
f 37 29 36
f 8 45 46
f 38 29 37
f 9 45 8
f 39 29 38
f 9 44 45
f 40 29 39
f 9 43 44
f 41 29 40
f 9 42 43
f 42 29 41
f 9 29 42
f 10 29 9
f 11 29 10
f 12 29 11
f 12 28 29
f 13 28 12
f 13 27 28
f 13 26 27
f 14 26 13
f 14 25 26
f 14 24 25
f 14 23 24
f 15 23 14
f 15 22 23
f 15 21 22
f 16 21 15
f 16 20 21
f 16 19 20
f 17 19 16
f 17 18 19
