# Blender v2.73 (sub 0) OBJ File: 'FontA.blend'
# www.blender.org
mtllib A.mtl
o A
v -0.000742 0.687932 -0.358314
v -0.000652 0.687562 -0.289315
v 0.000000 0.000000 0.000000
v -0.000131 0.000536 -0.099998
v -0.000322 0.201995 -0.184919
v -0.000701 0.203550 -0.474914
v -0.000741 0.003041 -0.566991
v -0.000871 0.003578 -0.666990
v -0.000636 0.537741 -0.323120
v -0.000683 0.291335 -0.434443
v -0.000406 0.290197 -0.222446
usemtl None
s off
f 3 1 2
f 3 9 1
f 9 8 1
f 3 11 9
f 10 8 9
f 3 5 11
f 5 10 11
f 5 6 10
f 6 8 10
f 3 4 5
f 7 8 6
