# Blender v2.73 (sub 0) OBJ File: 'M.blend'
# www.blender.org
mtllib M.mtl
o A
v -0.001194 0.685793 -0.705331
v -0.001075 0.685305 -0.614332
v -0.000669 0.404092 -0.388838
v -0.000483 0.682875 -0.161339
v -0.000363 0.682382 -0.069340
v -0.000095 0.000392 -0.072999
v -0.000223 0.000917 -0.170997
v -0.000432 0.531910 -0.168149
v -0.000435 0.531920 -0.170149
v -0.000605 0.269051 -0.381562
v -0.000626 0.269136 -0.397562
v -0.001004 0.534259 -0.606142
v -0.001007 0.534270 -0.608142
v -0.000798 0.003277 -0.610991
v -0.000926 0.003803 -0.708989
usemtl None
s off
f 6 4 5
f 6 8 4
f 8 9 4
f 9 3 4
f 3 1 2
f 3 12 1
f 12 13 1
f 13 15 1
f 6 7 8
f 10 3 9
f 3 11 12
f 14 15 13
f 10 11 3
