# Blender v2.73 (sub 0) OBJ File: 'X.blend'
# www.blender.org
mtllib X.mtl
o A
v -0.001165 0.685675 -0.683331
v -0.001011 0.685042 -0.565333
v -0.000631 0.423904 -0.353731
v -0.000453 0.682752 -0.138339
v -0.000298 0.682114 -0.019341
v -0.000525 0.354583 -0.294102
v -0.000003 0.000011 -0.002000
v -0.000158 0.000649 -0.120998
v -0.000576 0.283906 -0.354482
v -0.000768 0.003154 -0.587991
v -0.000922 0.003787 -0.705989
v -0.000681 0.355221 -0.413100
usemtl None
s off
f 6 4 5
f 6 3 4
f 3 1 2
f 3 12 1
f 6 12 3
f 7 12 6
f 7 9 12
f 9 11 12
f 7 8 9
f 10 11 9
