# Blender v2.73 (sub 0) OBJ File: 'b.blend'
# www.blender.org
mtllib c.mtl
o B
v -0.000681 0.429102 -0.390703
v -0.000669 0.433646 -0.380081
v -0.000657 0.437883 -0.369707
v -0.000646 0.441794 -0.359494
v -0.000634 0.445362 -0.349356
v -0.000622 0.448568 -0.339206
v -0.000610 0.451396 -0.328958
v -0.000597 0.453827 -0.318524
v -0.000584 0.455843 -0.307818
v -0.000570 0.457427 -0.296753
v -0.000555 0.458560 -0.285243
v -0.000540 0.459225 -0.273200
v -0.000524 0.459404 -0.260539
v -0.000480 0.457292 -0.227612
v -0.000437 0.451415 -0.196914
v -0.000397 0.441911 -0.168569
v -0.000358 0.428920 -0.142701
v -0.000321 0.412582 -0.119434
v -0.000286 0.393036 -0.098893
v -0.000254 0.370422 -0.081201
v -0.000225 0.344880 -0.066484
v -0.000198 0.316549 -0.054865
v -0.000175 0.285568 -0.046469
v -0.000155 0.252078 -0.041419
v -0.000138 0.216217 -0.039841
v -0.000128 0.184071 -0.041940
v -0.000124 0.153758 -0.047759
v -0.000125 0.125464 -0.057109
v -0.000131 0.099376 -0.069801
v -0.000142 0.075679 -0.085647
v -0.000158 0.054561 -0.104459
v -0.000179 0.036208 -0.126047
v -0.000204 0.020806 -0.150224
v -0.000234 0.008542 -0.176800
v -0.000268 -0.000397 -0.205588
v -0.000306 -0.005826 -0.236399
v -0.000348 -0.007557 -0.269044
v -0.000364 -0.007249 -0.280980
v -0.000380 -0.006474 -0.293201
v -0.000396 -0.005267 -0.305579
v -0.000413 -0.003665 -0.317987
v -0.000430 -0.001702 -0.330295
v -0.000447 0.000587 -0.342377
v -0.000463 0.003165 -0.354102
v -0.000479 0.005997 -0.365343
v -0.000494 0.009048 -0.375972
v -0.000508 0.012283 -0.385861
v -0.000521 0.015666 -0.394880
v -0.000533 0.019161 -0.402903
v -0.000568 0.107160 -0.402431
v -0.000551 0.102309 -0.391388
v -0.000536 0.097877 -0.380679
v -0.000520 0.093862 -0.370267
v -0.000506 0.090266 -0.360113
v -0.000492 0.087088 -0.350179
v -0.000478 0.084327 -0.340427
v -0.000464 0.081984 -0.330819
v -0.000451 0.080058 -0.321316
v -0.000438 0.078549 -0.311880
v -0.000425 0.077457 -0.302473
v -0.000413 0.076781 -0.293057
v -0.000400 0.076522 -0.283593
v -0.000372 0.077558 -0.261270
v -0.000346 0.080869 -0.240366
v -0.000323 0.086390 -0.220977
v -0.000303 0.094054 -0.203202
v -0.000286 0.103798 -0.187138
v -0.000272 0.115554 -0.172882
v -0.000261 0.129258 -0.160533
v -0.000254 0.144845 -0.150188
v -0.000250 0.162248 -0.141944
v -0.000250 0.181403 -0.135899
v -0.000253 0.202244 -0.132151
v -0.000260 0.224705 -0.130796
v -0.000271 0.246818 -0.131826
v -0.000283 0.267585 -0.135090
v -0.000298 0.286898 -0.140478
v -0.000315 0.304650 -0.147886
v -0.000333 0.320730 -0.157206
v -0.000354 0.335033 -0.168330
v -0.000375 0.347448 -0.181152
v -0.000398 0.357869 -0.195564
v -0.000422 0.366186 -0.211460
v -0.000447 0.372292 -0.228733
v -0.000473 0.376079 -0.247275
v -0.000499 0.377438 -0.266979
v -0.000512 0.377273 -0.276638
v -0.000524 0.376642 -0.286169
v -0.000536 0.375498 -0.295646
v -0.000547 0.373790 -0.305147
v -0.000559 0.371473 -0.314749
v -0.000571 0.368496 -0.324528
v -0.000582 0.364813 -0.334560
v -0.000594 0.360374 -0.344923
v -0.000606 0.355132 -0.355693
v -0.000618 0.349038 -0.366947
v -0.000631 0.342045 -0.378762
v -0.000644 0.334103 -0.391213
usemtl None
s off
f 14 12 13
f 14 11 12
f 14 10 11
f 15 10 14
f 15 9 10
f 15 8 9
f 15 7 8
f 16 7 15
f 16 6 7
f 16 5 6
f 16 4 5
f 17 4 16
f 17 3 4
f 17 2 3
f 17 1 2
f 18 1 17
f 18 90 1
f 90 91 1
f 91 92 1
f 92 93 1
f 93 94 1
f 94 95 1
f 95 96 1
f 96 97 1
f 97 98 1
f 19 88 18
f 88 89 18
f 89 90 18
f 20 86 19
f 86 87 19
f 87 88 19
f 20 85 86
f 20 84 85
f 20 83 84
f 21 83 20
f 21 82 83
f 21 81 82
f 21 80 81
f 22 80 21
f 22 79 80
f 22 78 79
f 23 78 22
f 23 77 78
f 23 76 77
f 24 76 23
f 24 75 76
f 25 75 24
f 25 74 75
f 25 73 74
f 26 73 25
f 26 72 73
f 27 72 26
f 27 71 72
f 27 70 71
f 28 70 27
f 28 69 70
f 28 68 69
f 29 68 28
f 29 67 68
f 51 49 50
f 29 66 67
f 52 49 51
f 30 66 29
f 53 49 52
f 30 65 66
f 54 49 53
f 55 49 54
f 56 49 55
f 30 64 65
f 57 49 56
f 58 49 57
f 30 63 64
f 59 49 58
f 60 49 59
f 30 62 63
f 61 49 60
f 31 62 30
f 62 49 61
f 31 49 62
f 32 49 31
f 33 49 32
f 34 49 33
f 34 48 49
f 34 47 48
f 34 46 47
f 35 46 34
f 35 45 46
f 35 44 45
f 35 43 44
f 35 42 43
f 36 42 35
f 36 41 42
f 36 40 41
f 36 39 40
f 37 39 36
f 37 38 39
