# Blender v2.73 (sub 0) OBJ File: 'b.blend'
# www.blender.org
mtllib d.mtl
o B
v -0.000857 0.684409 -0.447334
v -0.000741 0.683932 -0.358336
v -0.000646 0.441935 -0.359634
v -0.000635 0.444973 -0.350779
v -0.000625 0.447689 -0.342223
v -0.000616 0.450095 -0.333934
v -0.000606 0.452199 -0.325875
v -0.000596 0.454013 -0.318012
v -0.000587 0.455546 -0.310310
v -0.000578 0.456809 -0.302735
v -0.000568 0.457813 -0.295252
v -0.000559 0.458566 -0.287825
v -0.000549 0.459080 -0.280421
v -0.000540 0.459365 -0.273004
v -0.000530 0.459431 -0.265539
v -0.000488 0.457355 -0.233623
v -0.000446 0.451607 -0.203501
v -0.000406 0.442385 -0.175364
v -0.000367 0.429882 -0.149400
v -0.000330 0.414294 -0.125799
v -0.000295 0.395818 -0.104753
v -0.000263 0.374647 -0.086450
v -0.000233 0.350979 -0.071081
v -0.000207 0.325008 -0.058835
v -0.000184 0.296929 -0.049903
v -0.000165 0.266939 -0.044474
v -0.000150 0.235233 -0.042739
v -0.000138 0.200369 -0.044656
v -0.000132 0.167863 -0.049943
v -0.000131 0.137847 -0.058480
v -0.000136 0.110452 -0.070149
v -0.000145 0.085809 -0.084831
v -0.000159 0.064050 -0.102408
v -0.000178 0.045306 -0.122760
v -0.000202 0.029708 -0.145769
v -0.000230 0.017388 -0.171315
v -0.000263 0.008476 -0.199281
v -0.000301 0.003105 -0.229548
v -0.000342 0.001405 -0.261996
v -0.000589 0.002419 -0.450993
v -0.000502 0.076941 -0.361592
v -0.000385 0.076458 -0.271594
v -0.000354 0.077616 -0.247254
v -0.000327 0.081267 -0.225655
v -0.000304 0.087266 -0.206675
v -0.000286 0.095466 -0.190194
v -0.000272 0.105720 -0.176091
v -0.000261 0.117883 -0.164245
v -0.000254 0.131807 -0.154535
v -0.000250 0.147345 -0.146841
v -0.000250 0.164353 -0.141042
v -0.000252 0.182682 -0.137017
v -0.000256 0.202187 -0.134646
v -0.000264 0.222721 -0.133807
v -0.000274 0.245543 -0.134876
v -0.000287 0.266940 -0.138264
v -0.000302 0.286807 -0.143870
v -0.000320 0.305040 -0.151588
v -0.000339 0.321533 -0.161316
v -0.000360 0.336183 -0.172949
v -0.000383 0.348883 -0.186384
v -0.000407 0.359531 -0.201518
v -0.000432 0.368020 -0.218247
v -0.000458 0.374246 -0.236468
v -0.000485 0.378105 -0.256076
v -0.000513 0.379491 -0.276968
v -0.000523 0.379425 -0.284331
v -0.000532 0.379143 -0.291452
v -0.000541 0.378637 -0.298379
v -0.000549 0.377902 -0.305162
v -0.000557 0.376929 -0.311849
v -0.000566 0.375714 -0.318489
v -0.000574 0.374248 -0.325130
v -0.000582 0.372526 -0.331821
v -0.000590 0.370540 -0.338611
v -0.000598 0.368285 -0.345547
v -0.000606 0.365752 -0.352680
v -0.000615 0.362937 -0.360058
usemtl None
s off
f 3 1 2
f 3 40 1
f 16 14 15
f 16 13 14
f 16 12 13
f 16 11 12
f 16 10 11
f 17 10 16
f 17 9 10
f 17 8 9
f 17 7 8
f 18 7 17
f 18 6 7
f 18 5 6
f 18 4 5
f 18 3 4
f 19 3 18
f 19 75 3
f 75 76 3
f 76 77 3
f 77 78 3
f 78 40 3
f 20 72 19
f 72 73 19
f 73 74 19
f 74 75 19
f 21 69 20
f 69 70 20
f 70 71 20
f 71 72 20
f 22 66 21
f 66 67 21
f 67 68 21
f 68 69 21
f 22 65 66
f 22 64 65
f 23 64 22
f 23 63 64
f 23 62 63
f 41 40 78
f 23 61 62
f 24 61 23
f 24 60 61
f 24 59 60
f 25 59 24
f 25 58 59
f 25 57 58
f 26 57 25
f 26 56 57
f 27 56 26
f 27 55 56
f 27 54 55
f 28 54 27
f 28 53 54
f 28 52 53
f 29 52 28
f 29 51 52
f 30 51 29
f 30 50 51
f 30 49 50
f 31 49 30
f 31 48 49
f 31 47 48
f 32 47 31
f 32 46 47
f 32 45 46
f 32 44 45
f 33 44 32
f 33 43 44
f 33 42 43
f 33 41 42
f 33 40 41
f 34 40 33
f 35 40 34
f 36 40 35
f 37 40 36
f 38 40 37
f 39 40 38
