# Blender v2.73 (sub 0) OBJ File: 'b.blend'
# www.blender.org
mtllib f.mtl
o B
v -0.000655 0.683578 -0.292337
v -0.000632 0.688154 -0.273366
v -0.000610 0.691140 -0.255481
v -0.000588 0.692602 -0.238631
v -0.000568 0.692612 -0.222769
v -0.000547 0.691238 -0.207844
v -0.000528 0.688550 -0.193809
v -0.000509 0.684615 -0.180613
v -0.000491 0.679505 -0.168209
v -0.000473 0.673287 -0.156546
v -0.000456 0.666031 -0.145577
v -0.000439 0.657807 -0.135252
v -0.000423 0.648683 -0.125522
v -0.000408 0.639488 -0.116887
v -0.000394 0.629908 -0.108900
v -0.000380 0.619804 -0.101583
v -0.000367 0.609037 -0.094956
v -0.000355 0.597468 -0.089043
v -0.000343 0.584958 -0.083863
v -0.000332 0.571370 -0.079439
v -0.000321 0.556563 -0.075793
v -0.000311 0.540399 -0.072946
v -0.000302 0.522740 -0.070919
v -0.000292 0.503446 -0.069734
v -0.000283 0.482379 -0.069413
v -0.000270 0.449380 -0.069590
v -0.000188 0.449042 -0.006591
v -0.000157 0.369043 -0.007020
v -0.000239 0.369381 -0.070019
v -0.000094 0.000386 -0.071999
v -0.000210 0.000864 -0.160998
v -0.000355 0.369858 -0.159018
v -0.000461 0.370293 -0.240017
v -0.000493 0.450292 -0.239588
v -0.000387 0.449857 -0.158589
v -0.000404 0.492857 -0.158358
v -0.000411 0.509538 -0.158763
v -0.000419 0.525048 -0.160223
v -0.000428 0.539334 -0.162828
v -0.000438 0.552346 -0.166669
v -0.000450 0.564032 -0.171836
v -0.000462 0.574340 -0.178421
v -0.000476 0.583219 -0.186514
v -0.000492 0.590617 -0.196205
v -0.000509 0.596481 -0.207584
v -0.000528 0.600762 -0.220743
v -0.000549 0.603407 -0.235772
v -0.000571 0.604364 -0.252761
v -0.000576 0.604342 -0.256623
v -0.000581 0.604229 -0.260239
v -0.000585 0.604017 -0.263654
v -0.000590 0.603700 -0.266913
v -0.000593 0.603271 -0.270062
v -0.000597 0.602724 -0.273145
v -0.000601 0.602052 -0.276209
v -0.000605 0.601248 -0.279297
v -0.000608 0.600305 -0.282455
v -0.000612 0.599217 -0.285729
v -0.000616 0.597978 -0.289163
v -0.000620 0.596579 -0.292804
usemtl None
s off
f 6 4 5
f 6 3 4
f 7 3 6
f 7 2 3
f 8 2 7
f 8 1 2
f 9 1 8
f 9 60 1
f 10 60 9
f 11 60 10
f 12 60 11
f 13 57 12
f 57 58 12
f 58 59 12
f 59 60 12
f 14 55 13
f 55 56 13
f 56 57 13
f 15 53 14
f 53 54 14
f 54 55 14
f 16 52 15
f 52 53 15
f 17 49 16
f 49 50 16
f 50 51 16
f 51 52 16
f 18 48 17
f 48 49 17
f 18 47 48
f 18 46 47
f 18 45 46
f 19 45 18
f 19 44 45
f 19 43 44
f 20 43 19
f 20 42 43
f 20 41 42
f 21 41 20
f 21 40 41
f 22 40 21
f 22 39 40
f 23 39 22
f 23 38 39
f 23 37 38
f 24 37 23
f 24 36 37
f 25 36 24
f 25 35 36
f 26 35 25
f 28 26 27
f 28 35 26
f 28 34 35
f 28 33 34
f 29 33 28
f 30 32 29
f 32 33 29
f 30 31 32
