# Blender v2.73 (sub 0) OBJ File: 'b.blend'
# www.blender.org
mtllib i.mtl
o B
v -0.000378 0.449820 -0.151589
v -0.000261 0.449342 -0.062590
v -0.000085 0.000349 -0.064999
v -0.000201 0.000826 -0.153998
v -0.000443 0.585866 -0.159859
v -0.000445 0.592998 -0.159332
v -0.000446 0.599851 -0.157872
v -0.000445 0.606359 -0.155546
v -0.000444 0.612456 -0.152420
v -0.000441 0.618077 -0.148561
v -0.000437 0.623157 -0.144034
v -0.000432 0.627629 -0.138906
v -0.000426 0.631428 -0.133244
v -0.000420 0.634488 -0.127114
v -0.000412 0.636744 -0.120581
v -0.000403 0.638130 -0.113713
v -0.000394 0.638581 -0.106576
v -0.000385 0.638054 -0.099444
v -0.000375 0.636594 -0.092591
v -0.000366 0.634268 -0.086083
v -0.000357 0.631142 -0.079986
v -0.000348 0.627282 -0.074364
v -0.000339 0.622756 -0.069285
v -0.000332 0.617628 -0.064813
v -0.000324 0.611966 -0.061014
v -0.000318 0.605835 -0.057954
v -0.000312 0.599303 -0.055698
v -0.000308 0.592435 -0.054312
v -0.000304 0.585297 -0.053861
v -0.000302 0.578165 -0.054388
v -0.000301 0.571312 -0.055848
v -0.000302 0.564804 -0.058174
v -0.000303 0.558707 -0.061300
v -0.000306 0.553086 -0.065159
v -0.000310 0.548007 -0.069686
v -0.000315 0.543535 -0.074814
v -0.000321 0.539736 -0.080476
v -0.000328 0.536675 -0.086607
v -0.000335 0.534419 -0.093139
v -0.000344 0.533033 -0.100007
v -0.000353 0.532582 -0.107144
v -0.000362 0.533110 -0.114276
v -0.000372 0.534569 -0.121129
v -0.000381 0.536896 -0.127637
v -0.000390 0.540021 -0.133734
v -0.000399 0.543881 -0.139356
v -0.000408 0.548408 -0.144435
v -0.000416 0.553535 -0.148907
v -0.000423 0.559197 -0.152706
v -0.000429 0.565328 -0.155766
v -0.000435 0.571860 -0.158022
v -0.000439 0.578729 -0.159409
usemtl None
s off
f 18 16 17
f 18 15 16
f 19 15 18
f 19 14 15
f 20 14 19
f 20 13 14
f 21 13 20
f 21 12 13
f 22 12 21
f 22 11 12
f 23 11 22
f 23 10 11
f 24 10 23
f 24 9 10
f 25 9 24
f 25 8 9
f 26 8 25
f 26 7 8
f 27 7 26
f 27 6 7
f 28 6 27
f 28 5 6
f 29 5 28
f 30 5 29
f 30 52 5
f 30 51 52
f 31 51 30
f 31 50 51
f 32 50 31
f 32 49 50
f 33 49 32
f 33 48 49
f 34 48 33
f 34 47 48
f 35 47 34
f 35 46 47
f 36 46 35
f 36 45 46
f 37 45 36
f 37 44 45
f 38 44 37
f 38 43 44
f 39 43 38
f 39 42 43
f 40 42 39
f 40 41 42
f 3 1 2
f 3 4 1
