# Blender v2.73 (sub 0) OBJ File: 'b.blend'
# www.blender.org
mtllib m.mtl
o B
v -0.000253 0.449310 -0.056590
v -0.000077 0.000316 -0.058999
v -0.000193 0.000794 -0.147998
v -0.000321 0.326789 -0.146249
v -0.000337 0.336992 -0.155311
v -0.000352 0.346038 -0.164164
v -0.000367 0.353979 -0.172885
v -0.000381 0.360868 -0.181548
v -0.000395 0.366757 -0.190231
v -0.000408 0.371698 -0.199009
v -0.000421 0.375744 -0.207958
v -0.000435 0.378948 -0.217155
v -0.000448 0.381362 -0.226676
v -0.000462 0.383039 -0.236597
v -0.000476 0.384030 -0.246993
v -0.000490 0.384389 -0.257941
v -0.000504 0.383795 -0.268782
v -0.000517 0.381869 -0.279233
v -0.000529 0.378572 -0.289192
v -0.000539 0.373866 -0.298554
v -0.000548 0.367712 -0.307216
v -0.000555 0.360070 -0.315073
v -0.000560 0.350903 -0.322021
v -0.000564 0.340171 -0.327957
v -0.000565 0.327837 -0.332777
v -0.000564 0.313860 -0.336376
v -0.000561 0.298202 -0.338651
v -0.000555 0.280825 -0.339498
v -0.000445 0.001829 -0.340995
v -0.000562 0.002307 -0.429993
v -0.000690 0.328302 -0.428245
v -0.000704 0.336418 -0.436337
v -0.000718 0.344140 -0.444664
v -0.000732 0.351405 -0.453168
v -0.000745 0.358149 -0.461789
v -0.000759 0.364310 -0.470468
v -0.000773 0.369825 -0.479148
v -0.000786 0.374632 -0.487768
v -0.000799 0.378667 -0.496272
v -0.000811 0.381868 -0.504599
v -0.000822 0.384172 -0.512691
v -0.000833 0.385516 -0.520490
v -0.000843 0.385837 -0.527937
v -0.000859 0.385137 -0.540485
v -0.000874 0.382914 -0.552551
v -0.000887 0.379187 -0.564020
v -0.000899 0.373977 -0.574779
v -0.000909 0.367305 -0.584713
v -0.000918 0.359190 -0.593706
v -0.000924 0.349652 -0.601645
v -0.000929 0.338713 -0.608413
v -0.000931 0.326391 -0.613898
v -0.000931 0.312708 -0.617984
v -0.000928 0.297684 -0.620556
v -0.000923 0.281338 -0.621499
v -0.000814 0.003342 -0.622991
v -0.000930 0.003819 -0.711989
v -0.001041 0.285815 -0.710476
v -0.001049 0.311539 -0.709144
v -0.001054 0.335632 -0.705491
v -0.001056 0.357977 -0.699605
v -0.001053 0.378456 -0.691572
v -0.001048 0.396952 -0.681480
v -0.001038 0.413347 -0.669417
v -0.001026 0.427523 -0.655469
v -0.001010 0.439364 -0.639726
v -0.000991 0.448751 -0.622273
v -0.000969 0.455566 -0.603199
v -0.000944 0.459693 -0.582590
v -0.000915 0.461013 -0.560534
v -0.000895 0.460176 -0.544888
v -0.000874 0.457905 -0.529926
v -0.000854 0.454304 -0.515617
v -0.000834 0.449477 -0.501929
v -0.000815 0.443528 -0.488830
v -0.000796 0.436561 -0.476290
v -0.000777 0.428681 -0.464274
v -0.000758 0.419990 -0.452753
v -0.000740 0.410594 -0.441694
v -0.000722 0.400596 -0.431065
v -0.000705 0.390100 -0.420835
v -0.000688 0.379210 -0.410971
v -0.000682 0.391895 -0.403053
v -0.000676 0.403524 -0.394456
v -0.000668 0.414088 -0.385206
v -0.000659 0.423575 -0.375325
v -0.000649 0.431975 -0.364840
v -0.000637 0.439279 -0.353773
v -0.000624 0.445475 -0.342150
v -0.000611 0.450554 -0.329995
v -0.000596 0.454506 -0.317332
v -0.000580 0.457319 -0.304185
v -0.000563 0.458984 -0.290579
v -0.000544 0.459490 -0.276539
v -0.000530 0.458974 -0.266019
v -0.000516 0.457534 -0.255456
v -0.000501 0.455164 -0.244843
v -0.000486 0.451855 -0.234172
v -0.000470 0.447602 -0.223436
v -0.000454 0.442397 -0.212630
v -0.000438 0.436233 -0.201745
v -0.000420 0.429104 -0.190775
v -0.000403 0.421001 -0.179713
v -0.000385 0.411919 -0.168552
v -0.000366 0.401851 -0.157285
v -0.000347 0.390788 -0.145906
v -0.000370 0.449787 -0.145589
usemtl None
s off
f 95 93 94
f 71 69 70
f 96 93 95
f 96 92 93
f 72 69 71
f 72 68 69
f 97 92 96
f 97 91 92
f 73 68 72
f 98 91 97
f 98 90 91
f 73 67 68
f 74 67 73
f 99 90 98
f 2 107 1
f 2 106 107
f 99 89 90
f 75 67 74
f 100 89 99
f 75 66 67
f 100 88 89
f 101 88 100
f 76 66 75
f 101 87 88
f 76 65 66
f 102 87 101
f 77 65 76
f 102 86 87
f 103 86 102
f 78 65 77
f 78 64 65
f 103 85 86
f 104 85 103
f 79 64 78
f 104 84 85
f 105 84 104
f 79 63 64
f 80 63 79
f 105 83 84
f 106 83 105
f 81 63 80
f 81 43 63
f 43 62 63
f 2 4 106
f 4 5 106
f 5 6 106
f 6 7 106
f 7 8 106
f 8 9 106
f 9 10 106
f 10 11 106
f 11 12 106
f 12 13 106
f 13 14 106
f 14 15 106
f 15 83 106
f 15 16 83
f 16 82 83
f 82 42 81
f 42 43 81
f 17 82 16
f 44 62 43
f 82 41 42
f 18 82 17
f 45 62 44
f 82 40 41
f 19 82 18
f 46 62 45
f 82 39 40
f 20 82 19
f 20 39 82
f 47 62 46
f 20 38 39
f 47 61 62
f 21 38 20
f 21 37 38
f 48 61 47
f 21 36 37
f 22 36 21
f 49 61 48
f 22 35 36
f 23 35 22
f 50 61 49
f 23 34 35
f 50 60 61
f 24 34 23
f 24 33 34
f 51 60 50
f 24 32 33
f 25 32 24
f 52 60 51
f 25 31 32
f 52 59 60
f 26 31 25
f 2 3 4
f 26 30 31
f 53 59 52
f 27 30 26
f 54 59 53
f 54 58 59
f 28 30 27
f 55 58 54
f 55 57 58
f 29 30 28
f 56 57 55
