# Blender v2.73 (sub 0) OBJ File: 'b.blend'
# www.blender.org
mtllib r.mtl
o B
v -0.000267 0.449364 -0.066590
v -0.000090 0.000370 -0.068999
v -0.000206 0.000848 -0.157998
v -0.000299 0.235844 -0.156737
v -0.000307 0.254740 -0.157615
v -0.000318 0.272823 -0.160377
v -0.000331 0.289936 -0.164900
v -0.000345 0.305922 -0.171065
v -0.000361 0.320625 -0.178751
v -0.000378 0.333887 -0.187836
v -0.000397 0.345553 -0.198202
v -0.000416 0.355463 -0.209726
v -0.000435 0.363463 -0.222288
v -0.000455 0.369395 -0.235767
v -0.000475 0.373102 -0.250043
v -0.000495 0.374427 -0.264995
v -0.000502 0.374087 -0.270526
v -0.000510 0.373035 -0.276567
v -0.000518 0.371305 -0.283043
v -0.000526 0.368931 -0.289877
v -0.000534 0.365947 -0.296991
v -0.000542 0.362388 -0.304310
v -0.000550 0.358287 -0.311757
v -0.000558 0.353681 -0.319255
v -0.000566 0.348601 -0.326728
v -0.000573 0.343084 -0.334099
v -0.000580 0.337163 -0.341292
v -0.000586 0.330873 -0.348230
v -0.000678 0.408124 -0.394816
v -0.000669 0.416450 -0.385581
v -0.000661 0.424030 -0.376457
v -0.000652 0.430868 -0.367428
v -0.000642 0.436966 -0.358476
v -0.000633 0.442329 -0.349583
v -0.000623 0.446959 -0.340732
v -0.000613 0.450860 -0.331906
v -0.000603 0.454036 -0.323087
v -0.000592 0.456489 -0.314259
v -0.000582 0.458223 -0.305402
v -0.000570 0.459242 -0.296502
v -0.000559 0.459549 -0.287539
v -0.000545 0.458798 -0.277021
v -0.000530 0.456626 -0.266466
v -0.000515 0.452988 -0.255870
v -0.000499 0.447840 -0.245230
v -0.000482 0.441137 -0.234543
v -0.000465 0.432832 -0.223806
v -0.000447 0.422881 -0.213015
v -0.000428 0.411238 -0.202167
v -0.000409 0.397860 -0.191259
v -0.000388 0.382699 -0.180287
v -0.000367 0.365712 -0.169249
v -0.000345 0.346853 -0.158141
v -0.000342 0.346843 -0.156141
v -0.000383 0.449841 -0.155589
usemtl None
s off
f 42 40 41
f 42 39 40
f 43 39 42
f 43 38 39
f 44 38 43
f 44 37 38
f 44 36 37
f 45 36 44
f 45 35 36
f 2 55 1
f 2 54 55
f 46 35 45
f 46 34 35
f 46 33 34
f 47 33 46
f 47 32 33
f 48 32 47
f 48 31 32
f 48 30 31
f 49 30 48
f 49 29 30
f 50 29 49
f 50 19 29
f 19 20 29
f 20 21 29
f 21 22 29
f 22 23 29
f 23 24 29
f 24 25 29
f 25 26 29
f 26 27 29
f 27 28 29
f 51 17 50
f 17 18 50
f 18 19 50
f 52 15 51
f 15 16 51
f 16 17 51
f 52 14 15
f 52 13 14
f 53 13 52
f 53 12 13
f 53 11 12
f 2 53 54
f 2 7 53
f 7 8 53
f 8 9 53
f 9 10 53
f 10 11 53
f 2 6 7
f 2 5 6
f 2 4 5
f 2 3 4
