# Blender v2.73 (sub 0) OBJ File: 'b.blend'
# www.blender.org
mtllib u.mtl
o B
v -0.000571 0.002344 -0.436993
v -0.000747 0.451338 -0.434585
v -0.000631 0.450860 -0.345586
v -0.000505 0.129865 -0.347308
v -0.000491 0.119973 -0.339928
v -0.000478 0.110881 -0.332192
v -0.000464 0.102599 -0.324126
v -0.000450 0.095140 -0.315753
v -0.000436 0.088511 -0.307098
v -0.000422 0.082726 -0.298185
v -0.000408 0.077793 -0.289039
v -0.000394 0.073724 -0.279682
v -0.000381 0.070528 -0.270141
v -0.000367 0.068217 -0.260439
v -0.000354 0.066802 -0.250599
v -0.000340 0.066292 -0.240648
v -0.000322 0.066958 -0.226019
v -0.000305 0.069100 -0.212637
v -0.000291 0.072686 -0.200503
v -0.000278 0.077685 -0.189623
v -0.000268 0.084066 -0.179999
v -0.000261 0.091797 -0.171635
v -0.000255 0.100848 -0.164535
v -0.000251 0.111186 -0.158702
v -0.000250 0.122782 -0.154140
v -0.000251 0.135603 -0.150853
v -0.000254 0.149618 -0.148845
v -0.000259 0.164797 -0.148118
v -0.000371 0.449793 -0.146589
v -0.000255 0.449315 -0.057590
v -0.000145 0.170319 -0.059087
v -0.000136 0.142857 -0.060546
v -0.000131 0.117505 -0.064533
v -0.000130 0.094319 -0.070917
v -0.000133 0.073354 -0.079571
v -0.000140 0.054664 -0.090365
v -0.000150 0.038304 -0.103171
v -0.000163 0.024329 -0.117860
v -0.000180 0.012795 -0.134304
v -0.000200 0.003755 -0.152373
v -0.000223 -0.002735 -0.171938
v -0.000249 -0.006621 -0.192872
v -0.000277 -0.007847 -0.215045
v -0.000292 -0.007252 -0.226195
v -0.000308 -0.005615 -0.237594
v -0.000324 -0.002976 -0.249160
v -0.000340 0.000621 -0.260815
v -0.000357 0.005135 -0.272479
v -0.000375 0.010524 -0.284072
v -0.000392 0.016745 -0.295515
v -0.000410 0.023757 -0.306729
v -0.000427 0.031517 -0.317632
v -0.000444 0.039983 -0.328146
v -0.000461 0.049113 -0.338192
v -0.000477 0.058866 -0.347689
v -0.000455 0.001867 -0.347995
usemtl None
s off
f 31 29 30
f 31 28 29
f 4 2 3
f 4 1 2
f 32 28 31
f 32 27 28
f 32 26 27
f 33 26 32
f 33 25 26
f 5 1 4
f 33 24 25
f 6 1 5
f 34 24 33
f 34 23 24
f 7 1 6
f 8 1 7
f 34 22 23
f 35 22 34
f 9 1 8
f 35 21 22
f 10 55 9
f 55 1 9
f 35 20 21
f 11 55 10
f 35 19 20
f 12 55 11
f 36 19 35
f 13 55 12
f 36 18 19
f 14 55 13
f 36 17 18
f 15 55 14
f 36 16 17
f 16 55 15
f 36 55 16
f 36 54 55
f 56 1 55
f 37 54 36
f 37 53 54
f 37 52 53
f 38 52 37
f 38 51 52
f 39 51 38
f 39 50 51
f 39 49 50
f 40 49 39
f 40 48 49
f 40 47 48
f 41 47 40
f 41 46 47
f 42 46 41
f 42 45 46
f 42 44 45
f 43 44 42
