# Blender v2.73 (sub 0) OBJ File: 'b.blend'
# www.blender.org
mtllib x.mtl
o B
v -0.000813 0.451606 -0.484584
v -0.000664 0.450994 -0.370586
v -0.000436 0.296310 -0.243414
v -0.000323 0.449594 -0.109590
v -0.000176 0.448994 0.002409
v -0.000336 0.229011 -0.187774
v 0.000000 0.000000 0.000000
v -0.000146 0.000601 -0.111998
v -0.000383 0.162312 -0.244133
v -0.000504 0.002071 -0.385994
v -0.000653 0.002682 -0.499992
v -0.000484 0.229617 -0.300772
usemtl None
s off
f 6 4 5
f 6 3 4
f 3 1 2
f 3 12 1
f 6 12 3
f 7 12 6
f 7 9 12
f 9 11 12
f 7 8 9
f 10 11 9
