# Blender v2.73 (sub 0) OBJ File: 'B.blend'
# www.blender.org
mtllib B.mtl
o A
v -0.000098 0.000402 -0.074999
v -0.000404 0.001657 -0.308995
v -0.000457 0.003852 -0.349510
v -0.000507 0.009717 -0.385661
v -0.000552 0.018865 -0.417608
v -0.000593 0.030909 -0.445507
v -0.000631 0.045459 -0.469518
v -0.000664 0.062128 -0.489798
v -0.000693 0.080528 -0.506507
v -0.000718 0.100271 -0.519802
v -0.000739 0.120969 -0.529843
v -0.000757 0.142233 -0.536786
v -0.000771 0.163676 -0.540791
v -0.000781 0.184910 -0.542015
v -0.000788 0.207369 -0.540616
v -0.000791 0.228692 -0.536716
v -0.000791 0.248802 -0.530391
v -0.000787 0.267617 -0.521720
v -0.000780 0.285059 -0.510777
v -0.000769 0.301049 -0.497642
v -0.000755 0.315506 -0.482389
v -0.000738 0.328351 -0.465097
v -0.000717 0.339506 -0.445841
v -0.000693 0.348890 -0.424699
v -0.000666 0.356423 -0.401747
v -0.000637 0.362028 -0.377063
v -0.000637 0.364028 -0.377052
v -0.000662 0.371727 -0.393972
v -0.000686 0.380155 -0.409323
v -0.000708 0.389338 -0.423120
v -0.000728 0.399304 -0.435382
v -0.000746 0.410082 -0.446126
v -0.000763 0.421699 -0.455369
v -0.000778 0.434183 -0.463128
v -0.000791 0.447561 -0.469420
v -0.000803 0.461863 -0.474263
v -0.000814 0.477115 -0.477674
v -0.000823 0.493346 -0.479670
v -0.000831 0.510584 -0.480267
v -0.000837 0.532066 -0.478828
v -0.000840 0.553304 -0.474691
v -0.000840 0.573986 -0.467787
v -0.000835 0.593799 -0.458043
v -0.000826 0.612429 -0.445389
v -0.000812 0.629564 -0.429753
v -0.000794 0.644891 -0.411065
v -0.000771 0.658097 -0.389253
v -0.000743 0.668870 -0.364245
v -0.000709 0.676895 -0.335971
v -0.000670 0.681861 -0.304358
v -0.000625 0.683455 -0.269337
v -0.000366 0.682392 -0.071340
v -0.000459 0.594919 -0.169811
v -0.000577 0.595402 -0.259809
v -0.000604 0.594621 -0.281062
v -0.000628 0.592122 -0.299892
v -0.000648 0.588034 -0.316412
v -0.000664 0.582486 -0.330732
v -0.000677 0.575608 -0.342961
v -0.000688 0.567528 -0.353210
v -0.000695 0.558375 -0.361590
v -0.000699 0.548279 -0.368212
v -0.000702 0.537369 -0.373185
v -0.000701 0.525773 -0.376620
v -0.000699 0.513621 -0.378627
v -0.000695 0.501042 -0.379317
v -0.000687 0.483557 -0.378430
v -0.000677 0.467600 -0.375566
v -0.000665 0.453167 -0.370715
v -0.000651 0.440254 -0.363865
v -0.000634 0.428859 -0.355008
v -0.000616 0.418977 -0.344132
v -0.000596 0.410605 -0.331227
v -0.000574 0.403739 -0.316283
v -0.000550 0.398377 -0.299289
v -0.000523 0.394513 -0.280235
v -0.000495 0.392146 -0.259110
v -0.000464 0.391271 -0.235904
v -0.000379 0.390922 -0.170905
v -0.000345 0.302924 -0.171377
v -0.000499 0.303557 -0.289375
v -0.000531 0.302787 -0.313988
v -0.000559 0.300262 -0.336343
v -0.000583 0.296073 -0.356463
v -0.000604 0.290309 -0.374374
v -0.000622 0.283061 -0.390097
v -0.000636 0.274419 -0.403658
v -0.000647 0.264475 -0.415080
v -0.000655 0.253317 -0.424388
v -0.000659 0.241037 -0.431603
v -0.000661 0.227726 -0.436752
v -0.000659 0.213472 -0.439857
v -0.000654 0.198368 -0.440942
v -0.000648 0.185526 -0.440334
v -0.000641 0.172645 -0.438251
v -0.000631 0.159942 -0.434507
v -0.000618 0.147636 -0.428917
v -0.000604 0.135944 -0.421297
v -0.000587 0.125084 -0.411460
v -0.000567 0.115273 -0.399221
v -0.000544 0.106730 -0.384396
v -0.000518 0.099672 -0.366798
v -0.000489 0.094317 -0.346244
v -0.000457 0.090883 -0.322547
v -0.000421 0.089586 -0.295523
v -0.000261 0.088927 -0.172525
usemtl None
s off
f 1 53 52
f 53 51 52
f 53 50 51
f 53 49 50
f 53 48 49
f 53 47 48
f 53 46 47
f 53 45 46
f 53 44 45
f 53 54 44
f 54 43 44
f 1 79 53
f 55 43 54
f 56 43 55
f 56 42 43
f 57 42 56
f 58 42 57
f 59 42 58
f 60 42 59
f 60 41 42
f 61 41 60
f 62 41 61
f 62 40 41
f 63 40 62
f 64 40 63
f 64 39 40
f 65 39 64
f 66 39 65
f 66 38 39
f 67 38 66
f 67 37 38
f 68 37 67
f 68 36 37
f 69 36 68
f 69 35 36
f 70 35 69
f 70 34 35
f 71 34 70
f 71 33 34
f 72 33 71
f 72 32 33
f 73 32 72
f 74 32 73
f 74 31 32
f 75 31 74
f 75 30 31
f 76 30 75
f 77 30 76
f 78 30 77
f 1 80 79
f 80 78 79
f 80 30 78
f 80 29 30
f 80 28 29
f 80 27 28
f 80 26 27
f 80 25 26
f 80 24 25
f 80 23 24
f 80 22 23
f 80 21 22
f 80 81 21
f 81 20 21
f 1 106 80
f 82 20 81
f 83 20 82
f 84 20 83
f 84 19 20
f 85 19 84
f 86 19 85
f 86 18 19
f 87 18 86
f 88 18 87
f 88 17 18
f 89 17 88
f 90 17 89
f 90 16 17
f 91 16 90
f 91 15 16
f 92 15 91
f 93 15 92
f 93 14 15
f 94 14 93
f 95 14 94
f 95 13 14
f 96 13 95
f 96 12 13
f 97 12 96
f 98 12 97
f 98 11 12
f 99 11 98
f 100 11 99
f 100 10 11
f 101 10 100
f 102 10 101
f 103 10 102
f 103 9 10
f 104 9 103
f 105 9 104
f 1 105 106
f 1 9 105
f 1 8 9
f 1 7 8
f 1 6 7
f 1 5 6
f 1 4 5
f 1 3 4
f 1 2 3
