# Blender v2.73 (sub 0) OBJ File: 'C.blend'
# www.blender.org
mtllib C.mtl
o A
v -0.001106 0.638510 -0.652583
v -0.001080 0.647682 -0.629730
v -0.001055 0.655959 -0.607725
v -0.001030 0.663359 -0.586496
v -0.001006 0.669897 -0.565970
v -0.000982 0.675592 -0.546072
v -0.000959 0.680460 -0.526732
v -0.000936 0.684518 -0.507875
v -0.000913 0.687783 -0.489428
v -0.000891 0.690273 -0.471319
v -0.000868 0.692003 -0.453474
v -0.000846 0.692991 -0.435821
v -0.000823 0.693254 -0.418287
v -0.000752 0.689859 -0.365360
v -0.000683 0.680479 -0.315303
v -0.000616 0.665450 -0.268449
v -0.000552 0.645106 -0.225135
v -0.000490 0.619783 -0.185694
v -0.000432 0.589816 -0.150463
v -0.000378 0.555539 -0.119775
v -0.000329 0.517289 -0.093967
v -0.000286 0.475400 -0.073373
v -0.000248 0.430208 -0.058327
v -0.000217 0.382047 -0.049166
v -0.000193 0.331253 -0.046224
v -0.000181 0.294536 -0.048772
v -0.000176 0.256467 -0.056106
v -0.000176 0.217917 -0.068332
v -0.000183 0.179758 -0.085555
v -0.000198 0.142863 -0.107883
v -0.000220 0.108103 -0.135422
v -0.000250 0.076351 -0.168278
v -0.000289 0.048479 -0.206558
v -0.000337 0.025359 -0.250367
v -0.000394 0.007863 -0.299814
v -0.000462 -0.003137 -0.355003
v -0.000540 -0.006768 -0.416042
v -0.000574 -0.006117 -0.442097
v -0.000607 -0.004482 -0.466827
v -0.000639 -0.001917 -0.490329
v -0.000669 0.001528 -0.512702
v -0.000699 0.005800 -0.534043
v -0.000727 0.010849 -0.554449
v -0.000755 0.016623 -0.574018
v -0.000782 0.023069 -0.592847
v -0.000809 0.030137 -0.611034
v -0.000835 0.037776 -0.628676
v -0.000861 0.045932 -0.645871
v -0.000886 0.054556 -0.662716
v -0.000928 0.161554 -0.662142
v -0.000898 0.149432 -0.642819
v -0.000868 0.138280 -0.623248
v -0.000838 0.128114 -0.603477
v -0.000809 0.118947 -0.583555
v -0.000779 0.110793 -0.563530
v -0.000750 0.103667 -0.543451
v -0.000722 0.097582 -0.523367
v -0.000693 0.092553 -0.503325
v -0.000666 0.088594 -0.483375
v -0.000639 0.085719 -0.463565
v -0.000613 0.083943 -0.443943
v -0.000587 0.083279 -0.424559
v -0.000536 0.085239 -0.384666
v -0.000489 0.091423 -0.347125
v -0.000448 0.101629 -0.312147
v -0.000411 0.115651 -0.279939
v -0.000380 0.133287 -0.250712
v -0.000355 0.154332 -0.224675
v -0.000335 0.178583 -0.202038
v -0.000321 0.205836 -0.183009
v -0.000313 0.235888 -0.167799
v -0.000312 0.268534 -0.156617
v -0.000317 0.303571 -0.149672
v -0.000328 0.340794 -0.147174
v -0.000346 0.377452 -0.149350
v -0.000368 0.412260 -0.156105
v -0.000396 0.444966 -0.167178
v -0.000428 0.475318 -0.182304
v -0.000464 0.503066 -0.201223
v -0.000503 0.527957 -0.223671
v -0.000545 0.549742 -0.249385
v -0.000590 0.568167 -0.278104
v -0.000637 0.582981 -0.309564
v -0.000686 0.593935 -0.343504
v -0.000735 0.600774 -0.379660
v -0.000786 0.603250 -0.417769
v -0.000812 0.602894 -0.437387
v -0.000836 0.601602 -0.456783
v -0.000861 0.599359 -0.476025
v -0.000884 0.596146 -0.495179
v -0.000907 0.591947 -0.514310
v -0.000930 0.586745 -0.533485
v -0.000953 0.580523 -0.552769
v -0.000976 0.573263 -0.572229
v -0.000998 0.564949 -0.591930
v -0.001020 0.555564 -0.611940
v -0.001043 0.545090 -0.632323
v -0.001065 0.533511 -0.653147
usemtl None
s off
f 14 12 13
f 14 11 12
f 14 10 11
f 15 10 14
f 15 9 10
f 15 8 9
f 15 7 8
f 16 7 15
f 16 6 7
f 16 5 6
f 16 4 5
f 17 4 16
f 17 3 4
f 17 2 3
f 17 1 2
f 18 1 17
f 18 88 1
f 88 89 1
f 89 90 1
f 90 91 1
f 91 92 1
f 92 93 1
f 93 94 1
f 94 95 1
f 95 96 1
f 96 97 1
f 97 98 1
f 19 86 18
f 86 87 18
f 87 88 18
f 19 85 86
f 19 84 85
f 19 83 84
f 20 83 19
f 20 82 83
f 20 81 82
f 21 81 20
f 21 80 81
f 21 79 80
f 22 79 21
f 22 78 79
f 23 78 22
f 23 77 78
f 23 76 77
f 24 76 23
f 24 75 76
f 25 75 24
f 25 74 75
f 25 73 74
f 26 73 25
f 26 72 73
f 27 72 26
f 27 71 72
f 28 71 27
f 28 70 71
f 29 70 28
f 29 69 70
f 30 69 29
f 30 68 69
f 51 49 50
f 30 67 68
f 52 49 51
f 31 67 30
f 53 49 52
f 31 66 67
f 54 49 53
f 55 49 54
f 31 65 66
f 56 49 55
f 32 65 31
f 57 49 56
f 32 64 65
f 58 49 57
f 59 49 58
f 32 63 64
f 60 49 59
f 61 49 60
f 32 62 63
f 62 49 61
f 32 49 62
f 33 49 32
f 33 48 49
f 34 48 33
f 34 47 48
f 34 46 47
f 34 45 46
f 35 45 34
f 35 44 45
f 35 43 44
f 35 42 43
f 36 42 35
f 36 41 42
f 36 40 41
f 36 39 40
f 37 39 36
f 37 38 39
