# Blender v2.73 (sub 0) OBJ File: 'G.blend'
# www.blender.org
mtllib G.mtl
o A
v -0.001011 0.339605 -0.671187
v -0.000712 0.338377 -0.442191
v -0.000677 0.250378 -0.442663
v -0.000849 0.251081 -0.573661
v -0.000794 0.111083 -0.574412
v -0.000777 0.107337 -0.562659
v -0.000760 0.103748 -0.550849
v -0.000743 0.100346 -0.538969
v -0.000726 0.097162 -0.527004
v -0.000709 0.094227 -0.514941
v -0.000692 0.091573 -0.502766
v -0.000675 0.089231 -0.490463
v -0.000658 0.087232 -0.478020
v -0.000641 0.085607 -0.465422
v -0.000624 0.084388 -0.452655
v -0.000607 0.083605 -0.439706
v -0.000590 0.083289 -0.426559
v -0.000539 0.085271 -0.387086
v -0.000493 0.091507 -0.349819
v -0.000452 0.101785 -0.314989
v -0.000415 0.115889 -0.282827
v -0.000384 0.133606 -0.253561
v -0.000358 0.154722 -0.227423
v -0.000338 0.179023 -0.204643
v -0.000324 0.206294 -0.185451
v -0.000316 0.236322 -0.170078
v -0.000315 0.268892 -0.158754
v -0.000319 0.303791 -0.151709
v -0.000331 0.340805 -0.149174
v -0.000348 0.377043 -0.151328
v -0.000371 0.411576 -0.157998
v -0.000398 0.444131 -0.168901
v -0.000429 0.474437 -0.183754
v -0.000465 0.502221 -0.202273
v -0.000503 0.527210 -0.224175
v -0.000545 0.549133 -0.249177
v -0.000588 0.567716 -0.276995
v -0.000634 0.582688 -0.307347
v -0.000681 0.593777 -0.339949
v -0.000729 0.600709 -0.374518
v -0.000777 0.603212 -0.410770
v -0.000804 0.602844 -0.431290
v -0.000830 0.601525 -0.451844
v -0.000856 0.599261 -0.472417
v -0.000881 0.596060 -0.492994
v -0.000906 0.591929 -0.513563
v -0.000931 0.586873 -0.534109
v -0.000956 0.580901 -0.554618
v -0.000980 0.574019 -0.575077
v -0.001003 0.566233 -0.595471
v -0.001026 0.557552 -0.615786
v -0.001049 0.547981 -0.636009
v -0.001071 0.537527 -0.656125
v -0.001110 0.636526 -0.655594
v -0.001080 0.646982 -0.629807
v -0.001053 0.656181 -0.605891
v -0.001027 0.664187 -0.583586
v -0.001002 0.671065 -0.562630
v -0.000979 0.676879 -0.542763
v -0.000956 0.681694 -0.523725
v -0.000933 0.685575 -0.505254
v -0.000911 0.688586 -0.487090
v -0.000888 0.690791 -0.468972
v -0.000865 0.692256 -0.450640
v -0.000840 0.693044 -0.431831
v -0.000815 0.693221 -0.412287
v -0.000747 0.689822 -0.361408
v -0.000680 0.680425 -0.313021
v -0.000615 0.665398 -0.267497
v -0.000552 0.645106 -0.225209
v -0.000491 0.619918 -0.186531
v -0.000434 0.590198 -0.151836
v -0.000381 0.556314 -0.121496
v -0.000332 0.518633 -0.095886
v -0.000289 0.477521 -0.075377
v -0.000252 0.433344 -0.060343
v -0.000221 0.386469 -0.051157
v -0.000198 0.337263 -0.048191
v -0.000183 0.288459 -0.051604
v -0.000177 0.242257 -0.061076
v -0.000179 0.198974 -0.076262
v -0.000190 0.158929 -0.096815
v -0.000209 0.122438 -0.122392
v -0.000235 0.089820 -0.152645
v -0.000269 0.061392 -0.187230
v -0.000309 0.037471 -0.225802
v -0.000357 0.018375 -0.268014
v -0.000411 0.004423 -0.313522
v -0.000470 -0.004070 -0.361980
v -0.000536 -0.006785 -0.413042
v -0.000567 -0.006321 -0.436374
v -0.000597 -0.005168 -0.458960
v -0.000626 -0.003295 -0.480930
v -0.000655 -0.000675 -0.502418
v -0.000684 0.002720 -0.523554
v -0.000713 0.006921 -0.544470
v -0.000742 0.011954 -0.565299
v -0.000772 0.017848 -0.586171
v -0.000802 0.024633 -0.607220
v -0.000833 0.032335 -0.628576
v -0.000865 0.040985 -0.650371
v -0.000898 0.050609 -0.672738
usemtl None
s off
f 67 65 66
f 67 64 65
f 67 63 64
f 67 62 63
f 68 62 67
f 68 61 62
f 68 60 61
f 68 59 60
f 69 59 68
f 69 58 59
f 69 57 58
f 70 57 69
f 70 56 57
f 70 55 56
f 71 55 70
f 71 54 55
f 71 43 54
f 43 44 54
f 44 45 54
f 45 46 54
f 46 47 54
f 47 48 54
f 48 49 54
f 49 50 54
f 50 51 54
f 51 52 54
f 52 53 54
f 72 41 71
f 41 42 71
f 42 43 71
f 72 40 41
f 72 39 40
f 72 38 39
f 73 38 72
f 73 37 38
f 73 36 37
f 74 36 73
f 74 35 36
f 74 34 35
f 75 34 74
f 75 33 34
f 76 33 75
f 76 32 33
f 76 31 32
f 77 31 76
f 77 30 31
f 78 30 77
f 78 29 30
f 78 28 29
f 79 28 78
f 3 1 2
f 3 4 1
f 4 102 1
f 79 27 28
f 80 27 79
f 80 26 27
f 5 102 4
f 81 26 80
f 81 25 26
f 81 24 25
f 82 24 81
f 82 23 24
f 83 23 82
f 83 22 23
f 83 21 22
f 84 21 83
f 84 20 21
f 6 102 5
f 7 102 6
f 8 102 7
f 84 19 20
f 9 102 8
f 10 102 9
f 11 102 10
f 84 18 19
f 85 18 84
f 12 102 11
f 13 102 12
f 14 102 13
f 85 17 18
f 15 102 14
f 16 102 15
f 17 102 16
f 85 102 17
f 86 102 85
f 86 101 102
f 86 100 101
f 87 100 86
f 87 99 100
f 87 98 99
f 88 98 87
f 88 97 98
f 88 96 97
f 88 95 96
f 89 95 88
f 89 94 95
f 89 93 94
f 89 92 93
f 90 92 89
f 90 91 92
