# Blender v2.73 (sub 0) OBJ File: 'J.blend'
# www.blender.org
mtllib J.mtl
o A
v -0.000495 0.682923 -0.170339
v -0.000367 0.682398 -0.072340
v -0.000108 0.021407 -0.075886
v -0.000097 -0.003970 -0.075785
v -0.000087 -0.027107 -0.074998
v -0.000076 -0.048014 -0.073227
v -0.000065 -0.066699 -0.070174
v -0.000052 -0.083169 -0.065538
v -0.000038 -0.097435 -0.059023
v -0.000022 -0.109504 -0.050330
v -0.000003 -0.119384 -0.039159
v 0.000018 -0.127085 -0.025213
v 0.000042 -0.132615 -0.008193
v 0.000070 -0.135983 0.012200
v 0.000102 -0.137196 0.036264
v 0.000135 -0.137331 0.061264
v 0.000147 -0.228233 0.042776
v 0.000144 -0.228469 0.040313
v 0.000141 -0.228702 0.037913
v 0.000138 -0.228928 0.035554
v 0.000135 -0.229144 0.033216
v 0.000132 -0.229347 0.030878
v 0.000129 -0.229531 0.028519
v 0.000126 -0.229695 0.026119
v 0.000123 -0.229834 0.023656
v 0.000119 -0.229945 0.021110
v 0.000116 -0.230024 0.018461
v 0.000112 -0.230067 0.015686
v 0.000109 -0.230072 0.012766
v 0.000065 -0.227955 -0.019702
v 0.000025 -0.222117 -0.048688
v -0.000012 -0.212776 -0.074314
v -0.000046 -0.200151 -0.096705
v -0.000077 -0.184459 -0.115981
v -0.000106 -0.165918 -0.132267
v -0.000132 -0.144747 -0.145684
v -0.000155 -0.121163 -0.156356
v -0.000176 -0.095385 -0.164405
v -0.000195 -0.067631 -0.169953
v -0.000211 -0.038119 -0.173124
v -0.000224 -0.007067 -0.174040
usemtl None
s off
f 3 1 2
f 3 41 1
f 4 41 3
f 5 41 4
f 5 40 41
f 6 40 5
f 6 39 40
f 7 39 6
f 8 39 7
f 8 38 39
f 9 38 8
f 9 37 38
f 10 37 9
f 11 37 10
f 12 37 11
f 12 36 37
f 13 36 12
f 14 36 13
f 15 36 14
f 17 15 16
f 17 36 15
f 17 35 36
f 17 34 35
f 17 33 34
f 17 32 33
f 17 31 32
f 17 30 31
f 18 30 17
f 18 29 30
f 19 29 18
f 20 29 19
f 21 29 20
f 22 29 21
f 23 29 22
f 24 29 23
f 25 29 24
f 26 29 25
f 27 29 26
f 28 29 27
