# Blender v2.73 (sub 0) OBJ File: 'R.blend'
# www.blender.org
mtllib R.mtl
o A
v -0.000369 0.682403 -0.073340
v -0.000101 0.000413 -0.076999
v -0.000229 0.000939 -0.174997
v -0.000345 0.296934 -0.173409
v -0.000398 0.297154 -0.214409
v -0.000414 0.296825 -0.226757
v -0.000430 0.295453 -0.238937
v -0.000445 0.292664 -0.251152
v -0.000459 0.288085 -0.263606
v -0.000473 0.281341 -0.276503
v -0.000487 0.272060 -0.290044
v -0.000501 0.259866 -0.304435
v -0.000515 0.244386 -0.319879
v -0.000529 0.225246 -0.336578
v -0.000543 0.202072 -0.354736
v -0.000558 0.174491 -0.374556
v -0.000574 0.142127 -0.396243
v -0.000636 0.002612 -0.486993
v -0.000789 0.003240 -0.603991
v -0.000781 0.018593 -0.592759
v -0.000773 0.032431 -0.582640
v -0.000766 0.044983 -0.573485
v -0.000760 0.056477 -0.565149
v -0.000754 0.067141 -0.557484
v -0.000749 0.077203 -0.550343
v -0.000744 0.086893 -0.543580
v -0.000739 0.096438 -0.537046
v -0.000734 0.106066 -0.530594
v -0.000730 0.116007 -0.524079
v -0.000725 0.126489 -0.517353
v -0.000721 0.137739 -0.510268
v -0.000712 0.158462 -0.497426
v -0.000704 0.178271 -0.485041
v -0.000696 0.197165 -0.472980
v -0.000687 0.215143 -0.461111
v -0.000679 0.232205 -0.449303
v -0.000670 0.248350 -0.437424
v -0.000660 0.263577 -0.425341
v -0.000650 0.277886 -0.412922
v -0.000638 0.291275 -0.400037
v -0.000626 0.303745 -0.386552
v -0.000612 0.315293 -0.372336
v -0.000596 0.325921 -0.357256
v -0.000622 0.333884 -0.374792
v -0.000647 0.343056 -0.390957
v -0.000670 0.353400 -0.405719
v -0.000692 0.364883 -0.419048
v -0.000713 0.377468 -0.430913
v -0.000732 0.391123 -0.441283
v -0.000749 0.405810 -0.450126
v -0.000765 0.421497 -0.457412
v -0.000779 0.438147 -0.463109
v -0.000792 0.455726 -0.467187
v -0.000802 0.474198 -0.469613
v -0.000811 0.493530 -0.470359
v -0.000820 0.522067 -0.468434
v -0.000823 0.548612 -0.463054
v -0.000822 0.573070 -0.454338
v -0.000815 0.595345 -0.442405
v -0.000803 0.615338 -0.427373
v -0.000787 0.632955 -0.409360
v -0.000766 0.648098 -0.388486
v -0.000740 0.660670 -0.364868
v -0.000710 0.670576 -0.338626
v -0.000675 0.677718 -0.309878
v -0.000636 0.682000 -0.278742
v -0.000593 0.683326 -0.245338
v -0.000464 0.598930 -0.171789
v -0.000546 0.599268 -0.234788
v -0.000575 0.598585 -0.257366
v -0.000601 0.596313 -0.277647
v -0.000623 0.592501 -0.295700
v -0.000641 0.587198 -0.311595
v -0.000657 0.580454 -0.325400
v -0.000669 0.572317 -0.337184
v -0.000678 0.562836 -0.347018
v -0.000684 0.552060 -0.354969
v -0.000687 0.540038 -0.361108
v -0.000687 0.526820 -0.365503
v -0.000685 0.512454 -0.368224
v -0.000680 0.496988 -0.369339
v -0.000674 0.482828 -0.368994
v -0.000666 0.468963 -0.367202
v -0.000657 0.455567 -0.363811
v -0.000645 0.442819 -0.358666
v -0.000631 0.430894 -0.351614
v -0.000615 0.419968 -0.342502
v -0.000596 0.410218 -0.331174
v -0.000575 0.401820 -0.317478
v -0.000551 0.394950 -0.301260
v -0.000524 0.389784 -0.282366
v -0.000494 0.386499 -0.260643
v -0.000462 0.385271 -0.235936
v -0.000379 0.384933 -0.172937
usemtl None
s off
f 2 68 1
f 68 67 1
f 68 66 67
f 68 65 66
f 68 64 65
f 68 63 64
f 68 62 63
f 68 61 62
f 68 60 61
f 68 69 60
f 69 59 60
f 2 94 68
f 70 59 69
f 71 59 70
f 72 59 71
f 72 58 59
f 73 58 72
f 74 58 73
f 75 58 74
f 75 57 58
f 76 57 75
f 77 57 76
f 78 57 77
f 78 56 57
f 79 56 78
f 80 56 79
f 80 55 56
f 81 55 80
f 82 55 81
f 82 54 55
f 83 54 82
f 83 53 54
f 84 53 83
f 85 53 84
f 85 52 53
f 86 52 85
f 86 51 52
f 87 51 86
f 87 50 51
f 88 50 87
f 89 50 88
f 89 49 50
f 90 49 89
f 91 49 90
f 91 48 49
f 92 48 91
f 93 48 92
f 2 4 94
f 4 93 94
f 4 48 93
f 4 47 48
f 4 46 47
f 4 45 46
f 4 44 45
f 4 43 44
f 4 42 43
f 4 41 42
f 4 5 41
f 5 6 41
f 6 40 41
f 2 3 4
f 7 40 6
f 8 40 7
f 9 40 8
f 9 39 40
f 10 39 9
f 11 39 10
f 11 38 39
f 12 38 11
f 12 37 38
f 13 37 12
f 13 36 37
f 14 36 13
f 14 35 36
f 15 35 14
f 15 34 35
f 16 34 15
f 16 33 34
f 16 32 33
f 17 32 16
f 17 31 32
f 18 31 17
f 18 30 31
f 18 29 30
f 18 28 29
f 18 27 28
f 18 26 27
f 18 25 26
f 18 24 25
f 18 23 24
f 18 22 23
f 18 21 22
f 18 20 21
f 18 19 20
