# Blender v2.73 (sub 0) OBJ File: 'S.blend'
# www.blender.org
mtllib S.mtl
o A
v -0.000774 0.645131 -0.395545
v -0.000761 0.652733 -0.383423
v -0.000748 0.659667 -0.371151
v -0.000734 0.665934 -0.358745
v -0.000720 0.671533 -0.346217
v -0.000706 0.676466 -0.333582
v -0.000691 0.680731 -0.320853
v -0.000675 0.684329 -0.308044
v -0.000660 0.687260 -0.295169
v -0.000644 0.689524 -0.282242
v -0.000628 0.691121 -0.269278
v -0.000611 0.692051 -0.256289
v -0.000594 0.692315 -0.243289
v -0.000554 0.690691 -0.212966
v -0.000515 0.686227 -0.184585
v -0.000478 0.679031 -0.158281
v -0.000443 0.669211 -0.134190
v -0.000409 0.656876 -0.112445
v -0.000378 0.642134 -0.093181
v -0.000350 0.625094 -0.076535
v -0.000324 0.605863 -0.062640
v -0.000301 0.584551 -0.051630
v -0.000281 0.561265 -0.043642
v -0.000265 0.536115 -0.038810
v -0.000252 0.509207 -0.037269
v -0.000243 0.465880 -0.043306
v -0.000249 0.428705 -0.059553
v -0.000268 0.396644 -0.083967
v -0.000297 0.368656 -0.114505
v -0.000332 0.343705 -0.149125
v -0.000371 0.320751 -0.185782
v -0.000410 0.298755 -0.222434
v -0.000446 0.276679 -0.257038
v -0.000476 0.253484 -0.287550
v -0.000498 0.228130 -0.311929
v -0.000508 0.199580 -0.328129
v -0.000502 0.166795 -0.334110
v -0.000498 0.157116 -0.333429
v -0.000491 0.147214 -0.331270
v -0.000482 0.137291 -0.327612
v -0.000472 0.127546 -0.322431
v -0.000459 0.118182 -0.315707
v -0.000445 0.109401 -0.307417
v -0.000429 0.101402 -0.297540
v -0.000411 0.094388 -0.286053
v -0.000391 0.088559 -0.272935
v -0.000370 0.084117 -0.258163
v -0.000348 0.081264 -0.241717
v -0.000324 0.080200 -0.223573
v -0.000302 0.080837 -0.206908
v -0.000282 0.082912 -0.190433
v -0.000262 0.086404 -0.174179
v -0.000243 0.091294 -0.158179
v -0.000225 0.097561 -0.142463
v -0.000208 0.105183 -0.127062
v -0.000192 0.114141 -0.112009
v -0.000177 0.124413 -0.097334
v -0.000163 0.135979 -0.083069
v -0.000150 0.148818 -0.069244
v -0.000138 0.162910 -0.055892
v -0.000127 0.178233 -0.043044
v -0.000079 0.054235 -0.043710
v -0.000093 0.044040 -0.058083
v -0.000109 0.034793 -0.072615
v -0.000125 0.026485 -0.087343
v -0.000141 0.019105 -0.102306
v -0.000158 0.012643 -0.117542
v -0.000176 0.007089 -0.133089
v -0.000195 0.002433 -0.148985
v -0.000215 -0.001336 -0.165269
v -0.000236 -0.004227 -0.181978
v -0.000257 -0.006251 -0.199152
v -0.000280 -0.007419 -0.216828
v -0.000303 -0.007739 -0.235045
v -0.000339 -0.005999 -0.261901
v -0.000374 -0.001185 -0.287353
v -0.000409 0.006529 -0.311219
v -0.000442 0.016973 -0.333321
v -0.000473 0.029977 -0.353478
v -0.000503 0.045368 -0.371512
v -0.000530 0.062977 -0.387242
v -0.000555 0.082631 -0.400488
v -0.000578 0.104160 -0.411072
v -0.000597 0.127392 -0.418813
v -0.000613 0.152157 -0.423532
v -0.000626 0.178283 -0.425049
v -0.000638 0.228142 -0.418977
v -0.000633 0.270044 -0.402705
v -0.000615 0.305221 -0.378274
v -0.000587 0.334907 -0.347727
v -0.000552 0.360335 -0.313105
v -0.000514 0.382738 -0.276451
v -0.000474 0.403350 -0.239806
v -0.000437 0.423403 -0.205213
v -0.000405 0.444131 -0.174714
v -0.000383 0.466767 -0.150350
v -0.000372 0.492544 -0.134164
v -0.000376 0.522695 -0.128198
v -0.000382 0.534377 -0.129057
v -0.000390 0.545381 -0.131701
v -0.000400 0.555644 -0.136037
v -0.000411 0.565103 -0.141970
v -0.000424 0.573695 -0.149409
v -0.000439 0.581357 -0.158258
v -0.000455 0.588026 -0.168426
v -0.000472 0.593640 -0.179818
v -0.000490 0.598134 -0.192341
v -0.000509 0.601446 -0.205901
v -0.000529 0.603514 -0.220406
v -0.000549 0.604273 -0.235762
v -0.000564 0.603989 -0.247467
v -0.000580 0.602961 -0.259565
v -0.000595 0.601108 -0.272029
v -0.000611 0.598351 -0.284831
v -0.000626 0.594610 -0.297944
v -0.000642 0.589804 -0.311340
v -0.000657 0.583853 -0.324993
v -0.000673 0.576678 -0.338874
v -0.000688 0.568198 -0.352957
v -0.000702 0.558334 -0.367213
v -0.000716 0.547006 -0.381617
v -0.000730 0.534133 -0.396140
usemtl None
s off
f 14 12 13
f 14 11 12
f 14 10 11
f 15 10 14
f 15 9 10
f 15 8 9
f 16 8 15
f 16 7 8
f 16 6 7
f 17 6 16
f 17 5 6
f 17 4 5
f 18 4 17
f 18 3 4
f 18 2 3
f 19 2 18
f 19 1 2
f 19 114 1
f 114 115 1
f 115 116 1
f 116 117 1
f 117 118 1
f 118 119 1
f 119 120 1
f 120 121 1
f 121 122 1
f 20 112 19
f 112 113 19
f 113 114 19
f 21 110 20
f 110 111 20
f 111 112 20
f 22 109 21
f 109 110 21
f 22 108 109
f 22 107 108
f 22 106 107
f 22 105 106
f 22 104 105
f 23 104 22
f 23 103 104
f 23 102 103
f 23 101 102
f 24 101 23
f 24 100 101
f 24 99 100
f 25 99 24
f 25 98 99
f 25 97 98
f 26 97 25
f 26 96 97
f 26 95 96
f 27 95 26
f 27 94 95
f 28 94 27
f 28 93 94
f 28 92 93
f 29 92 28
f 29 91 92
f 30 91 29
f 30 90 91
f 31 90 30
f 31 89 90
f 32 89 31
f 32 88 89
f 33 88 32
f 34 88 33
f 34 87 88
f 35 87 34
f 36 87 35
f 36 86 87
f 37 86 36
f 62 60 61
f 37 85 86
f 38 85 37
f 62 59 60
f 39 85 38
f 39 84 85
f 62 58 59
f 40 84 39
f 62 57 58
f 41 84 40
f 42 84 41
f 42 83 84
f 62 56 57
f 43 83 42
f 62 55 56
f 44 83 43
f 62 54 55
f 44 82 83
f 45 82 44
f 62 53 54
f 46 82 45
f 62 52 53
f 47 82 46
f 62 51 52
f 48 82 47
f 62 50 51
f 48 81 82
f 49 81 48
f 62 49 50
f 62 81 49
f 62 80 81
f 63 80 62
f 64 80 63
f 64 79 80
f 65 79 64
f 65 78 79
f 66 78 65
f 67 78 66
f 67 77 78
f 68 77 67
f 69 77 68
f 69 76 77
f 70 76 69
f 71 76 70
f 71 75 76
f 72 75 71
f 73 75 72
f 73 74 75
