# Blender v2.73 (sub 0) OBJ File: 'FontW.blend'
# www.blender.org
mtllib W.mtl
o A
v -0.001628 0.687574 -1.037326
v -0.001501 0.687054 -0.940327
v -0.001073 0.216063 -0.756851
v -0.001010 0.685037 -0.564333
v -0.000888 0.684538 -0.471334
v -0.000457 0.213531 -0.284858
v -0.000396 0.682516 -0.094340
v -0.000268 0.681990 0.003659
v -0.000358 -0.004519 -0.276028
v -0.000383 -0.004418 -0.295028
v -0.000897 0.554787 -0.518031
v -0.000971 -0.002004 -0.745021
v -0.000996 -0.001902 -0.764021
usemtl None
s off
f 9 7 8
f 9 6 7
f 6 4 5
f 6 11 4
f 11 3 4
f 3 1 2
f 3 13 1
f 6 10 11
f 12 3 11
f 9 10 6
f 12 13 3
